<svg width="418" height="68" viewBox="0 0 418 68" fill="none" xmlns="http://www.w3.org/2000/svg">
<path d="M21.5738 66.0924H0.673828L1.05383 63.5274L5.04383 62.1024C7.60883 61.1524 8.74883 60.0124 10.5538 56.6874L39.4338 1.96739L46.5588 0.0673828L60.8088 57.0674C61.6638 60.2974 62.0438 60.8674 64.7988 62.1974L67.9338 63.5274L67.5538 66.0924H43.0438L43.4238 63.5274L46.7488 62.3874C50.3588 61.0574 50.8338 60.2974 50.8338 59.0624C50.8338 58.4924 50.7388 57.6374 50.5488 56.6874L48.0788 46.8074H21.2888L16.3488 56.4024C15.5888 57.9224 15.1138 58.9674 15.1138 59.6324C15.1138 60.7724 15.9688 61.4374 18.5338 62.3874L21.9538 63.5274L21.5738 66.0924ZM39.4338 11.6574L23.8538 41.8674H46.8438L39.4338 11.6574Z" fill="#434343"/>
<path d="M139.537 67.1374C137.162 67.1374 135.927 65.7124 135.927 63.5274C135.927 62.6724 136.022 61.7224 136.497 58.6824L140.392 36.8324C140.772 34.5524 141.057 32.0824 141.057 30.5624C141.057 27.3324 139.727 25.4324 137.162 25.4324C128.897 25.4324 120.252 41.3924 116.072 65.8074L106.572 67.1374L111.702 36.8324C112.082 34.5524 112.367 32.0824 112.367 30.5624C112.367 27.3324 111.037 25.4324 108.377 25.4324C100.207 25.4324 91.4668 41.3924 87.2868 65.8074L77.7868 67.1374L83.5818 25.9074L83.1068 25.5274L73.5118 30.6574L72.6568 28.2824C80.6368 20.4924 85.5768 17.4524 89.3768 17.4524C91.8468 17.4524 92.9868 19.1624 92.9868 21.1574C92.9868 22.5824 92.6068 25.0524 90.3268 38.8274L91.0868 39.3024C97.1668 24.1974 103.627 17.4524 112.652 17.4524C118.162 17.4524 121.297 21.2524 121.297 26.7624C121.297 29.0424 120.822 32.4624 119.207 38.8274L119.967 39.3024C126.047 24.1974 132.317 17.4524 141.342 17.4524C147.327 17.4524 150.557 21.3474 150.557 27.8074C150.557 29.8024 150.272 33.2224 149.702 36.2624L145.902 58.4924L146.377 58.9674L155.782 53.9324L156.732 56.3074C148.752 63.9074 143.717 67.1374 139.537 67.1374Z" fill="#434343"/>
<path d="M174.868 67.0424C167.078 67.0424 162.043 60.5824 162.043 50.1324C162.043 31.9874 175.818 17.4524 192.443 17.4524C195.388 17.4524 198.523 18.0224 202.703 19.2574L206.693 17.1674L208.403 18.4974L202.893 58.5874L203.273 58.9674L212.868 53.8374L213.818 56.2124C205.933 64.0024 200.993 67.0424 197.288 67.0424C194.723 67.0424 193.488 65.3324 193.488 63.3374C193.488 61.9124 193.773 59.7274 196.148 45.7624L195.293 45.2874C189.403 60.2024 182.753 67.0424 174.868 67.0424ZM178.573 60.3924C185.318 60.3924 194.913 43.1024 198.428 24.1974C195.958 22.8674 193.678 22.0124 191.398 21.5374C181.043 23.2474 172.208 35.3124 172.208 49.7524C172.208 56.4024 174.583 60.3924 178.573 60.3924Z" fill="#434343"/>
<path d="M223.964 64.0024L218.264 67.0424L215.984 64.8574L247.144 28.2824L227.954 25.9074L223.964 33.8874H221.494C222.064 28.3774 223.109 24.4824 224.249 21.5374C225.389 18.4974 227.194 17.4524 230.709 17.4524C232.229 17.4524 233.844 17.5474 235.554 17.8324L252.939 20.3024L258.639 17.4524L260.919 19.7324L229.759 56.0224L250.374 58.7774L255.884 50.2274H258.449C257.309 55.4524 255.979 60.2024 254.269 63.5274C252.939 66.0924 251.324 67.0424 248.284 67.0424C246.954 67.0424 245.339 66.9474 243.724 66.6624L223.964 64.0024Z" fill="#434343"/>
<path d="M283.612 67.0424C271.927 67.0424 264.707 58.8724 264.707 45.9524C264.707 29.8024 275.917 17.4524 290.737 17.4524C302.327 17.4524 309.642 25.6224 309.642 38.5424C309.642 54.7874 298.337 67.0424 283.612 67.0424ZM284.087 62.8624C292.732 62.1024 299.287 51.4624 299.287 38.3524C299.287 29.5174 295.677 22.7724 290.167 21.8224C281.522 22.5824 274.967 33.0324 274.967 46.2374C274.967 55.0724 278.577 61.8174 284.087 62.8624Z" fill="#434343"/>
<path d="M330.435 65.8074L320.935 67.1374L326.73 25.9074L326.255 25.5274L316.66 30.6574L315.805 28.2824C323.785 20.4924 328.725 17.4524 332.525 17.4524C334.995 17.4524 336.135 19.1624 336.135 21.1574C336.135 22.5824 335.755 25.0524 333.475 38.8274L334.235 39.3024C340.315 24.1974 346.68 17.4524 355.705 17.4524C361.69 17.4524 365.395 21.3474 365.395 27.8074C365.395 29.8024 365.015 33.2224 364.445 36.2624L360.645 58.4924L361.215 58.9674L370.525 53.9324L371.475 56.3074C363.495 63.9074 358.46 67.1374 354.28 67.1374C351.905 67.1374 350.67 65.7124 350.67 63.5274C350.67 62.6724 350.765 61.7224 351.24 58.6824L355.135 36.8324C355.515 34.5524 355.8 32.0824 355.8 30.5624C355.8 27.3324 354.09 25.4324 351.43 25.4324C343.26 25.4324 334.615 41.3924 330.435 65.8074Z" fill="#434343"/>
<path d="M395.71 67.0424C384.5 67.0424 377.28 58.8724 377.28 46.4274C377.28 30.1824 388.395 17.4524 402.645 17.4524C411.385 17.4524 417.18 22.2024 417.18 29.1374C417.18 38.9224 406.825 46.1424 392.67 46.1424C390.58 46.1424 389.155 46.0474 387.635 45.7624C387.92 55.2624 391.91 60.6774 398.75 60.6774C403.595 60.6774 408.915 58.1124 414.14 53.2674L415.66 55.6424C410.34 62.9574 403.12 67.0424 395.71 67.0424ZM408.155 28.8524C408.155 25.2424 406.255 22.6774 403.025 21.8224C395.235 22.4874 388.68 31.2274 387.73 42.1524C388.585 42.2474 389.535 42.2474 390.675 42.2474C400.745 42.2474 408.155 36.4524 408.155 28.8524Z" fill="#434343"/>
</svg>
