<svg width="103" height="103" viewBox="0 0 103 103" fill="none" xmlns="http://www.w3.org/2000/svg">
<circle cx="51.5" cy="51.5" r="51" stroke="#3E3E3E"/>
<path d="M53.5089 27.8092L75.1122 41.6666C76.6898 42.6786 76.6335 45.0022 75.009 45.9371L53.4058 58.3706C52.6303 58.8169 51.6748 58.8144 50.9013 58.3647L29.5218 45.9321C27.9104 44.9949 27.8545 42.6873 29.4187 41.6733L50.799 27.8154C51.6226 27.2816 52.6828 27.2793 53.5089 27.8092Z" fill="#393939" stroke="white"/>
<path d="M27 56L51.8035 69.8418C52.7235 70.3552 53.8454 70.3484 54.7591 69.8238L78.8366 56" stroke="white" stroke-linecap="round"/>
<path d="M27 67L51.3776 80.6042C52.5671 81.268 54.0127 81.2808 55.2138 80.6382L78.8366 68" stroke="white" stroke-linecap="round"/>
</svg>
