<svg width="101" height="107" viewBox="0 0 101 107" fill="none" xmlns="http://www.w3.org/2000/svg">
<g clip-path="url(#clip0_1293_294)">
<path d="M1.50925 77.5198C0.979253 77.1698 0.719253 76.7898 0.719253 76.3798C0.659253 75.9698 0.749253 75.5598 0.979253 75.1498C1.21925 74.6798 1.56925 74.2098 2.03925 73.7398C2.50925 73.3298 3.05925 72.2798 3.70925 70.5798C4.34925 68.9398 5.02925 66.9498 5.72925 64.5998C6.48925 62.1998 7.21925 59.5898 7.92925 56.7798C8.68925 53.9698 9.38925 51.2098 10.0393 48.5198C10.6793 45.8198 11.2393 43.3298 11.7093 41.0498C12.1693 38.7598 12.5293 36.9498 12.7593 35.5998C13.0493 33.9598 13.3793 32.1698 13.7293 30.2398C14.0193 28.5398 14.3393 26.5798 14.6893 24.3498C15.0493 22.0598 15.3693 19.5498 15.6593 16.7898L22.6893 13.6298C23.6893 13.1598 24.3893 13.2798 24.7993 13.9798C25.2093 14.6198 25.2093 15.9998 24.7993 18.1098C24.6293 19.1598 24.2993 20.8898 23.8393 23.2998C23.3693 25.6398 22.8093 28.2498 22.1693 31.1198C21.5793 33.9298 20.9293 36.8298 20.2293 39.8198C19.5893 42.7498 18.9393 45.3598 18.2993 47.6398C17.7093 49.8098 17.0393 52.2998 16.2793 55.1098C14.9293 59.9098 13.0493 66.4798 10.6493 74.7998C11.4693 76.2098 12.9993 76.9098 15.2193 76.9098C17.6793 76.9098 20.5193 75.9698 23.7493 74.0998C27.0293 72.2198 30.1893 69.4098 33.2393 65.6598C36.2893 61.9098 38.9493 57.2198 41.2393 51.5998C43.5793 45.9198 45.0493 39.2998 45.6293 31.7398C45.9193 27.6398 45.7193 24.0298 45.0193 20.9298C44.3093 17.8198 43.2293 15.2198 41.7593 13.1098C40.3593 10.9998 38.5993 9.41977 36.4893 8.35977C34.4393 7.30976 32.1593 6.77977 29.6393 6.77977C23.7193 6.77977 17.5893 9.23977 11.2693 14.1598L10.8293 6.86977C12.3493 5.16977 14.0793 3.87977 16.0093 2.99977C17.9993 2.05977 19.8493 1.35977 21.5493 0.889766C23.5393 0.359766 25.5593 0.0697656 27.6093 0.00976562C31.3593 0.00976562 34.9693 0.739766 38.4193 2.20977C41.9393 3.61977 44.9593 5.77977 47.4793 8.70977C50.0592 11.6398 52.0193 15.3298 53.3693 19.7798C54.7093 24.1698 55.1793 29.3298 54.7693 35.2498C54.5393 38.6498 53.8393 42.1898 52.6593 45.8798C51.5493 49.5098 50.0593 53.0898 48.1793 56.5998C46.3593 60.1198 44.1993 63.4598 41.6793 66.6198C39.1593 69.7798 36.3993 72.5398 33.4193 74.8798C30.4293 77.2798 27.2293 79.1598 23.8393 80.4998C20.4393 81.9098 16.9193 82.6098 13.2893 82.6098C12.1693 82.5498 10.9693 82.3498 9.67925 81.9898C8.56925 81.6998 7.30925 81.1998 5.90925 80.4998C4.49925 79.7998 3.02925 78.7998 1.50925 77.5098V77.5198Z" fill="white"/>
<path d="M78.0295 11.8698C78.0295 12.3998 77.8295 13.0398 77.4195 13.7998C77.0595 14.4998 76.5695 15.1798 75.9195 15.8198C75.3395 16.4098 74.6595 16.9298 73.8995 17.3998C73.1995 17.8098 72.4595 18.0198 71.6995 18.0198C71.0595 18.0198 70.4695 17.6998 69.9395 17.0498C69.4195 16.4098 69.1795 15.5298 69.2395 14.4098C69.2395 13.6498 69.4495 12.8598 69.8595 12.0398C70.3295 11.1598 70.8795 10.3698 71.5295 9.6698C72.2295 8.9698 72.9595 8.4098 73.7195 7.9998C74.5395 7.5298 75.3095 7.2998 76.0095 7.2998C76.9995 7.2998 77.5895 7.7698 77.7695 8.7098C77.9995 9.6498 78.0895 10.6998 78.0295 11.8698ZM47.2695 106.08C45.6895 106.08 44.3095 105.64 43.1395 104.76C41.9695 103.88 41.0295 102.77 40.3295 101.42C39.5595 100.07 39.0095 98.6098 38.6595 97.0298C38.2995 95.4498 38.1595 93.9498 38.2195 92.5498C38.2695 91.3198 38.7395 89.7398 39.6195 87.7998C40.4395 85.8698 41.6095 83.7898 43.1395 81.5598C44.6595 79.3898 46.5095 77.1698 48.6695 74.8798C50.8395 72.6498 53.2495 70.6598 55.8795 68.8998C56.2295 67.0798 56.6095 65.2398 57.0195 63.3598C57.3795 61.4298 57.7295 59.5798 58.0795 57.8198C58.4295 55.9998 58.7795 54.2998 59.1295 52.7198C59.5395 51.0798 59.9195 49.6398 60.2795 48.4098C60.6895 46.8298 61.1295 45.1598 61.5895 43.3998C61.9995 41.8798 62.4695 40.2098 62.9995 38.3898C63.5295 36.5098 64.0895 34.6398 64.6695 32.7698C65.2595 32.4798 65.8095 32.2698 66.3395 32.1498C66.8695 32.0298 67.3395 31.9398 67.7495 31.8898C68.2195 31.8298 68.6595 31.8298 69.0695 31.8898C69.4795 31.9498 69.8895 32.0698 70.2995 32.2398C71.0595 32.5298 71.7295 33.0598 72.3195 33.8198C71.3195 36.9798 70.4695 39.6798 69.7695 41.9098C69.1195 44.1398 68.5695 45.9798 68.0995 47.4498C67.5695 49.1498 67.1595 50.5798 66.8695 51.7598C66.3395 53.3998 65.8695 55.2798 65.4595 57.3898C65.0495 59.4398 64.5795 61.6698 64.0595 64.0698C66.5195 62.5498 68.9795 60.7598 71.4395 58.7098C73.9595 56.6598 76.2395 54.6698 78.2895 52.7298C80.3995 50.7398 82.1595 49.0098 83.5695 47.5398C85.0295 46.0198 85.9395 45.0498 86.2895 44.6398C86.6995 44.1698 87.1095 43.9398 87.5195 43.9398C87.9295 43.8798 88.2495 43.9998 88.4895 44.2898C88.7795 44.5798 88.8995 45.0198 88.8395 45.6098C88.8395 46.1398 88.5795 46.7498 88.0495 47.4598C87.2295 48.6298 85.9995 50.1298 84.3595 51.9398C82.7195 53.6998 80.8395 55.5698 78.7295 57.5698C76.6195 59.4998 74.3395 61.4698 71.8795 63.4598C69.4795 65.3898 67.0695 67.0598 64.6695 68.4698C64.1395 68.7598 63.5595 69.1398 62.9095 69.6098C62.0895 73.0698 61.2995 76.4698 60.5395 79.8098C59.7795 83.1498 58.9295 86.2598 57.9895 89.1298C57.1095 91.9398 56.3195 94.3998 55.6195 96.5098C54.9195 98.6798 54.1795 100.47 53.4195 101.87C52.6595 103.28 51.8095 104.33 50.8695 105.03C49.8795 105.73 48.6695 106.09 47.2695 106.09V106.08ZM44.0995 95.0098C43.9895 97.0598 44.1295 98.5798 44.5395 99.5798C44.9495 100.63 45.5095 101.16 46.2095 101.16C46.6795 101.16 47.2095 100.66 47.7995 99.6698C48.3195 98.6698 48.8495 97.4098 49.3795 95.8898C49.8495 94.3698 50.3395 92.6998 50.8695 90.8798C51.3395 89.1198 51.7795 87.4498 52.1895 85.8698C52.5395 84.2898 52.8395 82.9398 53.0695 81.8298C53.2995 80.7198 53.4495 80.0698 53.5095 79.8998C53.6295 79.4298 53.7395 78.9298 53.8595 78.4098C53.9795 77.8798 54.0895 77.2998 54.2095 76.6498C52.8595 78.0598 51.5995 79.4898 50.4295 80.9598C49.1995 82.4798 48.1495 84.0398 47.2695 85.6198C46.3295 87.1998 45.5995 88.7798 45.0695 90.3698C44.4895 91.9498 44.1595 93.4998 44.0995 95.0298V95.0098Z" fill="white"/>
<path d="M91.0895 67.5902C88.8695 67.5902 87.0495 67.2402 85.6395 66.5402C84.2395 65.8402 83.1195 64.9902 82.2995 63.9902C81.5395 62.9402 80.9895 61.8202 80.6295 60.6502C80.3395 59.4202 80.1895 58.3102 80.1895 57.3102C80.1895 55.5502 80.3395 53.7102 80.6295 51.7702C80.9295 49.7802 81.2795 47.9602 81.6895 46.3202C82.0995 44.6202 82.4495 43.1902 82.7395 42.0102C83.0895 40.8402 83.3295 40.1102 83.4495 39.8102C83.9695 38.1102 84.6495 36.6502 85.4695 35.4202C86.3495 34.1302 87.5495 33.2502 89.0695 32.7802C89.6595 32.6602 90.2695 32.5502 90.9195 32.4302C91.4395 32.3702 91.9695 32.3402 92.4995 32.3402C93.0895 32.3402 93.6095 32.4302 94.0795 32.6002C92.4995 36.6402 91.2395 40.0102 90.2995 42.7102C89.4195 45.4102 88.7495 47.6002 88.2795 49.3002C87.7495 51.2302 87.4295 52.7902 87.3095 53.9602C87.0195 56.6002 87.2495 58.5902 88.0195 59.9402C88.7795 61.2902 90.3295 61.9602 92.6695 61.9602C94.1995 61.9602 95.6595 61.4002 97.0695 60.2902C98.4795 59.1202 99.7595 57.6202 100.939 55.8102C100.759 54.8702 100.669 53.9102 100.669 52.9102C100.669 51.0302 100.819 49.2202 101.109 47.4602C101.459 45.6402 101.839 43.9702 102.249 42.4502C102.719 40.8702 103.189 39.4602 103.659 38.2302C104.189 37.0002 104.629 36.0302 104.979 35.3302C105.619 33.9202 106.209 33.0702 106.739 32.7802C107.259 32.4302 108.109 32.2202 109.289 32.1602C109.749 32.1002 110.139 32.1002 110.429 32.1602C110.779 32.1602 111.069 32.1902 111.309 32.2502C112.009 32.4302 112.359 32.7802 112.359 33.3002C112.359 34.2402 112.299 35.6402 112.189 37.5202C112.069 39.4002 111.719 41.3302 111.129 43.3202C110.719 44.9602 110.309 46.3702 109.899 47.5402C109.549 48.6502 109.199 49.6202 108.849 50.4402C108.499 51.2002 108.139 51.8502 107.789 52.3702C107.439 52.8402 107.119 53.2802 106.829 53.6902C106.939 55.4502 107.089 56.8502 107.259 57.9102C107.439 58.9602 107.649 59.7902 107.879 60.3702C108.169 60.9002 108.499 61.2802 108.849 61.5102C109.259 61.6902 109.699 61.7702 110.169 61.7702C110.989 61.7702 111.949 61.3902 113.069 60.6302C114.179 59.8102 115.319 58.8102 116.489 57.6402C117.719 56.4102 118.919 55.0902 120.099 53.6802C121.329 52.2202 122.439 50.8402 123.439 49.5502C124.429 48.2602 125.279 47.1502 125.989 46.2102C126.689 45.2102 127.129 44.6002 127.299 44.3602C127.709 43.8302 128.089 43.5102 128.449 43.3902C128.859 43.2702 129.179 43.3302 129.409 43.5702C129.649 43.7502 129.759 44.0702 129.759 44.5402C129.819 44.9502 129.709 45.4202 129.409 45.9502C128.239 48.1802 126.779 50.5502 125.019 53.0702C123.319 55.5302 121.469 57.8202 119.479 59.9302C117.549 62.0402 115.589 63.8002 113.589 65.2002C111.599 66.6102 109.729 67.3102 107.969 67.3102C106.389 67.3102 105.129 66.7802 104.189 65.7302C103.309 64.6202 102.549 63.0302 101.899 60.9802C100.559 63.0902 98.9695 64.7302 97.1595 65.9002C95.3395 67.0102 93.3195 67.5702 91.0895 67.5702V67.5902Z" fill="white"/>
</g>
<defs>
<clipPath id="clip0_1293_294">
<rect width="222.3" height="106.08" fill="white" transform="translate(0.699219)"/>
</clipPath>
</defs>
</svg>
