<svg width="109" height="89" viewBox="0 0 109 89" fill="none" xmlns="http://www.w3.org/2000/svg">
<path d="M-143.09 9.82129H-123.666C-117.689 9.82129 -112.548 10.3779 -108.241 11.4912C-103.935 12.6045 -100.346 14.3916 -97.4746 16.8525C-94.1934 19.665 -91.7324 22.8877 -90.0918 26.5205C-88.4219 30.1533 -87.5869 34.123 -87.5869 38.4297C-87.5869 42.5312 -88.334 46.3838 -89.8281 49.9873C-91.293 53.5908 -93.4609 56.7402 -96.332 59.4355C-99.1738 62.1016 -102.704 64.2109 -106.923 65.7637C-111.112 67.3164 -115.917 68.0928 -121.337 68.0928H-143.09V9.82129ZM-133.29 63.8301H-122.875C-119.594 63.8301 -116.503 63.2881 -113.603 62.2041C-110.702 61.1201 -108.183 59.5088 -106.044 57.3701C-103.876 55.2314 -102.177 52.6094 -100.946 49.5039C-99.6865 46.3691 -99.0566 42.751 -99.0566 38.6494C-99.0566 35.0459 -99.6426 31.75 -100.814 28.7617C-101.986 25.7441 -103.627 23.1514 -105.736 20.9834C-107.846 18.8154 -110.365 17.1309 -113.295 15.9297C-116.195 14.7285 -119.374 14.1279 -122.831 14.1279H-133.29V63.8301Z" fill="#434343"/>
<path d="M-89.9717 79.6943C-89.5322 80.4854 -89.0195 81.2324 -88.4336 81.9355C-87.877 82.6387 -87.2324 83.2539 -86.5 83.7812C-85.7676 84.3086 -84.9619 84.7188 -84.083 85.0117C-83.1748 85.334 -82.1787 85.4951 -81.0947 85.4951C-80.3916 85.4951 -79.7617 85.3633 -79.2051 85.0996C-78.6191 84.8652 -78.1357 84.4551 -77.7549 83.8691C-77.3447 83.2832 -77.0371 82.5068 -76.832 81.54C-76.5977 80.5732 -76.4805 79.3574 -76.4805 77.8926V24.8066L-70.1523 22.2578H-67.6035V68.0928C-67.6035 72.5752 -68.0137 76.1787 -68.834 78.9033C-69.6543 81.6279 -70.7969 83.7227 -72.2617 85.1875C-73.6973 86.6523 -75.4111 87.6191 -77.4033 88.0879C-79.3955 88.5859 -81.5781 88.835 -83.9512 88.835C-86.1484 88.835 -88.2725 88.3662 -90.3232 87.4287C-92.4033 86.5205 -94.1758 85.3193 -95.6406 83.8252L-89.9717 79.6943ZM-77.1396 5.86621C-77.1396 5.16309 -77.0078 4.50391 -76.7441 3.88867C-76.4805 3.27344 -76.1143 2.73145 -75.6455 2.2627C-75.1768 1.79395 -74.6348 1.42773 -74.0195 1.16406C-73.4043 0.900391 -72.7451 0.768555 -72.042 0.768555C-71.3389 0.768555 -70.6797 0.900391 -70.0645 1.16406C-69.4492 1.42773 -68.9072 1.79395 -68.4385 2.2627C-67.9697 2.73145 -67.6035 3.27344 -67.3398 3.88867C-67.0762 4.50391 -66.9443 5.16309 -66.9443 5.86621C-66.9443 6.56934 -67.0762 7.22852 -67.3398 7.84375C-67.6035 8.45898 -67.9697 9.00098 -68.4385 9.46973C-68.9072 9.93848 -69.4492 10.3047 -70.0645 10.5684C-70.6797 10.832 -71.3389 10.9639 -72.042 10.9639C-72.7451 10.9639 -73.4043 10.832 -74.0195 10.5684C-74.6348 10.3047 -75.1768 9.93848 -75.6455 9.46973C-76.1143 9.00098 -76.4805 8.45898 -76.7441 7.84375C-77.0078 7.22852 -77.1396 6.56934 -77.1396 5.86621Z" fill="#434343"/>
<path d="M-45.8184 23.0928V55.1289C-45.8184 56.2422 -45.5693 57.2969 -45.0713 58.293C-44.5439 59.2891 -43.8262 60.1533 -42.918 60.8857C-42.0098 61.6182 -40.9697 62.2041 -39.7979 62.6436C-38.5967 63.0537 -37.3076 63.2588 -35.9307 63.2588C-35.0518 63.2588 -34.1143 63.0684 -33.1182 62.6875C-32.0928 62.3066 -31.0967 61.7939 -30.1299 61.1494C-29.1631 60.4756 -28.2695 59.6992 -27.4492 58.8203C-26.5996 57.9121 -25.8818 56.96 -25.2959 55.9639V23.0928H-16.4189V68.0928H-25.2959V59.6553C-26.0869 60.9443 -27.083 62.1602 -28.2842 63.3027C-29.4561 64.4453 -30.7305 65.4414 -32.1074 66.291C-33.4844 67.1406 -34.9053 67.8145 -36.3701 68.3125C-37.835 68.8105 -39.2266 69.0596 -40.5449 69.0596C-42.5078 69.0596 -44.3535 68.6934 -46.082 67.9609C-47.8105 67.2285 -49.3193 66.2324 -50.6084 64.9727C-51.8975 63.7129 -52.9229 62.2334 -53.6846 60.5342C-54.417 58.835 -54.7832 57.0332 -54.7832 55.1289V23.0928H-45.8184Z" fill="#434343"/>
<path d="M-2.85156 24.8066L3.43262 22.2578H6.02539V68.0928H-2.85156V24.8066ZM-3.55469 5.86621C-3.55469 5.16309 -3.42285 4.50391 -3.15918 3.88867C-2.89551 3.27344 -2.5293 2.73145 -2.06055 2.2627C-1.5918 1.79395 -1.0498 1.42773 -0.43457 1.16406C0.180664 0.900391 0.839844 0.768555 1.54297 0.768555C2.24609 0.768555 2.90527 0.900391 3.52051 1.16406C4.13574 1.42773 4.67773 1.79395 5.14648 2.2627C5.61523 2.73145 5.98145 3.27344 6.24512 3.88867C6.50879 4.50391 6.64062 5.16309 6.64062 5.86621C6.64062 6.56934 6.50879 7.22852 6.24512 7.84375C5.98145 8.45898 5.61523 9.00098 5.14648 9.46973C4.67773 9.93848 4.13574 10.3047 3.52051 10.5684C2.90527 10.832 2.24609 10.9639 1.54297 10.9639C0.839844 10.9639 0.180664 10.832 -0.43457 10.5684C-1.0498 10.3047 -1.5918 9.93848 -2.06055 9.46973C-2.5293 9.00098 -2.89551 8.45898 -3.15918 7.84375C-3.42285 7.22852 -3.55469 6.56934 -3.55469 5.86621Z" fill="#434343"/>
<path d="M48.9922 35.749C48.6699 34.5771 48.2305 33.3906 47.6738 32.1895C47.1172 30.9883 46.3994 29.9043 45.5205 28.9375C44.6709 27.9414 43.6602 27.1357 42.4883 26.5205C41.3164 25.9053 39.9395 25.5977 38.3574 25.5977C36.3359 25.5977 34.5195 26.0078 32.9082 26.8281C31.2969 27.6484 29.9346 28.7617 28.8213 30.168C27.708 31.5742 26.8584 33.2148 26.2725 35.0898C25.6865 36.9648 25.3936 38.957 25.3936 41.0664C25.3936 43.9375 25.7598 46.6621 26.4922 49.2402C27.2539 51.7891 28.3086 54.0303 29.6562 55.9639C31.0332 57.8975 32.6738 59.4355 34.5781 60.5781C36.5117 61.6914 38.665 62.248 41.0381 62.248C43.1182 62.248 44.9199 61.9258 46.4434 61.2812C47.9961 60.6074 49.3291 59.7139 50.4424 58.6006C51.585 57.4873 52.5664 56.1982 53.3867 54.7334C54.207 53.2393 54.9395 51.6719 55.584 50.0312L58.2646 51.1299C57.5029 53.9424 56.4775 56.4619 55.1885 58.6885C53.8994 60.915 52.376 62.8047 50.6182 64.3574C48.8896 65.8809 46.9268 67.0527 44.7295 67.873C42.5615 68.6641 40.2031 69.0596 37.6543 69.0596C34.6953 69.0596 31.9268 68.4883 29.3486 67.3457C26.7705 66.1738 24.5293 64.5771 22.625 62.5557C20.7207 60.5342 19.2119 58.1758 18.0986 55.4805C16.9854 52.7852 16.4287 49.8994 16.4287 46.8232C16.4287 44.5674 16.707 42.3994 17.2637 40.3193C17.8203 38.21 18.5967 36.2471 19.5928 34.4307C20.6182 32.6143 21.834 30.959 23.2402 29.4648C24.6758 27.9707 26.2578 26.6963 27.9863 25.6416C29.7148 24.5576 31.5605 23.7227 33.5234 23.1367C35.5156 22.5508 37.5811 22.2578 39.7197 22.2578C41.5068 22.2578 43.2207 22.4629 44.8613 22.873C46.502 23.2832 48.0107 23.8691 49.3877 24.6309C50.7646 25.3633 51.9805 26.2861 53.0352 27.3994C54.0898 28.4834 54.9102 29.6992 55.4961 31.0469L48.9922 35.749Z" fill="#434343"/>
<path d="M86.9932 69.0596C83.9463 69.0596 81.0752 68.4883 78.3799 67.3457C75.7139 66.2031 73.3848 64.6504 71.3926 62.6875C69.4004 60.7246 67.8184 58.4248 66.6465 55.7881C65.5039 53.1221 64.9326 50.2949 64.9326 47.3066C64.9326 43.7031 65.46 40.3779 66.5146 37.3311C67.5693 34.2549 69.0635 31.6035 70.9971 29.377C72.9307 27.1504 75.2451 25.4072 77.9404 24.1475C80.665 22.8877 83.6973 22.2578 87.0371 22.2578C89.9668 22.2578 92.6621 22.7852 95.123 23.8398C97.584 24.8652 99.6934 26.2568 101.451 28.0146C103.238 29.7432 104.615 31.75 105.582 34.0352C106.578 36.3203 107.076 38.708 107.076 41.1982H73.5459C73.5459 44.2158 73.9268 47.0137 74.6885 49.5918C75.4795 52.1699 76.5781 54.3965 77.9844 56.2715C79.3906 58.1465 81.0605 59.6113 82.9941 60.666C84.9277 61.7207 87.0518 62.248 89.3662 62.248C91.2998 62.248 93.1602 61.9404 94.9473 61.3252C96.7344 60.6807 98.3457 59.8457 99.7812 58.8203C101.246 57.7949 102.491 56.623 103.517 55.3047C104.542 53.9863 105.26 52.624 105.67 51.2178L108.263 52.3604C107.618 54.6748 106.578 56.8428 105.143 58.8643C103.707 60.8857 102.022 62.6582 100.089 64.1816C98.1846 65.6758 96.1045 66.8623 93.8486 67.7412C91.5928 68.6201 89.3076 69.0596 86.9932 69.0596ZM95.8701 37.5947C95.8701 35.8955 95.5625 34.3135 94.9473 32.8486C94.3613 31.3838 93.541 30.124 92.4863 29.0693C91.4316 27.9854 90.2012 27.1357 88.7949 26.5205C87.3887 25.9053 85.8799 25.5977 84.2686 25.5977C82.9209 25.5977 81.6318 25.9053 80.4014 26.5205C79.1709 27.1064 78.0723 27.9414 77.1055 29.0254C76.1387 30.0801 75.333 31.3398 74.6885 32.8047C74.0732 34.2695 73.707 35.8516 73.5898 37.5508L95.8701 37.5947Z" fill="#434343"/>
</svg>
