<svg width="215" height="63" viewBox="0 0 215 63" fill="none" xmlns="http://www.w3.org/2000/svg">
<path d="M0.464844 62.0922V-0.0078125H9.55484V25.5522H38.7148V-0.0078125H47.8048V62.0922H38.7148V33.8322H9.55484V62.0922H0.464844Z" fill="white"/>
<path d="M61.3982 48.2322V15.1122H70.1282V49.1322C70.1282 52.6722 71.8982 54.4422 75.4382 54.4422H91.9082V15.1122H100.638V62.0922H75.1682C65.9882 62.0922 61.3982 57.4722 61.3982 48.2322Z" fill="white"/>
<path d="M113.308 62.0922V20.6922C115.408 16.9722 119.398 15.1122 125.278 15.1122H134.548L138.688 18.1722V22.7622H126.988C124.648 22.7622 122.998 23.3622 122.038 24.5622V62.0922H113.308Z" fill="white"/>
<path d="M146.674 62.0922V20.6922C148.774 16.9722 152.764 15.1122 158.644 15.1122H167.914L172.054 18.1722V22.7622H160.354C158.014 22.7622 156.364 23.3622 155.404 24.5622V62.0922H146.674Z" fill="white"/>
<path d="M190.86 62.0922C181.62 62.0922 177 57.5022 177 48.3222C177 39.1422 181.62 34.5522 190.86 34.5522H206.07V27.9822C206.07 24.5022 204.33 22.7622 200.85 22.7622H181.59V18.1722L185.73 15.1122H201.03C210.21 15.1122 214.8 19.7022 214.8 28.8822V62.0922H190.86ZM185.73 49.1322C185.73 52.6722 187.5 54.4422 191.04 54.4422H206.07V41.3922H191.04C187.5 41.3922 185.73 43.1622 185.73 46.7022V49.1322Z" fill="white"/>
</svg>
