<svg width="102" height="97" viewBox="0 0 102 97" fill="none" xmlns="http://www.w3.org/2000/svg">
<path d="M96.68 56.3405C95.4902 55.122 94.0774 54.1554 92.5225 53.496C90.9676 52.8365 89.301 52.4971 87.6179 52.4971C85.9348 52.4971 84.2682 52.8365 82.7133 53.496C81.1584 54.1554 79.7457 55.122 78.5558 56.3405L76.8018 58.1359C76.4094 58.5374 75.7635 58.5374 75.3712 58.1359L73.6171 56.3405C71.2137 53.8804 67.9539 52.4983 64.555 52.4983C61.1561 52.4983 57.8963 53.8804 55.4929 56.3405C53.0895 58.8005 51.7393 62.1371 51.7393 65.6161C51.7393 69.0952 53.0895 72.4317 55.4929 74.8918L57.9623 77.4194L75.3712 95.2386C75.7635 95.6401 76.4094 95.6401 76.8018 95.2386L94.2107 77.4194L96.68 74.8918C97.8704 73.6739 98.8147 72.2279 99.459 70.6363C100.103 69.0448 100.435 67.3389 100.435 65.6161C100.435 63.8934 100.103 62.1875 99.459 60.5959C98.8147 59.0044 97.8704 57.5583 96.68 56.3405Z" fill="white" fill-opacity="0.3" stroke="white" stroke-width="1.5" stroke-linecap="round" stroke-linejoin="round"/>
<path d="M49 96H10C5.02944 96 1 91.9706 1 87V10C1 5.02944 5.02944 1 10 1H87C91.9706 1 96 5.02944 96 10V42" stroke="white" stroke-width="1.5"/>
</svg>
