<svg width="276" height="86" viewBox="0 0 276 86" fill="none" xmlns="http://www.w3.org/2000/svg">
<path d="M0.696094 58.5121C0.576094 56.3521 0.486094 54.1021 0.426094 51.7621C0.426094 49.4221 0.396094 46.9021 0.336094 44.2021C0.276094 41.5021 0.246094 38.5921 0.246094 35.4721C0.246094 32.2921 0.246094 28.7521 0.246094 24.8521C0.246094 20.5921 0.276094 16.9621 0.336094 13.9621C0.396094 10.9021 0.576094 8.41211 0.876094 6.49211C1.17609 4.57211 1.62609 3.16211 2.22609 2.26211C2.88609 1.36211 3.75609 0.912109 4.83609 0.912109C5.37609 0.912109 5.88609 0.972109 6.36609 1.09211C6.84609 1.21211 7.2661 1.48211 7.62609 1.90211C7.98609 2.26211 8.28609 2.83211 8.52609 3.61211C8.82609 4.33211 9.00609 5.29211 9.06609 6.49211C9.18609 8.65211 9.27609 10.5721 9.33609 12.2521C9.39609 13.9321 9.45609 15.6121 9.51609 17.2921C9.57609 18.9121 9.60609 20.6221 9.60609 22.4221C9.60609 24.1621 9.60609 26.1421 9.60609 28.3621C9.60609 31.0621 9.60609 33.6421 9.60609 36.1021C9.60609 38.5621 9.57609 40.9921 9.51609 43.3921C9.45609 45.7921 9.39609 48.2221 9.33609 50.6821C9.27609 53.1421 9.18609 55.7221 9.06609 58.4221C9.00609 59.8621 8.85609 60.9721 8.61609 61.7521C8.37609 62.5321 8.07609 63.1321 7.71609 63.5521C7.35609 63.9721 6.93609 64.2121 6.45609 64.2721C5.97609 64.3921 5.43609 64.4521 4.83609 64.4521C3.75609 64.4521 2.82609 64.0921 2.04609 63.3721C1.26609 62.5921 0.816094 60.9721 0.696094 58.5121Z" fill="#434343"/>
<path d="M41.5588 25.7521C39.3387 25.7521 37.3288 26.1121 35.5288 26.8321C33.7887 27.5521 31.8088 28.6321 29.5888 30.0721C29.5888 31.3321 29.5888 33.1921 29.5888 35.6521C29.5888 38.0521 29.5588 40.6921 29.4988 43.5721C29.4388 46.3921 29.3787 49.1821 29.3188 51.9421C29.2588 54.7021 29.1388 57.0121 28.9587 58.8721C28.8388 60.0721 28.6888 61.0321 28.5088 61.7521C28.3888 62.4121 28.1787 62.9221 27.8787 63.2821C27.6388 63.6421 27.2787 63.8821 26.7987 64.0021C26.3787 64.0621 25.8088 64.0921 25.0888 64.0921C24.3688 64.0921 23.7687 64.0621 23.2887 64.0021C22.8687 63.8821 22.5087 63.6721 22.2087 63.3721C21.9088 63.0121 21.6688 62.5021 21.4888 61.8421C21.3088 61.1821 21.1587 60.2821 21.0387 59.1421C20.9187 58.0621 20.7987 56.6221 20.6788 54.8221C20.6188 53.0221 20.5588 51.0721 20.4988 48.9721C20.4388 46.8121 20.3787 44.6521 20.3188 42.4921C20.3188 40.2721 20.3188 38.2321 20.3188 36.3721C20.3188 33.3121 20.3488 30.8221 20.4088 28.9021C20.5287 26.9821 20.7087 25.2721 20.9487 23.7721C21.3088 21.2521 21.7887 19.6621 22.3888 19.0021C22.9888 18.3421 23.7987 18.0121 24.8188 18.0121C26.3188 18.0121 27.4288 18.4321 28.1488 19.2721C28.9288 20.1121 29.4088 21.4921 29.5888 23.4121C31.8088 21.4921 34.1787 19.9621 36.6987 18.8221C39.2788 17.6821 41.9188 17.1121 44.6188 17.1121C47.1988 17.1121 49.5388 17.7121 51.6388 18.9121C53.7988 20.1121 55.5688 22.0621 56.9487 24.7621C57.7887 26.3821 58.4188 28.1821 58.8388 30.1621C59.2588 32.0821 59.5588 34.1221 59.7388 36.2821C59.7987 37.2421 59.8588 38.2021 59.9188 39.1621C59.9788 40.0621 60.0088 41.0521 60.0088 42.1321C60.0688 43.1521 60.0988 44.3221 60.0988 45.6421C60.0988 46.9621 60.0988 48.5221 60.0988 50.3221C60.0988 52.2421 60.0688 54.0421 60.0088 55.7221C59.9488 57.4021 59.7688 58.8721 59.4688 60.1321C59.2288 61.3321 58.7788 62.2921 58.1188 63.0121C57.4588 63.6721 56.5588 64.0021 55.4188 64.0021C52.6588 64.0021 51.2188 62.6821 51.0988 60.0421C51.0988 59.8621 51.0988 59.1121 51.0988 57.7921C51.0988 56.4121 51.0687 54.8221 51.0088 53.0221C51.0088 51.2221 50.9788 49.3921 50.9188 47.5321C50.9188 45.6721 50.8887 44.1421 50.8288 42.9421C50.7688 41.9821 50.6788 40.9621 50.5588 39.8821C50.4988 38.7421 50.3788 37.6021 50.1988 36.4621C50.0788 35.3221 49.8988 34.2421 49.6588 33.2221C49.4188 32.1421 49.1188 31.1821 48.7588 30.3421C47.9188 28.3621 46.8688 27.1021 45.6088 26.5621C44.3488 26.0221 42.9988 25.7521 41.5588 25.7521Z" fill="#434343"/>
<path d="M85.3464 17.1121C86.6064 17.1121 88.1964 17.2321 90.1164 17.4721C92.0364 17.6521 93.8664 18.0421 95.6064 18.6421C97.3464 19.1821 98.8464 19.9621 100.106 20.9821C101.366 22.0021 101.996 23.2921 101.996 24.8521C101.996 25.7521 101.726 26.5321 101.186 27.1921C100.706 27.8521 99.9264 28.1821 98.8464 28.1821C98.0664 28.1821 97.1664 28.0621 96.1464 27.8221C95.1864 27.5821 94.1064 27.3121 92.9064 27.0121C91.7664 26.6521 90.5064 26.3521 89.1264 26.1121C87.8064 25.8721 86.3964 25.7521 84.8964 25.7521C82.3764 25.7521 80.3064 26.1421 78.6864 26.9221C77.1264 27.7021 76.3464 28.9321 76.3464 30.6121C76.3464 31.5721 76.6164 32.3821 77.1564 33.0421C77.7564 33.7021 78.5364 34.3021 79.4964 34.8421C80.5164 35.3221 81.6864 35.7421 83.0064 36.1021C84.3864 36.4621 85.8264 36.8221 87.3264 37.1821C89.1864 37.6621 91.0164 38.2021 92.8164 38.8021C94.6764 39.4021 96.3264 40.2421 97.7664 41.3221C99.2064 42.3421 100.376 43.6621 101.276 45.2821C102.176 46.8421 102.626 48.7921 102.626 51.1321C102.626 55.5721 100.946 59.1121 97.5864 61.7521C94.2264 64.3321 89.2764 65.6221 82.7364 65.6221C81.2964 65.6221 79.5864 65.5021 77.6064 65.2621C75.6264 65.0821 73.7664 64.6921 72.0264 64.0921C70.2864 63.5521 68.7864 62.7721 67.5264 61.7521C66.3264 60.6721 65.7264 59.2621 65.7264 57.5221C65.7264 56.3221 65.9964 55.4221 66.5364 54.8221C67.1364 54.1621 67.8564 53.8321 68.6964 53.8321C69.3564 53.8321 70.0464 54.0421 70.7664 54.4621C71.4864 54.8821 72.3564 55.3321 73.3764 55.8121C74.3964 56.2921 75.6264 56.7421 77.0664 57.1621C78.5064 57.5821 80.2764 57.7921 82.3764 57.7921C83.1564 57.7921 84.1764 57.7621 85.4364 57.7021C86.6964 57.5821 87.9264 57.3121 89.1264 56.8921C90.3864 56.4721 91.4364 55.9021 92.2764 55.1821C93.1764 54.4021 93.6264 53.3221 93.6264 51.9421C93.6264 50.8621 93.3264 49.9621 92.7264 49.2421C92.1264 48.4621 91.3164 47.8021 90.2964 47.2621C89.2764 46.7221 88.0764 46.2721 86.6964 45.9121C85.3764 45.4921 83.9664 45.0721 82.4664 44.6521C80.7264 44.1721 78.9564 43.6321 77.1564 43.0321C75.4164 42.4321 73.8264 41.6521 72.3864 40.6921C70.9464 39.7321 69.7764 38.5321 68.8764 37.0921C67.9764 35.5921 67.5264 33.7621 67.5264 31.6021C67.5264 29.5621 67.9464 27.6721 68.7864 25.9321C69.6264 24.1321 70.8264 22.5721 72.3864 21.2521C73.9464 19.9321 75.8064 18.9121 77.9664 18.1921C80.1864 17.4721 82.6464 17.1121 85.3464 17.1121Z" fill="#434343"/>
<path d="M117.643 58.2421C117.463 54.4621 117.343 49.9921 117.283 44.8321C117.283 39.6121 117.283 33.7021 117.283 27.1021C116.683 27.1621 115.963 27.1921 115.123 27.1921C114.343 27.1921 113.713 27.1921 113.233 27.1921C112.153 27.1921 111.163 27.1621 110.263 27.1021C109.423 27.0421 108.673 26.8621 108.013 26.5621C107.353 26.2621 106.843 25.8421 106.483 25.3021C106.123 24.7021 105.943 23.8921 105.943 22.8721C105.943 19.9921 108.103 18.5521 112.423 18.5521C113.083 18.5521 113.893 18.5521 114.853 18.5521C115.813 18.5521 116.623 18.6121 117.283 18.7321C117.283 15.5521 117.343 13.0021 117.463 11.0821C117.583 9.16211 117.793 7.69211 118.093 6.67211C118.453 5.59211 118.903 4.90211 119.443 4.60211C120.043 4.24211 120.793 4.06211 121.693 4.06211C122.653 4.06211 123.433 4.39211 124.033 5.05211C124.633 5.71211 125.083 6.55211 125.383 7.57211C125.743 8.59211 125.953 9.73211 126.013 10.9921C126.133 12.2521 126.193 13.4821 126.193 14.6821C126.193 15.5221 126.163 16.3021 126.103 17.0221C126.103 17.6821 126.103 18.2821 126.103 18.8221C126.943 18.5821 127.813 18.4621 128.713 18.4621C129.613 18.4021 130.483 18.3721 131.323 18.3721C133.543 18.3721 135.253 18.7321 136.453 19.4521C137.653 20.1121 138.253 21.2221 138.253 22.7821C138.253 23.7421 138.043 24.5221 137.623 25.1221C137.203 25.6621 136.633 26.0821 135.913 26.3821C135.253 26.6821 134.443 26.8921 133.483 27.0121C132.583 27.0721 131.593 27.1021 130.513 27.1021C129.913 27.1021 129.223 27.1021 128.443 27.1021C127.663 27.1021 126.943 27.0421 126.283 26.9221C126.283 30.1021 126.283 33.0121 126.283 35.6521C126.283 38.2921 126.253 40.8421 126.193 43.3021C126.133 45.7021 126.073 48.1021 126.013 50.5021C125.953 52.9021 125.863 55.4521 125.743 58.1521C125.683 59.5921 125.533 60.7021 125.293 61.4821C125.113 62.2621 124.843 62.8621 124.483 63.2821C124.123 63.7021 123.703 63.9721 123.223 64.0921C122.803 64.1521 122.293 64.1821 121.693 64.1821C120.613 64.1821 119.683 63.8221 118.903 63.1021C118.183 62.3221 117.763 60.7021 117.643 58.2421Z" fill="#434343"/>
<path d="M181.574 64.4521C180.614 64.4521 179.834 64.3021 179.234 64.0021C178.694 63.6421 178.274 63.1921 177.974 62.6521C177.674 62.1121 177.464 61.4821 177.344 60.7621C177.224 59.9821 177.134 59.1721 177.074 58.3321C175.574 60.1921 173.624 61.7521 171.224 63.0121C168.884 64.2721 165.884 64.9021 162.224 64.9021C159.884 64.9021 157.484 64.5721 155.024 63.9121C152.624 63.1921 150.434 61.9921 148.454 60.3121C146.474 58.5721 144.854 56.2621 143.594 53.3821C142.334 50.5021 141.704 46.8721 141.704 42.4921C141.704 39.0721 142.124 35.8621 142.964 32.8621C143.804 29.8621 145.064 27.2521 146.744 25.0321C148.484 22.7521 150.644 20.9521 153.224 19.6321C155.804 18.3121 158.834 17.6521 162.314 17.6521C165.374 17.6521 168.104 18.2221 170.504 19.3621C172.904 20.4421 175.064 22.2421 176.984 24.7621C176.984 24.0421 177.014 23.3221 177.074 22.6021C177.134 21.8221 177.284 21.1321 177.524 20.5321C177.824 19.8721 178.274 19.3621 178.874 19.0021C179.474 18.5821 180.284 18.3721 181.304 18.3721C182.204 18.3721 183.044 18.7321 183.824 19.4521C184.604 20.1721 185.054 21.7321 185.174 24.1321C185.354 27.3121 185.474 30.1621 185.534 32.6821C185.654 35.2021 185.714 37.8121 185.714 40.5121C185.714 43.8121 185.684 46.8421 185.624 49.6021C185.564 52.3621 185.414 55.3021 185.174 58.4221C185.054 59.8021 184.874 60.9121 184.634 61.7521C184.454 62.5321 184.214 63.1321 183.914 63.5521C183.614 63.9121 183.254 64.1521 182.834 64.2721C182.414 64.3921 181.994 64.4521 181.574 64.4521ZM176.714 41.5921C176.714 38.4721 176.234 35.9221 175.274 33.9421C174.374 31.9621 173.204 30.4321 171.764 29.3521C170.384 28.2121 168.884 27.4321 167.264 27.0121C165.644 26.5921 164.144 26.3821 162.764 26.3821C160.604 26.3821 158.744 26.7721 157.184 27.5521C155.684 28.3321 154.454 29.4121 153.494 30.7921C152.534 32.1121 151.814 33.7021 151.334 35.5621C150.914 37.3621 150.704 39.3421 150.704 41.5021C150.704 46.7821 151.844 50.6821 154.124 53.2021C156.464 55.7221 159.614 56.9821 163.574 56.9821C165.914 56.9821 167.894 56.5921 169.514 55.8121C171.194 54.9721 172.544 53.8621 173.564 52.4821C174.644 51.1021 175.424 49.4821 175.904 47.6221C176.444 45.7021 176.714 43.6921 176.714 41.5921Z" fill="#434343"/>
<path d="M212.996 76.4221C215.816 76.4221 218.186 75.8521 220.106 74.7121C222.086 73.6321 223.676 72.0421 224.876 69.9421C226.076 67.9021 226.916 65.4421 227.396 62.5621C227.936 59.6221 228.206 56.3221 228.206 52.6621C227.666 54.5821 226.886 56.2021 225.866 57.5221C224.846 58.8421 223.646 59.9221 222.266 60.7621C220.946 61.5421 219.446 62.1121 217.766 62.4721C216.086 62.8321 214.346 63.0121 212.546 63.0121C209.786 63.0121 207.176 62.6221 204.716 61.8421C202.256 61.0621 200.096 59.8321 198.236 58.1521C196.436 56.4721 194.996 54.3421 193.916 51.7621C192.836 49.1221 192.296 45.9721 192.296 42.3121C192.296 38.7721 192.806 35.5321 193.826 32.5921C194.906 29.5921 196.436 27.0121 198.416 24.8521C200.456 22.6921 202.916 21.0121 205.796 19.8121C208.676 18.6121 211.976 18.0121 215.696 18.0121C217.676 18.0121 219.416 18.1921 220.916 18.5521C222.476 18.9121 223.856 19.3921 225.056 19.9921C226.256 20.5921 227.306 21.3121 228.206 22.1521C229.166 22.9921 230.036 23.8921 230.816 24.8521C233.096 27.7321 234.746 31.1521 235.766 35.1121C236.786 39.0121 237.296 43.7221 237.296 49.2421C237.296 53.3221 236.936 57.4921 236.216 61.7521C235.556 66.0121 234.326 69.8521 232.526 73.2721C230.726 76.7521 228.236 79.5721 225.056 81.7321C221.876 83.9521 217.796 85.0621 212.816 85.0621C211.916 85.0621 210.896 85.0021 209.756 84.8821C208.676 84.8221 207.536 84.7021 206.336 84.5221C205.196 84.3421 204.056 84.0721 202.916 83.7121C201.776 83.4121 200.726 82.9921 199.766 82.4521C198.566 81.7921 197.606 81.1621 196.886 80.5621C196.166 79.9621 195.806 78.9721 195.806 77.5921C195.806 76.4521 196.046 75.4021 196.526 74.4421C197.066 73.5421 197.966 73.0921 199.226 73.0921C199.826 73.0921 200.486 73.2721 201.206 73.6321C201.926 73.9921 202.796 74.3521 203.816 74.7121C204.896 75.1321 206.156 75.5221 207.596 75.8821C209.096 76.2421 210.896 76.4221 212.996 76.4221ZM213.446 54.8221C215.786 54.8221 217.766 54.4021 219.386 53.5621C221.066 52.6621 222.416 51.4921 223.436 50.0521C224.516 48.6121 225.296 46.9921 225.776 45.1921C226.316 43.3921 226.586 41.5921 226.586 39.7921C226.586 38.2921 226.376 36.7921 225.956 35.2921C225.596 33.7321 224.966 32.3221 224.066 31.0621C223.166 29.8021 221.936 28.7821 220.376 28.0021C218.816 27.2221 216.866 26.8321 214.526 26.8321C210.566 26.8321 207.356 28.0321 204.896 30.4321C202.496 32.8321 201.296 36.3721 201.296 41.0521C201.296 45.4321 202.376 48.8221 204.536 51.2221C206.696 53.6221 209.666 54.8221 213.446 54.8221Z" fill="#434343"/>
<path d="M244.902 58.6021C244.662 56.5021 244.512 53.9521 244.452 50.9521C244.392 47.9521 244.362 44.3221 244.362 40.0621C244.362 35.8621 244.362 32.4721 244.362 29.8921C244.422 27.3121 244.602 25.0321 244.902 23.0521C245.202 20.5921 245.652 19.0021 246.252 18.2821C246.912 17.5621 247.752 17.2021 248.772 17.2021C249.492 17.2021 250.122 17.2621 250.662 17.3821C251.262 17.5021 251.772 17.7721 252.192 18.1921C252.672 18.5521 253.032 19.0921 253.272 19.8121C253.512 20.5321 253.632 21.5221 253.632 22.7821C253.632 23.0221 253.662 23.2621 253.722 23.5021C253.722 23.7421 253.722 24.0121 253.722 24.3121C253.782 24.5521 253.812 24.8521 253.812 25.2121C255.432 23.1721 257.262 21.4321 259.302 19.9921C261.402 18.5521 263.772 17.8321 266.412 17.8321C269.952 17.8321 271.722 19.3021 271.722 22.2421C271.722 23.3221 271.482 24.2221 271.002 24.9421C270.582 25.6621 269.952 26.2621 269.112 26.7421C268.332 27.1621 267.402 27.4921 266.322 27.7321C265.302 27.9721 264.162 28.2121 262.902 28.4521C260.982 28.8121 259.182 29.5021 257.502 30.5221C255.822 31.4821 254.682 32.7121 254.082 34.2121C254.082 35.3521 254.082 36.1921 254.082 36.7321C254.142 37.2721 254.172 37.7221 254.172 38.0821C254.232 38.4421 254.262 38.8321 254.262 39.2521C254.262 39.6721 254.262 40.3321 254.262 41.2321C254.262 44.2921 254.202 47.1721 254.082 49.8721C253.962 52.5121 253.842 55.3921 253.722 58.5121C253.662 59.9521 253.482 61.0621 253.182 61.8421C252.942 62.6221 252.612 63.2221 252.192 63.6421C251.832 64.0621 251.412 64.3021 250.932 64.3621C250.452 64.4821 249.972 64.5421 249.492 64.5421C247.812 64.5421 246.672 64.1821 246.072 63.4621C245.532 62.6821 245.142 61.0621 244.902 58.6021Z" fill="#434343"/>
<path d="M313.399 64.4521C312.439 64.4521 311.659 64.3021 311.059 64.0021C310.519 63.6421 310.099 63.1921 309.799 62.6521C309.499 62.1121 309.289 61.4821 309.169 60.7621C309.049 59.9821 308.959 59.1721 308.899 58.3321C307.399 60.1921 305.449 61.7521 303.049 63.0121C300.709 64.2721 297.709 64.9021 294.049 64.9021C291.709 64.9021 289.309 64.5721 286.849 63.9121C284.449 63.1921 282.259 61.9921 280.279 60.3121C278.299 58.5721 276.679 56.2621 275.419 53.3821C274.159 50.5021 273.529 46.8721 273.529 42.4921C273.529 39.0721 273.949 35.8621 274.789 32.8621C275.629 29.8621 276.889 27.2521 278.569 25.0321C280.309 22.7521 282.469 20.9521 285.049 19.6321C287.629 18.3121 290.659 17.6521 294.139 17.6521C297.199 17.6521 299.929 18.2221 302.329 19.3621C304.729 20.4421 306.889 22.2421 308.809 24.7621C308.809 24.0421 308.839 23.3221 308.899 22.6021C308.959 21.8221 309.109 21.1321 309.349 20.5321C309.649 19.8721 310.099 19.3621 310.699 19.0021C311.299 18.5821 312.109 18.3721 313.129 18.3721C314.029 18.3721 314.869 18.7321 315.649 19.4521C316.429 20.1721 316.879 21.7321 316.999 24.1321C317.179 27.3121 317.299 30.1621 317.359 32.6821C317.479 35.2021 317.539 37.8121 317.539 40.5121C317.539 43.8121 317.509 46.8421 317.449 49.6021C317.389 52.3621 317.239 55.3021 316.999 58.4221C316.879 59.8021 316.699 60.9121 316.459 61.7521C316.279 62.5321 316.039 63.1321 315.739 63.5521C315.439 63.9121 315.079 64.1521 314.659 64.2721C314.239 64.3921 313.819 64.4521 313.399 64.4521ZM308.539 41.5921C308.539 38.4721 308.059 35.9221 307.099 33.9421C306.199 31.9621 305.029 30.4321 303.589 29.3521C302.209 28.2121 300.709 27.4321 299.089 27.0121C297.469 26.5921 295.969 26.3821 294.589 26.3821C292.429 26.3821 290.569 26.7721 289.009 27.5521C287.509 28.3321 286.279 29.4121 285.319 30.7921C284.359 32.1121 283.639 33.7021 283.159 35.5621C282.739 37.3621 282.529 39.3421 282.529 41.5021C282.529 46.7821 283.669 50.6821 285.949 53.2021C288.289 55.7221 291.439 56.9821 295.399 56.9821C297.739 56.9821 299.719 56.5921 301.339 55.8121C303.019 54.9721 304.369 53.8621 305.389 52.4821C306.469 51.1021 307.249 49.4821 307.729 47.6221C308.269 45.7021 308.539 43.6921 308.539 41.5921Z" fill="#434343"/>
<path d="M387.75 61.3921C387.39 60.3721 387.15 59.2321 387.03 57.9721C386.97 56.7121 386.94 55.1521 386.94 53.2921C386.94 51.9721 386.94 50.9521 386.94 50.2321C387 49.4521 387.03 48.7921 387.03 48.2521C387.03 47.6521 387.03 47.0821 387.03 46.5421C387.09 45.9421 387.12 45.1321 387.12 44.1121C387.12 42.0121 387.06 39.9121 386.94 37.8121C386.88 35.6521 386.58 33.7321 386.04 32.0521C385.5 30.3121 384.66 28.9021 383.52 27.8221C382.38 26.7421 380.73 26.2021 378.57 26.2021C374.91 26.2021 372.06 27.9421 370.02 31.4221C367.98 34.9021 366.75 40.4521 366.33 48.0721C366.21 50.4721 366.15 52.6621 366.15 54.6421C366.15 56.6221 366.03 58.3321 365.79 59.7721C365.55 61.1521 365.1 62.2321 364.44 63.0121C363.84 63.7921 362.82 64.1821 361.38 64.1821C360.06 64.1821 359.1 63.8521 358.5 63.1921C357.9 62.4721 357.45 61.4221 357.15 60.0421C356.91 58.6621 356.76 56.9821 356.7 55.0021C356.7 53.0221 356.61 50.7121 356.43 48.0721C356.25 45.1921 355.95 42.4321 355.53 39.7921C355.17 37.1521 354.54 34.8421 353.64 32.8621C352.8 30.8221 351.63 29.2021 350.13 28.0021C348.69 26.8021 346.83 26.2021 344.55 26.2021C342.39 26.2021 340.71 26.7421 339.51 27.8221C338.37 28.8421 337.53 30.2221 336.99 31.9621C336.45 33.6421 336.12 35.5621 336 37.7221C335.94 39.8221 335.91 41.9521 335.91 44.1121C335.91 45.1921 335.91 46.0021 335.91 46.5421C335.97 47.0221 336 47.4721 336 47.8921C336 48.3121 336 48.8521 336 49.5121C336.06 50.1721 336.09 51.1921 336.09 52.5721C336.09 54.5521 336.03 56.2621 335.91 57.7021C335.85 59.1421 335.64 60.3721 335.28 61.3921C334.86 62.5921 334.29 63.3421 333.57 63.6421C332.85 63.8821 332.19 64.0021 331.59 64.0021C329.73 64.0021 328.53 63.3421 327.99 62.0221C327.45 60.7021 327.15 58.7821 327.09 56.2621C327.09 54.8821 327.06 53.3521 327 51.6721C327 49.9321 327 47.8321 327 45.3721C327 44.1721 327 43.1221 327 42.2221C327 41.3221 327 40.4521 327 39.6121C327.06 38.7721 327.09 37.9321 327.09 37.0921C327.15 36.1921 327.21 35.1721 327.27 34.0321C327.45 30.3721 328.11 27.4621 329.25 25.3021C330.39 23.0821 331.74 21.4021 333.3 20.2621C334.86 19.1221 336.54 18.4021 338.34 18.1021C340.14 17.7421 341.79 17.5621 343.29 17.5621C346.53 17.5621 349.26 18.0421 351.48 19.0021C353.7 19.9621 355.5 21.2221 356.88 22.7821C358.32 24.3421 359.37 26.1121 360.03 28.0921C360.75 30.0721 361.23 32.0821 361.47 34.1221C361.71 32.1421 362.19 30.1921 362.91 28.2721C363.69 26.2921 364.8 24.5521 366.24 23.0521C367.74 21.4921 369.66 20.2321 372 19.2721C374.34 18.3121 377.22 17.8321 380.64 17.8321C382.26 17.8321 383.91 18.0121 385.59 18.3721C387.33 18.6721 388.92 19.3921 390.36 20.5321C391.8 21.6721 393 23.3221 393.96 25.4821C394.98 27.5821 395.58 30.4321 395.76 34.0321C395.82 35.1721 395.85 36.1921 395.85 37.0921C395.91 37.9321 395.94 38.7721 395.94 39.6121C396 40.4521 396.03 41.3221 396.03 42.2221C396.03 43.1221 396.03 44.1721 396.03 45.3721C396.03 47.8321 396 49.9321 395.94 51.6721C395.94 53.3521 395.94 54.8821 395.94 56.2621C395.94 57.4021 395.88 58.4521 395.76 59.4121C395.7 60.3721 395.52 61.1821 395.22 61.8421C394.92 62.5021 394.47 63.0421 393.87 63.4621C393.33 63.8221 392.52 64.0021 391.44 64.0021C390.42 64.0021 389.64 63.8221 389.1 63.4621C388.56 63.0421 388.11 62.3521 387.75 61.3921Z" fill="#434343"/>
</svg>
