<svg width="155" height="68" viewBox="0 0 155 68" fill="none" xmlns="http://www.w3.org/2000/svg">
<path d="M47.6695 67.0907H38.1295L15.3595 36.4007L8.78945 42.1607V67.0907H0.689453V2.83074H8.78945V34.5107C10.5895 32.4707 12.4195 30.4307 14.2795 28.3907C16.1395 26.3507 17.9995 24.3107 19.8595 22.2707L37.2295 2.83074H46.6795L21.2095 30.8207L47.6695 67.0907Z" fill="white"/>
<path d="M64.2521 18.8507V67.0907H56.3321V18.8507H64.2521ZM60.3821 0.760742C61.5821 0.760742 62.6321 1.18074 63.5321 2.02074C64.4921 2.80074 64.9721 4.06074 64.9721 5.80074C64.9721 7.48074 64.4921 8.74074 63.5321 9.58074C62.6321 10.4207 61.5821 10.8407 60.3821 10.8407C59.0621 10.8407 57.9521 10.4207 57.0521 9.58074C56.1521 8.74074 55.7021 7.48074 55.7021 5.80074C55.7021 4.06074 56.1521 2.80074 57.0521 2.02074C57.9521 1.18074 59.0621 0.760742 60.3821 0.760742Z" fill="white"/>
<path d="M96.6452 61.5107C97.8452 61.5107 99.0752 61.4207 100.335 61.2407C101.595 61.0007 102.615 60.7607 103.395 60.5207V66.5507C102.555 66.9707 101.355 67.3008 99.7952 67.5407C98.2352 67.8408 96.7352 67.9907 95.2952 67.9907C92.7752 67.9907 90.4352 67.5707 88.2752 66.7307C86.1752 65.8307 84.4652 64.3007 83.1452 62.1407C81.8252 59.9807 81.1652 56.9507 81.1652 53.0507V24.9707H74.3252V21.1907L81.2552 18.0407L84.4052 7.78074H89.0852V18.8507H103.035V24.9707H89.0852V52.8707C89.0852 55.8107 89.7752 58.0007 91.1552 59.4407C92.5952 60.8207 94.4252 61.5107 96.6452 61.5107Z" fill="white"/>
<path d="M154.375 18.8507V67.0907H147.895L146.725 60.7007H146.365C145.345 62.3807 144.025 63.7607 142.405 64.8407C140.785 65.9207 139.015 66.7007 137.095 67.1807C135.175 67.7207 133.165 67.9907 131.065 67.9907C127.225 67.9907 123.985 67.3907 121.345 66.1908C118.765 64.9307 116.815 63.0107 115.495 60.4307C114.175 57.8507 113.515 54.5207 113.515 50.4407V18.8507H121.525V49.9007C121.525 53.7407 122.395 56.6207 124.135 58.5407C125.875 60.4607 128.575 61.4207 132.235 61.4207C135.835 61.4207 138.655 60.7607 140.695 59.4407C142.795 58.0607 144.265 56.0807 145.105 53.5007C146.005 50.8607 146.455 47.6807 146.455 43.9607V18.8507H154.375Z" fill="white"/>
</svg>
