<svg width="385" height="68" viewBox="0 0 385 68" fill="none" xmlns="http://www.w3.org/2000/svg">
<g clip-path="url(#clip0_1293_275)">
<path d="M0.644531 67.3402V5.24023H12.1645L31.9645 47.3602L51.7645 5.24023H63.3745V67.3402H54.1945V20.0002L36.1045 58.6102H27.9145L9.73453 20.0002V67.3402H0.644531Z" fill="#434444"/>
<path d="M76.875 11.9004V2.36035H86.235V11.9004H76.875ZM77.235 67.3403V20.3604H85.965V67.3403H77.235Z" fill="#434444"/>
<path d="M98.2744 53.4804V34.1304C98.2744 24.9503 102.864 20.3604 112.044 20.3604H129.414L133.554 23.4204V28.0104H112.314C108.774 28.0104 107.004 29.7504 107.004 33.2304V54.3803C107.004 57.9203 108.774 59.6904 112.314 59.6904H133.554V64.2803L129.414 67.3403H112.044C102.864 67.3403 98.2744 62.7204 98.2744 53.4804Z" fill="#434444"/>
<path d="M143.335 67.3403V25.9404C145.435 22.2204 149.425 20.3604 155.305 20.3604H164.575L168.715 23.4204V28.0104H157.015C154.675 28.0104 153.025 28.6104 152.065 29.8104V67.3403H143.335Z" fill="#434444"/>
<path d="M176.345 53.4804V34.1304C176.345 24.9503 180.935 20.3604 190.115 20.3604H202.715C211.895 20.3604 216.485 24.9503 216.485 34.1304V53.4804C216.485 62.7204 211.895 67.3403 202.715 67.3403H190.115C180.935 67.3403 176.345 62.7204 176.345 53.4804ZM185.075 54.3803C185.075 57.9203 186.845 59.6904 190.385 59.6904H202.535C206.015 59.6904 207.755 57.9203 207.755 54.3803V33.2304C207.755 29.7504 206.015 28.0104 202.535 28.0104H190.385C186.845 28.0104 185.075 29.7504 185.075 33.2304V54.3803Z" fill="#434444"/>
<path d="M226.994 64.2803V59.6904H247.784C251.324 59.6904 253.094 57.8904 253.094 54.2904C253.094 50.6904 251.654 48.4704 248.774 47.9904L238.424 46.2804C230.804 44.9604 226.994 40.7603 226.994 33.6803C226.994 24.8003 231.614 20.3604 240.854 20.3604H255.524L259.664 23.4204V28.0104H241.034C237.434 28.0104 235.634 29.8103 235.634 33.4103C235.634 36.7703 237.134 38.7204 240.134 39.2604L250.574 40.9704C258.074 42.2304 261.824 46.5504 261.824 53.9304C261.824 62.8703 257.174 67.3403 247.874 67.3403H231.134L226.994 64.2803Z" fill="#434444"/>
<path d="M272.255 53.4804V34.1304C272.255 24.9503 276.845 20.3604 286.025 20.3604H298.625C307.805 20.3604 312.395 24.9503 312.395 34.1304V53.4804C312.395 62.7204 307.805 67.3403 298.625 67.3403H286.025C276.845 67.3403 272.255 62.7204 272.255 53.4804ZM280.985 54.3803C280.985 57.9203 282.755 59.6904 286.295 59.6904H298.445C301.925 59.6904 303.665 57.9203 303.665 54.3803V33.2304C303.665 29.7504 301.925 28.0104 298.445 28.0104H286.295C282.755 28.0104 280.985 29.7504 280.985 33.2304V54.3803Z" fill="#434444"/>
<path d="M324.704 67.3402V14.6002C324.704 5.36023 329.294 0.740234 338.474 0.740234H346.844L350.984 3.80023V8.39023H338.744C335.204 8.39023 333.434 10.1602 333.434 13.7002V20.3602H350.084V28.0102H333.434V67.3402H324.704Z" fill="#434444"/>
<path d="M358.414 53.4802V5.24023H367.144V20.3602H383.794V28.0102H367.144V54.3802C367.144 57.9202 368.914 59.6902 372.454 59.6902H384.694V64.2802L380.554 67.3402H372.184C363.004 67.3402 358.414 62.7202 358.414 53.4802Z" fill="#434444"/>
</g>
<defs>
<clipPath id="clip0_1293_275">
<rect width="384.05" height="66.6" fill="white" transform="translate(0.644531 0.740234)"/>
</clipPath>
</defs>
</svg>
