<svg width="221" height="68" viewBox="0 0 221 68" fill="none" xmlns="http://www.w3.org/2000/svg">
<g clip-path="url(#clip0_1293_259)">
<path d="M26.1093 43.3998H9.63934V66.6198H0.819336V1.5498H26.1093C38.8893 1.5498 47.0793 9.9198 47.0793 22.4298C47.0793 34.9398 38.7993 43.3998 26.1093 43.3998ZM24.5793 9.4698H9.63934V35.4798H24.2193C32.9493 35.4798 37.8093 30.3498 37.8093 22.3398C37.8093 14.3298 32.8593 9.4698 24.5793 9.4698Z" fill="white"/>
<path d="M49.7295 44.5695C49.7295 30.9795 59.4495 21.4395 72.6795 21.4395C85.9095 21.4395 95.5395 30.9795 95.5395 44.5695C95.5395 58.1595 85.8195 67.6995 72.6795 67.6995C59.5395 67.6995 49.7295 58.1595 49.7295 44.5695ZM58.2795 44.5695C58.2795 53.7495 64.1295 60.1395 72.6795 60.1395C81.2295 60.1395 87.0795 53.7495 87.0795 44.5695C87.0795 35.3895 81.1395 28.9995 72.6795 28.9995C64.2195 28.9995 58.2795 35.3895 58.2795 44.5695Z" fill="white"/>
<path d="M129.099 22.25V29.99H125.319C117.309 29.99 112.359 34.85 112.359 43.31V66.62H103.899V22.7H111.819L112.359 29.36C114.159 24.77 118.569 21.71 124.599 21.71C126.129 21.71 127.389 21.89 129.099 22.25Z" fill="white"/>
<path d="M150.219 66.6198H141.759V29.7198H133.119V22.6098H141.759V8.83984H150.219V22.6098H158.859V29.7198H150.219V66.6198Z" fill="white"/>
<path d="M177.79 67.6996C168.34 67.6996 162.76 62.3896 162.76 54.3796C162.76 46.3696 168.79 41.2396 179.14 40.4296L193 39.3496V38.0896C193 30.7096 188.59 28.0996 182.65 28.0996C175.54 28.0996 171.49 31.2496 171.49 36.5596H164.11C164.11 27.3796 171.67 21.3496 183.01 21.3496C194.35 21.3496 201.28 27.1096 201.28 38.9896V66.6196H194.08L193.18 59.5096C190.93 64.5496 184.9 67.6996 177.79 67.6996ZM180.22 61.1296C188.23 61.1296 193.09 55.9096 193.09 47.6296V45.2896L181.84 46.1896C174.37 46.9096 171.31 49.7896 171.31 54.1096C171.31 58.7896 174.73 61.1296 180.22 61.1296Z" fill="white"/>
<path d="M220.64 66.6199H212.18V0.379883H220.64V66.6199Z" fill="white"/>
</g>
<defs>
<clipPath id="clip0_1293_259">
<rect width="219.82" height="67.32" fill="white" transform="translate(0.819336 0.379883)"/>
</clipPath>
</defs>
</svg>
