<svg width="62" height="34" viewBox="0 0 62 34" fill="none" xmlns="http://www.w3.org/2000/svg">
<path d="M28.728 9.65878C28.728 11.2428 28.38 12.6828 27.684 13.9788C26.988 15.2748 26.196 16.3308 25.308 17.1468C24.444 17.9388 23.184 18.6228 21.528 19.1988C19.872 19.7748 17.928 20.0628 15.696 20.0628C13.464 20.0628 11.916 20.3148 11.052 20.8188C10.188 21.3228 9.348 22.2948 8.532 23.7348C7.932 24.7428 7.32 25.9068 6.696 27.2268C6.096 28.5468 5.712 29.4708 5.544 29.9988C5.376 30.5268 4.92 30.9468 4.176 31.2588C3.432 31.5948 2.736 31.7748 2.088 31.7988L1.08 31.8708C0.36 31.8708 0 31.7148 0 31.4028V31.2948C0 31.0308 0.828 29.4588 2.484 26.5788C4.164 23.6988 6.012 20.4948 8.028 16.9668C10.068 13.4388 11.376 11.0148 11.952 9.69478C12.552 8.37478 12.852 7.25878 12.852 6.34678V5.98678C12.852 5.60278 13.668 5.31478 15.3 5.12278C16.956 4.90678 18.732 4.79878 20.628 4.79878C23.652 4.79878 25.752 5.21878 26.928 6.05878C28.128 6.87478 28.728 8.07478 28.728 9.65878ZM17.82 7.96678C17.172 8.71078 16.092 10.3428 14.58 12.8628C13.068 15.3588 12.312 16.7628 12.312 17.0748C12.312 17.3628 12.48 17.5548 12.816 17.6508C13.152 17.7468 13.956 17.7948 15.228 17.7948C16.524 17.7948 17.772 17.5668 18.972 17.1108C20.196 16.6548 21.156 16.1028 21.852 15.4548C22.548 14.8068 23.124 14.0868 23.58 13.2948C24.348 11.9508 24.732 10.8588 24.732 10.0188C24.732 9.17878 24.612 8.55478 24.372 8.14678C24.156 7.71478 23.832 7.41478 23.4 7.24678C22.68 6.98278 21.732 6.85078 20.556 6.85078C19.404 6.85078 18.492 7.22278 17.82 7.96678Z" fill="white"/>
<path d="M22.1743 30.6828C21.6223 30.4188 21.1663 29.9508 20.8063 29.2788C20.4703 28.6068 20.3023 27.7788 20.3023 26.7948C20.3023 25.2588 20.7943 23.6508 21.7783 21.9708C22.7863 20.2908 24.1903 18.8508 25.9903 17.6508C27.8143 16.4508 29.7343 15.8508 31.7503 15.8508C32.6863 15.8508 33.4663 16.1028 34.0903 16.6068C34.7143 17.1108 35.0263 17.6148 35.0263 18.1188C35.0263 18.5988 34.9543 18.9828 34.8103 19.2708C34.6663 19.5588 34.5943 19.7508 34.5943 19.8468C34.5943 20.1348 34.8223 20.2788 35.2783 20.2788C35.7343 20.2788 36.0823 20.2188 36.3223 20.0988C36.5623 19.9788 36.7063 19.9188 36.7543 19.9188C36.9463 19.9188 37.0423 20.1708 37.0423 20.6748C37.0423 21.1548 36.8023 21.7308 36.3223 22.4028C35.8423 23.0508 35.2543 23.5308 34.5583 23.8428C34.4623 24.0348 34.3303 24.3108 34.1623 24.6708C33.9943 25.0068 33.5983 25.6068 32.9743 26.4708C32.3503 27.3108 31.6783 28.0668 30.9583 28.7388C30.2623 29.3868 29.3263 29.9748 28.1503 30.5028C26.9983 31.0548 25.9423 31.3308 24.9823 31.3308C24.0223 31.3308 23.0863 31.1148 22.1743 30.6828ZM30.2023 24.4908C30.2023 24.2988 30.0943 24.2028 29.8783 24.2028C29.5663 24.2028 29.2063 24.2748 28.7983 24.4188C28.4143 24.5628 28.1983 24.6348 28.1503 24.6348C28.0063 24.6348 27.9343 24.5268 27.9343 24.3108C27.9343 23.3748 28.2703 22.5708 28.9423 21.8988C29.2063 21.6108 29.5903 21.3708 30.0943 21.1788C30.5983 20.9628 30.9823 20.7228 31.2463 20.4588C31.5343 20.1708 31.6783 19.6908 31.6783 19.0188C31.6783 18.2028 31.2463 17.7948 30.3823 17.7948C28.8463 17.7948 27.3823 18.8868 25.9903 21.0708C24.5983 23.2308 23.9023 25.1628 23.9023 26.8668C23.9023 27.4428 24.0943 27.9348 24.4783 28.3428C24.8863 28.7508 25.3663 28.9548 25.9183 28.9548C27.1663 28.9548 28.1863 28.4388 28.9783 27.4068C29.7943 26.3508 30.2023 25.3788 30.2023 24.4908Z" fill="white"/>
<path d="M54.0264 7.21078L55.7904 7.13878C56.0304 7.13878 56.1504 7.18678 56.1504 7.28278C56.1504 7.37878 56.1264 7.49878 56.0784 7.64278C56.0304 7.78678 55.9224 7.96678 55.7544 8.18278C55.6104 8.39878 55.4304 8.59078 55.2144 8.75878C54.6384 9.21478 53.9184 9.44278 53.0544 9.44278C52.2144 9.44278 51.5904 9.46678 51.1824 9.51478C50.7984 9.56278 50.4624 9.68278 50.1744 9.87478C49.8864 10.0668 49.6944 10.2108 49.5984 10.3068C49.5024 10.4028 49.3344 10.6428 49.0944 11.0268C48.8544 11.4108 48.6864 11.6748 48.5904 11.8188C47.3184 13.5948 45.2544 16.9428 42.3984 21.8628C39.5664 26.7828 37.8024 30.5868 37.1064 33.2748C37.0344 33.5148 36.8064 33.6348 36.4224 33.6348C36.0624 33.6348 35.5584 33.3228 34.9104 32.6988C34.2624 32.0748 33.9384 31.4388 33.9384 30.7908C33.9384 30.1428 34.9104 28.2108 36.8544 24.9948C38.8224 21.7788 40.7904 18.6228 42.7584 15.5268C44.7264 12.4068 45.7104 10.6788 45.7104 10.3428C45.7104 9.98278 45.5664 9.76678 45.2784 9.69478C44.9904 9.59878 44.4864 9.55078 43.7664 9.55078H42.5784C42.2664 9.55078 42.1104 9.40678 42.1104 9.11878C42.1104 8.83078 42.2424 8.53078 42.5064 8.21878C42.7944 7.88278 43.2144 7.59478 43.7664 7.35478C44.3424 7.11478 44.9184 6.87478 45.4944 6.63478C46.0944 6.39478 46.8624 5.85478 47.7984 5.01478C48.7584 4.17478 49.7184 3.09478 50.6784 1.77478C51.2784 0.958782 52.3104 0.550781 53.7744 0.550781C54.2784 0.550781 54.5304 0.706781 54.5304 1.01878C54.5304 1.21078 53.9904 2.08678 52.9104 3.64678C51.8304 5.20678 51.2904 6.19078 51.2904 6.59878C51.2904 6.98278 51.6504 7.17478 52.3704 7.17478C52.6584 7.19878 53.2104 7.21078 54.0264 7.21078Z" fill="white"/>
<path d="M52.585 26.9748C52.585 26.8068 52.525 26.7228 52.405 26.7228H52.333L51.793 26.9748C50.233 28.4868 48.961 29.5308 47.977 30.1068C46.993 30.6588 45.973 30.9348 44.917 30.9348C44.437 30.9348 44.005 30.7908 43.621 30.5028C43.237 30.2148 43.045 29.6628 43.045 28.8468C43.045 28.0308 43.465 26.5908 44.305 24.5268C45.145 22.4628 46.189 20.4948 47.437 18.6228C48.685 16.7268 49.777 15.6588 50.713 15.4188C51.025 15.3228 51.445 15.2748 51.973 15.2748C52.501 15.2748 52.765 15.4188 52.765 15.7068C52.765 15.8028 52.333 16.4748 51.469 17.7228C50.605 18.9468 49.741 20.3508 48.877 21.9348C48.037 23.5188 47.617 24.7068 47.617 25.4988C47.617 26.2908 47.893 26.6868 48.445 26.6868C49.477 26.6868 50.665 26.0148 52.009 24.6708C53.353 23.3268 55.117 21.2028 57.301 18.2988C57.901 17.4348 58.861 17.0028 60.181 17.0028C60.901 17.0028 61.261 17.1468 61.261 17.4348C61.261 17.5068 61.225 17.6028 61.153 17.7228C57.385 23.5308 55.117 27.6948 54.349 30.2148C54.253 30.5028 54.133 30.6468 53.989 30.6468H53.881C52.921 30.6468 52.441 29.8788 52.441 28.3428L52.585 26.9748Z" fill="white"/>
</svg>
