<svg width="196" height="106" viewBox="0 0 196 106" fill="none" xmlns="http://www.w3.org/2000/svg">
<g clip-path="url(#clip0_1293_245)">
<path d="M79.5042 63.8997V79.3497C73.0542 79.3497 67.5442 77.1997 62.9542 72.8997C62.9042 72.7997 62.8042 72.6797 62.6642 72.5297C62.5142 72.3297 62.3942 72.2097 62.2942 72.1597C57.1142 75.6797 51.4542 77.8697 45.3042 78.7497C39.1542 79.6297 33.0942 79.0897 27.1442 77.1397C21.1842 75.1397 15.9642 71.8397 11.4742 67.2497C6.54416 62.0697 3.22416 56.0897 1.51416 49.3097C-0.195838 42.4697 -0.125838 35.6897 1.73416 28.9497C3.63416 22.1597 7.15416 16.2797 12.2842 11.2997C17.4442 6.37973 23.4242 3.07973 30.2142 1.41973C37.0542 -0.290269 43.8342 -0.190269 50.5742 1.70973C57.3642 3.56973 63.2442 7.05973 68.2242 12.1797L68.5942 12.5497C73.2842 17.4797 76.4842 23.1897 78.1842 29.6897C79.8942 36.1397 79.9642 42.5797 78.4042 49.0297C76.8442 55.4797 73.7942 61.1897 69.2542 66.1697C69.6942 66.2197 70.3542 66.2397 71.2342 66.2397C74.1142 66.2397 76.8742 65.4597 79.5142 63.8997H79.5042ZM57.3142 58.9197C59.4642 61.7997 61.9742 63.8497 64.8542 65.0697C68.3742 61.2597 70.3442 56.3997 70.7842 50.4897C71.2742 43.8997 69.8042 37.3297 66.3942 30.7897C63.0242 24.1997 58.3342 18.7297 52.3342 14.3797C46.3742 10.0297 40.1242 7.63973 33.5842 7.19973C26.7442 6.70973 21.0142 8.51973 16.3742 12.6197C11.7842 16.6697 9.22416 22.1197 8.68416 28.9497C8.34416 33.9797 9.14416 39.0597 11.1042 44.1797C13.0542 49.3097 15.7442 53.8497 19.1642 57.7997C22.6342 61.7597 26.7042 65.0497 31.3942 67.6897C36.1342 70.2797 40.9642 71.7197 45.8942 72.0097C50.9742 72.3497 55.5142 71.4197 59.5142 69.2297C56.5842 65.8097 54.6342 62.3697 53.6542 58.8997H57.3142V58.9197Z" fill="#434444"/>
<path d="M138.194 76.2798C139.414 73.7898 140.074 71.5898 140.174 69.6898V39.9498C140.174 38.5298 139.714 37.2598 138.784 36.1398C137.904 35.0198 136.754 34.3798 135.344 34.2398C131.294 33.8498 127.624 36.8498 124.354 43.2498V69.7598V69.6898C124.454 71.5898 125.114 73.7898 126.334 76.2798C126.574 76.8198 126.844 77.3498 127.144 77.8898C127.484 78.3798 127.754 78.7398 127.944 78.9898L128.234 79.3598H108.894C109.624 78.5298 110.284 77.4998 110.874 76.2798C111.994 73.8898 112.634 71.6898 112.774 69.6898V39.9498C112.774 38.5298 112.334 37.2598 111.454 36.1398C110.574 35.0198 109.424 34.3798 108.014 34.2398C106.694 34.0898 105.454 34.2898 104.284 34.8298C103.114 35.3198 102.114 36.0298 101.284 36.9498C100.454 37.8798 99.7744 38.7598 99.2344 39.5898C98.6944 40.4198 98.1844 41.3198 97.6944 42.2998C97.2544 43.2298 97.0144 43.7198 96.9644 43.7598V69.7598C97.1644 71.7598 97.8144 73.9298 98.9444 76.2798C99.1844 76.8198 99.4544 77.3498 99.7544 77.8898C100.094 78.3798 100.364 78.7398 100.564 78.9898L100.854 79.3598H81.5944C82.3244 78.5298 82.9844 77.4998 83.5744 76.2798C84.5044 74.4198 85.1144 72.4498 85.4044 70.3498V36.9498C85.2544 34.9498 84.6244 32.7498 83.5044 30.3598C83.2644 29.8198 82.9644 29.3098 82.6244 28.8198C82.2844 28.2798 82.0144 27.9198 81.8144 27.7198L81.5244 27.3498H93.8244C94.7044 27.9398 95.4144 29.1598 95.9444 31.0098C96.4844 32.8198 96.8044 34.4998 96.8944 36.0598L96.9644 38.3998C100.134 34.6898 102.384 32.3498 103.704 31.3698C104.734 30.5898 105.484 30.0298 105.974 29.6898C106.464 29.3498 107.394 28.9098 108.754 28.3698C110.124 27.7798 111.464 27.4398 112.784 27.3398C115.664 27.1398 118.184 28.1698 120.324 30.4198C122.524 32.6698 123.844 35.3298 124.274 38.3998C127.304 34.8398 129.574 32.4898 131.084 31.3698C132.104 30.5898 132.864 30.0298 133.354 29.6898C133.844 29.3498 134.774 28.9098 136.134 28.3698C137.504 27.7798 138.844 27.4398 140.164 27.3398C143.334 27.1398 146.044 28.3898 148.294 31.0798C150.584 33.7698 151.734 36.7898 151.734 40.1598V69.7498V69.6798C151.884 71.6798 152.514 73.8798 153.634 76.2698C153.874 76.8098 154.174 77.3398 154.514 77.8798C154.854 78.3698 155.124 78.7298 155.324 78.9798L155.614 79.3498H136.274C136.954 78.5198 137.594 77.4898 138.174 76.2698L138.194 76.2798Z" fill="#434444"/>
<path d="M171.774 69.8293C171.974 71.9293 172.604 74.0993 173.674 76.3493C173.914 76.8893 174.214 77.4193 174.554 77.9593C174.894 78.4493 175.164 78.7893 175.354 78.9893L175.644 79.3593H156.304C157.034 78.5793 157.694 77.5793 158.284 76.3593C159.214 74.4993 159.824 72.4993 160.114 70.3493V36.9493C159.924 34.8493 159.284 32.6793 158.214 30.4293C157.974 29.8893 157.674 29.3793 157.334 28.8893C156.994 28.3493 156.724 27.9593 156.524 27.7193L156.234 27.3493H175.644C174.914 28.1793 174.254 29.2093 173.664 30.4293C172.594 32.6793 171.954 34.8493 171.764 36.9493V69.8393L171.774 69.8293ZM170.154 16.3593C168.984 17.5293 167.564 18.1193 165.904 18.1193C164.244 18.1193 162.824 17.5293 161.654 16.3593C160.484 15.1393 159.894 13.6993 159.894 12.0393C159.894 10.3793 160.484 8.9593 161.654 7.7893C162.824 6.6193 164.244 6.0293 165.904 6.0293C167.564 6.0293 168.984 6.6193 170.154 7.7893C171.374 8.9593 171.984 10.3793 171.984 12.0393C171.984 13.6993 171.374 15.1393 170.154 16.3593Z" fill="#434444"/>
<path d="M190.394 16.3593C189.224 17.5293 187.804 18.1193 186.144 18.1193C184.484 18.1193 183.064 17.5293 181.894 16.3593C180.724 15.1393 180.134 13.6993 180.134 12.0393C180.134 10.3793 180.724 8.9593 181.894 7.7893C183.064 6.6193 184.484 6.0293 186.144 6.0293C187.804 6.0293 189.224 6.6193 190.394 7.7893C191.564 8.9593 192.154 10.3793 192.154 12.0393C192.154 13.6993 191.564 15.1393 190.394 16.3593ZM176.484 27.3493H195.824C195.144 28.1793 194.504 29.2093 193.924 30.4293C192.804 32.7693 192.144 34.9693 191.944 37.0193V89.2393C191.894 93.8293 190.404 97.7393 187.474 100.959C184.594 104.179 180.904 105.819 176.414 105.869H173.044C173.244 105.769 173.504 105.599 173.854 105.359C174.194 105.119 174.784 104.529 175.614 103.599C176.444 102.669 177.174 101.619 177.814 100.449C178.454 99.3293 179.034 97.7393 179.574 95.6893C180.114 93.6893 180.384 91.5193 180.384 89.1693V37.0193C180.184 34.8193 179.554 32.6293 178.484 30.4293C178.244 29.8893 177.944 29.3793 177.604 28.8893C177.264 28.3493 176.994 27.9593 176.794 27.7193L176.504 27.3493H176.484Z" fill="#434444"/>
</g>
<defs>
<clipPath id="clip0_1293_245">
<rect width="195.54" height="105.66" fill="white" transform="translate(0.274414 0.209961)"/>
</clipPath>
</defs>
</svg>
