<svg width="80" height="88" viewBox="0 0 80 88" fill="none" xmlns="http://www.w3.org/2000/svg">
<path fill-rule="evenodd" clip-rule="evenodd" d="M22.0812 18.4417C25.623 12.8243 29.7888 7.70465 34.1459 2.75204C34.572 2.90794 34.1607 3.14207 34.2995 3.32952C34.536 3.46861 34.8713 2.8988 35.1372 3.4618C35.3817 3.97904 35.1715 4.3287 34.9274 4.68678C33.6429 6.57163 31.9067 8.09874 30.7509 10.1063C30.3554 10.7928 30.1262 11.6588 29.2716 12.1393C28.7454 12.4348 28.7746 13.3174 28.2829 13.8478C27.9751 14.18 27.7738 14.6677 27.4308 15.043C26.064 16.5373 25.1873 18.2941 24.7894 20.2813C24.7178 20.6392 24.5346 20.9514 24.1984 20.9292C23.2816 20.8689 22.3364 21.1572 21.5203 20.2686C20.928 19.6233 20.9199 19.0915 21.1735 18.4098C21.7847 16.7675 22.8123 15.3668 23.8234 13.9657C25.0062 12.3269 26.3177 10.7838 27.5565 9.18948C29.2227 7.04515 31.0481 5.0452 32.7966 2.97658C32.963 2.77999 33.1457 2.35742 33.4453 2.58122C33.6709 2.74959 33.3837 3.07007 33.2259 3.26663C32.2306 4.50602 31.1787 5.69438 30.1054 6.86942C29.0768 7.99554 28.1835 9.25245 27.2943 10.4971C25.8574 12.5092 24.303 14.4373 22.976 16.5275C22.5977 17.1234 22.2218 17.7278 22.0812 18.4417Z" fill="black"/>
<path fill-rule="evenodd" clip-rule="evenodd" d="M14.8762 43.489C14.2769 43.8799 13.9445 43.1458 13.7831 42.9873C13.3464 42.5588 12.5632 42.878 12.4227 42.4083C12.2102 41.697 11.6626 41.0585 12.0047 40.168C12.666 38.4455 13.5672 36.8518 14.4191 35.2294C15.0367 34.0532 15.6321 32.8628 16.4675 31.8144C16.8401 31.3471 17.2549 30.9435 17.8279 30.747C18.4154 30.5451 18.9106 30.5758 19.4057 31.0929C19.7721 31.4755 20.2661 31.7519 20.5968 32.1917C20.9116 32.6098 21.152 33.0384 20.6838 33.519C20.3552 33.856 20.3602 34.3411 20.1716 34.7439C19.4133 36.3624 19.0085 38.1464 17.9054 39.603C17.0875 40.6834 16.4444 41.8697 15.7798 43.0442C15.5895 43.3805 15.3969 43.7905 14.8762 43.489Z" fill="black"/>
<path fill-rule="evenodd" clip-rule="evenodd" d="M46.9522 25.204C46.7925 25.4853 46.6896 25.6661 46.5902 25.8408C46.6741 25.9762 46.7706 25.91 46.869 25.8927C47.0709 25.8568 47.1758 25.4872 47.3988 25.6612C47.6685 25.8717 47.2767 26.0526 47.2774 26.2703C47.5851 26.3749 47.7076 25.9941 47.9656 26.0089C48.3028 26.6609 48.0448 27.1332 47.6194 27.6457C46.4634 29.0383 45.4342 30.5205 44.6754 32.179C44.3891 32.8053 43.5271 33.0394 43.4361 33.7904C43.3207 34.7429 42.7928 35.5273 42.2243 36.16C41.2423 37.2528 40.9196 38.6213 40.2774 39.8513C40.0968 40.1974 40.2511 40.6612 39.8656 40.9212C39.7411 41.0052 39.5387 41.2047 39.4819 41.0139C39.2868 40.3618 38.755 40.6137 38.3499 40.4685C37.5982 40.1988 37.5216 39.4276 37.5124 38.7552C37.4982 37.6954 37.9014 36.7119 38.4197 35.8201C40.4033 32.4052 42.6378 29.1621 45.2948 26.2299C45.6995 25.7831 46.0796 25.2098 46.9522 25.204Z" fill="black"/>
<path fill-rule="evenodd" clip-rule="evenodd" d="M41.7403 19.1324C41.5062 19.6714 41.2757 20.2369 41.0179 20.7899C39.3846 24.296 37.3902 27.5942 35.2645 30.819C34.4496 32.0551 33.5355 33.2283 32.8785 34.5686C32.6906 34.9526 32.3927 35.2408 31.9594 34.7693C31.8573 34.658 31.6954 34.5962 31.5523 34.5289C30.6007 34.0816 30.2906 33.2872 30.7021 32.2919C31.1238 31.2708 31.802 30.4073 32.4623 29.5396C35.2561 25.8698 37.9144 22.1123 40.0654 18.0186C40.3382 17.4998 40.4015 17.5066 40.7444 17.9564C40.7817 18.0053 40.8631 18.0461 40.9244 18.0466C41.6468 18.0539 41.6597 18.5852 41.7403 19.1324Z" fill="black"/>
<path fill-rule="evenodd" clip-rule="evenodd" d="M9.40829 48.3281C8.59212 49.8763 7.39735 51.0045 6.62728 52.4034C5.84894 53.8174 4.94276 55.165 4.3895 56.7019C5.09001 55.4954 5.78749 54.2868 6.49166 53.0821C7.30014 51.7 8.27648 50.4384 9.23976 49.1628C9.72324 48.5228 10.1866 48.604 10.6172 49.0256C11.0375 49.4377 11.071 50.0646 10.5979 50.4521C9.63405 51.2415 9.02956 52.3125 8.59986 53.3809C7.85166 55.2415 6.6947 56.92 6.20019 58.8917C6.08628 59.3462 5.7135 59.7062 5.59378 60.2131C5.45921 60.7835 5.37988 61.2756 5.61296 61.8427C5.74793 62.1721 6.11683 62.6245 5.71807 62.9374C5.39188 63.1936 4.9349 63.3598 4.46455 63.05C4.28497 62.9319 4.00234 62.9696 3.76641 62.9378C2.38679 62.7534 1.65946 61.7701 2.00476 60.3944C2.46779 58.5496 3.34525 56.8683 4.25994 55.2129C5.45836 53.0435 6.73738 50.9264 8.37821 49.0514C8.62035 48.7748 8.83115 48.4635 9.40829 48.3281Z" fill="black"/>
<path fill-rule="evenodd" clip-rule="evenodd" d="M45.3948 69.7413C43.5205 69.551 43.0373 68.6739 43.8263 67.1826C44.4432 66.0164 45.3865 65.0984 46.3008 64.1759C48.4351 62.0227 50.6404 59.9444 52.9625 57.9894C53.5304 57.5111 54.1748 57.3839 54.8366 57.2514C55.0676 57.2054 55.5808 57.1202 55.5424 57.3136C55.4629 57.709 55.8276 58.1117 55.4243 58.5032C53.6231 60.2511 51.9818 62.1509 50.2927 64.0052C49.548 64.8229 48.7383 65.5831 48.0162 66.4196C47.528 66.9854 47.0253 67.5993 47.3776 68.4616C47.4198 68.5645 47.3675 68.8185 47.3198 68.8291C46.555 69.0024 46.029 69.7463 45.3948 69.7413Z" fill="black"/>
<path fill-rule="evenodd" clip-rule="evenodd" d="M68.7821 29.1977C69.8524 28.212 70.5823 26.9562 71.6386 25.9758C71.9497 25.6872 72.3122 25.4458 72.5854 25.1263C73.0365 24.5984 73.3995 25.0711 73.6427 25.2757C73.8789 25.4741 73.9577 25.8881 73.648 26.2418C72.3835 27.6858 71.3215 29.2986 70.3996 30.9556C69.7426 32.137 68.7482 33.13 68.4202 34.5481C68.2957 35.085 67.8616 35.6756 67.595 36.264C67.2384 37.0508 66.7394 36.3204 66.3057 36.2472C66.2373 36.2357 66.1964 36.027 66.1332 36.0219C65.864 35.999 65.6377 36.6678 65.3699 36.1615C65.0067 35.4744 64.6109 34.8209 65.0047 33.8979C65.6301 32.4327 66.4953 31.1409 67.427 29.8813C68.69 28.1735 69.8753 26.3935 71.5648 25.0487C71.6894 24.9496 71.8056 24.8388 71.9371 24.7499C72.0727 24.6582 72.25 24.5859 72.3715 24.7274C72.5261 24.9076 72.416 25.0959 72.2543 25.2036C70.8416 26.1432 70.0374 27.6213 68.9875 28.8812C68.9078 28.977 68.8501 29.0919 68.7821 29.1977Z" fill="black"/>
<path fill-rule="evenodd" clip-rule="evenodd" d="M33.884 52.8607C34.3247 52.5207 34.8132 52.2267 35.1933 51.8291C35.6368 51.3653 36.086 51.2986 36.6185 51.5729C36.9351 51.7365 36.8306 52.0752 36.7769 52.2924C36.6384 52.8514 36.2592 53.255 35.6909 53.4025C35.5551 53.4376 35.3676 53.3187 35.3443 53.5558C35.232 54.7141 34.1551 55.2296 33.6264 56.1139C33.4641 56.3849 33.1876 56.6301 32.9829 56.9042C32.385 57.7047 31.8732 58.588 30.7531 58.8059C30.4921 58.8565 30.0679 59.0434 30.1665 59.4421C30.4674 60.658 29.5667 61.3605 29.0133 62.1849C28.1038 63.5392 26.9998 64.7566 26.1426 66.1515C26.0458 66.3088 25.9728 66.5388 25.7479 66.4587C25.4669 66.3582 25.8742 66.1405 25.6892 65.9699C25.3111 66.1254 24.9445 66.6105 24.5045 65.9514C24.3475 65.7162 24.0485 66.0576 23.897 66.2757C23.7818 66.4414 23.6579 66.596 23.4504 66.445C23.1994 66.2623 23.4454 66.122 23.53 65.9857C25.072 63.5003 26.8975 61.2279 28.7791 58.9977C30.4362 57.0335 32.093 55.069 33.7497 53.1053C33.794 53.0242 33.839 52.9426 33.884 52.8607Z" fill="black"/>
<path fill-rule="evenodd" clip-rule="evenodd" d="M48.8193 44.9783C49.8434 43.6935 50.8739 42.411 51.9917 41.2003C50.7812 41.933 49.2281 43.7584 48.8193 44.9783ZM50.3486 47.2362C50.0644 47.2893 50.864 46.3995 50.0528 46.914C50.0311 46.9278 49.989 46.9481 49.9807 46.9402C49.523 46.5058 49.0842 46.4839 48.5834 46.9093C48.452 47.021 47.6309 45.8933 47.6414 45.5854C47.6576 45.1206 47.8179 44.695 48.0613 44.3109C49.4351 42.1416 51.237 40.4049 53.4279 39.0725C54.5011 38.4196 55.5403 38.6058 56.53 39.27C57.0614 39.6268 57.0228 39.9882 56.5112 40.3922C55.9727 40.8171 55.4554 41.273 54.9635 41.7512C54.396 42.3029 53.9052 42.9218 53.2894 43.4392C52.4807 44.1185 52.1218 45.1603 51.4993 46.0005C51.1551 46.4642 50.8455 46.9387 50.3486 47.2362Z" fill="black"/>
<path fill-rule="evenodd" clip-rule="evenodd" d="M73.4721 50.9227C73.3157 51.3095 73.2215 51.5422 73.078 51.897C73.2698 51.7769 73.3825 51.746 73.4227 51.6742C73.7487 51.0935 74.2212 51.2991 74.5861 51.5338C74.9768 51.7849 75.0364 52.2702 74.8311 52.6631C74.496 53.3043 74.1196 53.9349 73.6799 54.5081C73.0732 55.2992 72.4007 56.0551 71.953 56.9403C71.4851 57.8649 70.8494 58.7465 70.969 59.9002C71.0256 60.4447 70.5487 60.7139 70.0829 60.447C69.83 60.3016 69.5905 60.2913 69.3273 60.2784C67.6598 60.1962 66.9201 58.9343 67.7223 57.4142C68.8532 55.2717 70.5075 53.5301 72.2175 51.8462C72.5443 51.5243 72.7919 51.0776 73.4721 50.9227Z" fill="black"/>
<path fill-rule="evenodd" clip-rule="evenodd" d="M9.51679 79.7764C9.44756 80.3715 9.92172 80.7111 9.94385 81.1939C9.19881 81.2211 8.77522 80.7763 8.69601 79.9397C8.61015 79.0308 8.97063 78.2374 9.47514 77.5698C10.5486 76.1495 11.4781 74.6267 12.8975 73.4489C13.4527 72.9883 13.8838 72.1963 14.436 71.6271C16.0099 70.0037 17.6404 68.4348 19.2543 66.8504C19.5785 66.5321 19.9511 66.2747 20.37 66.0879C20.5844 65.9922 20.787 65.9858 20.9607 66.1564C21.1474 66.3398 21.1042 66.546 20.9709 66.7358C20.7727 67.0183 20.5901 67.3191 20.353 67.5658C18.1581 69.8477 15.9144 72.0843 13.7703 74.4125C12.9351 75.3197 12.247 76.3892 11.7329 77.5267C11.4955 78.0523 11.6326 78.6685 11.6379 79.2466C11.639 79.4041 11.8354 79.6377 11.5482 79.727C10.9966 79.8992 10.5311 80.0772 10.9281 80.813C11.0184 80.9803 10.7694 81.0393 10.6014 81.0264C10.3012 81.0036 9.95693 80.9646 9.95864 80.5889C9.96051 80.2442 9.78425 80.0512 9.51679 79.7764Z" fill="black"/>
<path fill-rule="evenodd" clip-rule="evenodd" d="M26.2503 40.3815C26.0908 40.2427 25.9968 40.2097 25.9036 40.3847C25.5642 41.0222 25.2676 41.6923 24.8495 42.2742C24.5966 42.6258 24.5665 43.3999 23.7627 43.0933C23.6349 43.0446 23.6452 43.2128 23.6955 43.3124C23.8129 43.5452 23.7106 43.6971 23.5413 43.8663C23.2526 44.1545 23.147 44.4957 23.1711 44.9326C23.2161 45.7396 22.6246 46.072 21.9302 45.6736C21.8469 45.6255 21.705 45.4775 21.6917 45.5316C21.3772 46.8081 20.8463 45.0212 20.4975 45.62C20.3004 45.42 20.222 45.1826 20.2254 44.8993C20.2334 44.25 20.5509 43.7318 20.9027 43.227C22.2357 41.3146 24.0172 39.8595 25.8359 38.4517C26.2738 38.1123 26.879 38.1519 27.4129 38.0509C27.7263 37.9915 27.8807 38.2616 27.972 38.5142C28.0971 38.8604 27.9197 38.8775 27.6581 38.7624C27.5632 39.3518 27.1347 39.7236 26.7718 40.1421C26.6119 40.3264 26.4973 40.557 26.2503 40.3815Z" fill="black"/>
<path fill-rule="evenodd" clip-rule="evenodd" d="M57.3113 19.3895C57.2507 19.3345 57.1904 19.2796 57.1302 19.2246C56.6956 19.7819 56.2578 20.3365 55.8317 20.9002C55.7821 20.9661 55.686 21.0842 55.8051 21.1732C55.888 21.2351 56.0377 21.2654 56.0789 21.1568C56.3402 20.465 57.0522 20.0792 57.3113 19.3895ZM53.8263 26.3317C53.5609 26.644 53.6694 27.2338 52.9335 27.2072C52.4015 27.1882 52.5224 26.9422 52.5492 26.6702C52.0906 26.6658 52.2187 27.2239 51.8055 27.291C51.7124 26.5439 52.0514 25.8712 52.0886 25.1659C52.0956 25.1457 52.1011 25.1232 52.1056 25.0989C52.7184 24.6705 52.9207 23.9583 53.2956 23.3665C53.4503 23.1219 53.5261 22.8193 53.7078 22.6018C55.1702 20.852 56.4098 18.9288 57.9648 17.2472C59.1835 15.9292 60.2881 14.5067 61.5749 13.2482C61.8708 12.959 62.139 12.6363 62.7394 12.362C62.2226 13.1113 61.8293 13.6813 61.4362 14.2512C61.4467 14.2281 61.4565 14.2043 61.4654 14.1795C60.5185 14.7873 60.0541 15.8248 59.2227 16.551C59.458 16.794 59.5576 16.5749 59.6837 16.5615C59.8993 16.539 60.0166 16.6845 60.0803 16.8745C60.1117 16.9676 60.1789 17.1069 60.0331 17.1293C59.3865 17.2285 59.4856 17.7667 59.426 18.1797C59.3599 18.6362 59.0855 18.8634 58.7067 19.0326C58.123 19.2932 57.75 19.7081 57.7428 20.3822C57.6316 20.5159 57.5207 20.6499 57.4095 20.7836C56.7764 21.0195 55.7695 22.3754 55.7702 22.9907C55.4239 22.9742 55.223 23.6134 54.7897 23.2089C54.6892 22.8091 54.6286 22.6186 54.2199 23.0632C53.7036 23.6244 53.6947 24.4578 53.0908 24.9452C53.0011 25.0173 52.9948 25.1364 53.1001 25.2161C53.2369 25.32 53.3785 25.268 53.4149 25.1272C53.5734 24.5186 54.1103 24.133 54.3182 23.5597C54.4063 23.3178 54.4947 23.1073 54.8142 23.1886C54.8972 24.354 53.9372 25.0488 53.5374 25.997C53.4845 26.1226 53.0332 25.7251 53.1662 26.1788C53.2308 26.4001 53.544 26.538 53.8263 26.3317Z" fill="black"/>
<path fill-rule="evenodd" clip-rule="evenodd" d="M62.4583 71.8462C62.2523 72.2755 62.3375 72.6903 62.4415 73.0906C62.4963 73.3013 62.5376 73.461 62.2858 73.5212C62.0559 73.5761 61.9349 73.4064 61.8729 73.2289C61.7148 72.7769 61.8126 72.3002 61.973 71.9002C62.5845 70.3732 63.5736 69.0934 64.7497 67.9536C65.0988 67.6157 65.5022 67.3183 65.7876 66.9331C66.3062 66.2329 67.084 66.096 67.8287 65.9325C68.1766 65.8559 68.1961 66.3142 68.2411 66.5643C68.2667 66.7075 68.1373 66.9673 68.0052 67.0361C66.7283 67.7009 66.39 69.1428 65.4722 70.1124C65.1697 70.432 65.2228 71.1463 64.8308 71.5713C64.5212 71.9072 64.3286 72.3465 63.8029 72.469C63.4996 72.5394 63.6842 72.9392 63.5293 73.1505C63.4498 73.2591 63.3943 73.3936 63.2476 73.3978C63.1015 73.4022 62.9319 73.2609 62.9671 73.1712C63.2036 72.5689 62.4875 72.3381 62.4583 71.8462Z" fill="black"/>
<path fill-rule="evenodd" clip-rule="evenodd" d="M33.8846 52.861C33.8396 52.9429 33.7946 53.0245 33.7503 53.1056C32.605 53.9289 31.6442 54.9633 30.709 55.9949C29.4225 57.414 28.236 58.9301 27.086 60.4643C26.1128 61.7627 24.9232 62.8982 24.1839 64.3789C23.8839 64.9799 23.4325 65.5107 22.7011 65.8687C22.6324 64.912 23.2913 64.3691 23.7026 63.7405C24.7861 62.0839 26.0943 60.5973 27.3842 59.103C29.7113 56.4074 31.9247 53.6012 34.7155 51.342C34.8752 51.2129 35.011 51.0268 35.3501 51.1684C35.0461 51.9064 34.2766 52.2332 33.8846 52.861Z" fill="black"/>
<path fill-rule="evenodd" clip-rule="evenodd" d="M65.8448 44.8331C65.5094 45.0311 65.8162 45.6866 65.3475 45.5383C64.948 45.4116 65.1449 44.9285 65.2788 44.6229C66.1095 42.7303 67.5073 41.4077 69.417 40.6405C69.7063 40.5242 70.1271 40.3447 70.3409 40.7767C70.531 41.1597 70.1598 41.3441 69.9379 41.5499C69.008 42.4138 68.1189 43.3017 67.7804 44.5861C67.6955 44.9087 67.4178 45.0005 67.1358 45.0845C67.0374 45.1139 66.9359 45.1678 66.8612 45.2373C66.2708 45.7876 65.8642 45.8114 65.8448 44.8331Z" fill="black"/>
<path fill-rule="evenodd" clip-rule="evenodd" d="M57.1275 17.312C56.943 18.2774 56.0567 18.7322 55.5285 19.4456C55.1372 19.9739 54.8003 20.5839 54.2199 20.9766C54.0755 21.0743 53.9977 21.3136 53.7899 21.1679C53.6246 21.0518 53.6089 20.8486 53.7458 20.6727C54.5701 19.6147 55.3762 18.541 56.3296 17.592C56.5548 17.3679 56.8708 17.4061 57.1484 17.3335L57.1275 17.312Z" fill="black"/>
<path fill-rule="evenodd" clip-rule="evenodd" d="M57.1485 17.3337C57.0704 17.1081 56.9748 16.896 57.1803 16.6679C58.3446 15.3743 59.4893 14.0622 60.804 12.9139C60.9057 12.8249 60.9796 12.5976 61.173 12.7637C61.2955 12.869 61.2486 13.0085 61.147 13.1137C59.8387 14.4673 58.5624 15.8494 57.3528 17.2927C57.3187 17.3332 57.2045 17.3071 57.1277 17.3122L57.1485 17.3337Z" fill="black"/>
<path fill-rule="evenodd" clip-rule="evenodd" d="M52.1057 25.0964C52.1015 25.1208 52.0957 25.1435 52.089 25.1637C51.9132 25.505 51.5781 25.7621 51.5621 26.1891C51.5564 26.3413 51.5552 26.5581 51.3269 26.5154C51.1228 26.4771 51.1696 26.2886 51.2039 26.1275C51.5094 24.6954 52.1363 23.3902 52.8175 22.111C52.9346 21.8915 53.2349 21.6731 53.4751 21.8156C53.7597 21.9842 53.505 22.2566 53.3821 22.4189C52.7708 23.2263 52.4461 24.1636 52.1057 25.0964Z" fill="black"/>
<path fill-rule="evenodd" clip-rule="evenodd" d="M61.466 14.1775C61.4571 14.202 61.4473 14.2258 61.4365 14.2489C61.8062 13.941 62.4003 13.8981 62.5196 13.2744C62.5393 13.1714 62.8416 12.8176 63.0856 13.0787C63.3177 13.3267 63.0228 13.535 62.8619 13.6596C62.1342 14.2231 61.5357 14.882 61.1385 15.807C60.9127 15.4833 60.5506 15.2506 61.0946 14.9389C61.3869 14.7713 61.3119 14.4169 61.466 14.1775Z" fill="black"/>
<path fill-rule="evenodd" clip-rule="evenodd" d="M57.4093 20.7828C57.5204 20.6491 57.6317 20.5151 57.7425 20.3814C57.8681 20.3013 57.9937 20.2216 58.119 20.1414C58.1573 20.1739 58.1951 20.2062 58.2332 20.2386C57.9179 20.6898 57.6024 21.1407 57.2872 21.592C57.2318 21.5676 57.1765 21.5429 57.1212 21.5183C57.2172 21.2734 57.3132 21.028 57.4093 20.7828Z" fill="black"/>
<path fill-rule="evenodd" clip-rule="evenodd" d="M54.1766 25.9484C54.0753 25.3844 54.5111 25.0601 54.7628 24.658C55.0096 24.2636 55.2886 23.8893 55.5537 23.5059C55.6126 23.7201 55.5757 23.901 55.4406 24.0916C55.0075 24.7024 54.5962 25.3283 54.1766 25.9484Z" fill="black"/>
</svg>
