<svg width="107" height="109" viewBox="0 0 107 109" fill="none" xmlns="http://www.w3.org/2000/svg">
<path fill-rule="evenodd" clip-rule="evenodd" d="M22.5438 70.5867C17.0737 65.2662 12.2556 59.2991 7.65287 53.1368C7.89813 52.6593 8.07914 53.1954 8.30747 53.0666C8.50067 52.8119 7.94153 52.3008 8.60042 52.094C9.20579 51.9037 9.5481 52.2226 9.89353 52.5836C11.7118 54.4834 13.061 56.8516 15.0356 58.622C15.7107 59.2278 16.6105 59.6703 16.9799 60.783C17.2071 61.468 18.171 61.6058 18.6594 62.2957C18.9654 62.7276 19.4592 63.0629 19.8057 63.5452C21.1851 65.4667 22.937 66.8554 25.0244 67.7183C25.4004 67.8736 25.7069 68.1531 25.6228 68.5495C25.394 69.6305 25.5386 70.8136 24.428 71.6125C23.6216 72.1924 23.0426 72.0981 22.3473 71.6625C20.6725 70.6127 19.3343 69.1138 17.9927 67.6345C16.4236 65.9041 14.9813 64.0389 13.4704 62.2504C11.4384 59.845 9.59147 57.2779 7.65629 54.789C7.47241 54.5523 7.04601 54.2519 7.34249 53.9384C7.56556 53.7025 7.86246 54.1075 8.04782 54.3341C9.21658 55.7629 10.3198 57.2492 11.4048 58.7584C12.4446 60.2047 13.6506 61.5154 14.844 62.8187C16.7733 64.925 18.5905 67.1551 20.6242 69.1457C21.204 69.7132 21.7935 70.2794 22.5438 70.5867Z" fill="black"/>
<path fill-rule="evenodd" clip-rule="evenodd" d="M48.4642 84.0747C48.7818 84.8655 47.9253 85.1181 47.7244 85.2795C47.1812 85.7163 47.3883 86.7123 46.8531 86.7879C46.0426 86.9021 45.2516 87.43 44.3454 86.848C42.5924 85.7227 41.022 84.3368 39.4116 83.0041C38.2443 82.0378 37.0574 81.0952 36.0676 79.8944C35.6264 79.3589 35.262 78.7854 35.1507 78.0641C35.0361 77.3242 35.1577 76.74 35.8076 76.2509C36.2884 75.889 36.6767 75.3542 37.2132 75.046C37.7235 74.7525 38.2319 74.5499 38.6704 75.202C38.9778 75.6596 39.5057 75.7484 39.9096 76.0521C41.5323 77.2726 43.3978 78.104 44.7833 79.7037C45.811 80.8901 46.9849 81.8887 48.142 82.9106C48.4734 83.2032 48.8844 83.513 48.4642 84.0747Z" fill="black"/>
<path fill-rule="evenodd" clip-rule="evenodd" d="M34.3197 42.2624C34.5967 42.5078 34.7747 42.6658 34.9468 42.8184C35.1088 42.745 35.0541 42.617 35.0528 42.4963C35.0498 42.2485 34.6671 42.0512 34.8958 41.8195C35.1725 41.5391 35.2992 42.0416 35.5357 42.0832C35.7042 41.7369 35.3124 41.5164 35.3744 41.2118C36.1427 40.9374 36.6097 41.3374 37.0905 41.9447C38.3971 43.5949 39.8235 45.1117 41.4897 46.3405C42.1189 46.8044 42.2195 47.8777 43.0189 48.1329C44.033 48.4568 44.7909 49.2395 45.3767 50.041C46.3886 51.4252 47.8174 52.0776 49.039 53.0836C49.3827 53.3666 49.9139 53.2734 50.1276 53.7838C50.1966 53.9486 50.3772 54.2288 50.1599 54.2592C49.4169 54.3643 49.5957 55.0475 49.3658 55.5019C48.9389 56.3453 48.0877 56.2857 47.3557 56.1651C46.2021 55.9748 45.2058 55.3018 44.3295 54.5096C40.974 51.4772 37.8498 48.1793 35.1385 44.4387C34.7254 43.8689 34.1704 43.3036 34.3197 42.2624Z" fill="black"/>
<path fill-rule="evenodd" clip-rule="evenodd" d="M26.7964 47.2876C27.34 47.672 27.9131 48.0574 28.4678 48.4729C31.9848 51.1056 35.2117 54.128 38.3354 57.2925C39.5328 58.5056 40.6441 59.8248 41.9827 60.87C42.3663 61.1692 42.6262 61.5805 42.0369 62.0049C41.8978 62.1048 41.8019 62.2857 41.7033 62.4431C41.0479 63.49 40.1298 63.7043 39.1221 63.0191C38.0882 62.3166 37.2712 61.3393 36.4465 60.3825C32.9585 56.3346 29.351 52.431 25.2881 49.0662C24.7732 48.6396 24.7919 48.5655 25.3416 48.2447C25.4013 48.2098 25.4601 48.1207 25.4716 48.0478C25.6083 47.1881 26.1877 47.2767 26.7964 47.2876Z" fill="black"/>
<path fill-rule="evenodd" clip-rule="evenodd" d="M52.745 91.5391C54.2811 92.8148 55.2935 94.4596 56.6756 95.6511C58.0727 96.8555 59.3748 98.1992 60.9455 99.1593C59.7599 98.0883 58.5715 97.0206 57.3886 95.9456C56.0316 94.7115 54.8353 93.301 53.6215 91.9032C53.0125 91.2018 53.1833 90.6654 53.718 90.2345C54.2405 89.814 54.9273 89.8968 55.2638 90.5365C55.9495 91.8398 57.005 92.7698 58.0888 93.491C59.9764 94.7468 61.5933 96.4542 63.6467 97.4293C64.12 97.6539 64.4446 98.1687 64.9738 98.4106C65.5693 98.6825 66.0896 98.8733 66.7471 98.7064C67.129 98.61 67.6861 98.2587 67.9549 98.7953C68.175 99.2342 68.2741 99.8114 67.8538 100.311C67.6935 100.502 67.684 100.847 67.6075 101.122C67.1613 102.73 65.9637 103.405 64.5311 102.724C62.6099 101.811 60.9402 100.437 59.3052 99.0226C57.1626 97.1697 55.0911 95.231 53.347 92.9084C53.0897 92.5657 52.7892 92.2535 52.745 91.5391Z" fill="black"/>
<path fill-rule="evenodd" clip-rule="evenodd" d="M82.4151 52.8311C81.8744 55.0281 80.8357 55.4325 79.3565 54.2004C78.1998 53.2369 77.3709 51.9329 76.5318 50.6626C74.5736 47.6974 72.7093 44.6622 70.9998 41.5119C70.5815 40.7414 70.5582 39.9483 70.5321 39.1336C70.5233 38.8492 70.5223 38.2208 70.7255 38.3045C71.1408 38.4765 71.6432 38.1205 71.9966 38.6779C73.574 41.1668 75.3449 43.4947 77.0579 45.8709C77.8133 46.9185 78.4947 48.0324 79.2745 49.0567C79.8021 49.7493 80.3793 50.4686 81.3786 50.2173C81.4979 50.1871 81.7644 50.2992 81.7674 50.3581C81.8193 51.3037 82.5336 52.0761 82.4151 52.8311Z" fill="black"/>
<path fill-rule="evenodd" clip-rule="evenodd" d="M42.5478 17.0234C41.6679 15.5547 40.434 14.4391 39.5574 12.9882C39.2994 12.5609 39.1018 12.0817 38.8035 11.6935C38.3105 11.0525 38.8886 10.7122 39.1542 10.4623C39.4117 10.2196 39.8755 10.2067 40.2044 10.645C41.5474 12.4347 43.1099 14.016 44.7453 15.4391C45.9114 16.4533 46.8127 17.8329 48.2945 18.5013C48.8554 18.7546 49.4196 19.3875 50.0111 19.8205C50.8021 20.3994 49.9199 20.8513 49.7631 21.354C49.7384 21.4334 49.5045 21.4412 49.4877 21.5155C49.4147 21.832 50.1008 22.2326 49.5032 22.4527C48.6922 22.7513 47.912 23.0952 46.9795 22.4454C45.4996 21.4133 44.2507 20.1292 43.0487 18.7724C41.419 16.9328 39.6969 15.1717 38.5373 12.8948C38.4519 12.727 38.3523 12.5667 38.2792 12.3926C38.2037 12.213 38.1568 11.9875 38.3321 11.8704C38.5553 11.7214 38.7403 11.8895 38.8285 12.1033C39.5972 13.971 41.0593 15.2187 42.2406 16.7166C42.3305 16.8303 42.4449 16.9216 42.5478 17.0234Z" fill="black"/>
<path fill-rule="evenodd" clip-rule="evenodd" d="M62.0294 63.2497C61.7387 62.6579 61.5065 62.0181 61.1423 61.4873C60.7176 60.8678 60.7251 60.3194 61.1181 59.7383C61.3521 59.3929 61.7014 59.5837 61.9277 59.6902C62.5102 59.9646 62.881 60.4955 62.9399 61.2018C62.9538 61.3706 62.7913 61.5708 63.0446 61.645C64.2827 62.0054 64.6507 63.3899 65.5169 64.1931C65.7823 64.4395 65.9993 64.817 66.2606 65.1147C67.0235 65.984 67.8916 66.7668 67.9286 68.1446C67.9372 68.4656 68.0645 69.0078 68.5151 68.9683C69.8894 68.8474 70.4919 70.0584 71.2886 70.8793C72.5976 72.2284 73.723 73.7825 75.0854 75.0771C75.2389 75.2232 75.4758 75.3552 75.3486 75.6076C75.1894 75.9229 75.0255 75.3948 74.8073 75.582C74.9088 76.0631 75.3703 76.595 74.5761 76.9906C74.2926 77.1317 74.6101 77.5549 74.82 77.7781C74.9795 77.9479 75.1252 78.1257 74.9243 78.3436C74.6811 78.6071 74.5726 78.2864 74.4396 78.1589C72.0149 75.8346 69.8722 73.2143 67.7852 70.5351C65.9472 68.1757 64.1087 65.8165 62.2711 63.4576C62.191 63.3889 62.1103 63.3194 62.0294 63.2497Z" fill="black"/>
<path fill-rule="evenodd" clip-rule="evenodd" d="M56.1301 43.9048C54.917 42.4329 53.7078 40.9536 52.592 39.3844C53.1721 40.9707 54.878 43.1789 56.1301 43.9048ZM58.8548 42.5234C58.8618 42.8725 58.0379 41.7454 58.4522 42.813C58.4633 42.8415 58.4778 42.8957 58.4677 42.9041C57.9143 43.3647 57.8124 43.8835 58.1852 44.5636C58.283 44.7421 56.9119 45.5003 56.5794 45.4275C56.0774 45.3173 55.6437 45.043 55.2699 44.6778C53.1586 42.6159 51.5935 40.1283 50.5367 37.2561C50.0188 35.8492 50.4063 34.6468 51.3041 33.5971C51.7863 33.0334 52.172 33.1502 52.5196 33.839C52.8852 34.5639 53.2881 35.2698 53.7198 35.9496C54.2179 36.734 54.8026 37.4401 55.2549 38.2753C55.8486 39.3722 56.9161 40.0038 57.7177 40.9101C58.16 41.4111 58.6202 41.8729 58.8548 42.5234Z" fill="black"/>
<path fill-rule="evenodd" clip-rule="evenodd" d="M66.9801 15.6812C67.3724 15.9433 67.6083 16.1011 67.9681 16.3416C67.8718 16.0895 67.8583 15.949 67.7875 15.8871C67.2149 15.3849 67.5224 14.8619 67.8424 14.4729C68.1847 14.0563 68.7224 14.0801 69.1126 14.4018C69.7493 14.9265 70.3671 15.4985 70.9114 16.1348C71.6624 17.0127 72.3636 17.9621 73.2453 18.669C74.1661 19.4075 75.0103 20.3378 76.2847 20.4209C76.8862 20.4598 77.0936 21.081 76.7207 21.584C76.5177 21.8571 76.4639 22.1406 76.4029 22.4517C76.0165 24.4233 74.514 25.0583 73.006 23.8047C70.8805 22.0377 69.2837 19.725 67.7595 17.3574C67.4682 16.9048 67.0271 16.5223 66.9801 15.6812Z" fill="black"/>
<path fill-rule="evenodd" clip-rule="evenodd" d="M86.9213 97.5612C87.5553 97.7601 88.0087 97.2613 88.537 97.3294C88.4338 98.2228 87.8752 98.6407 86.9524 98.5715C85.95 98.4961 85.1524 97.9112 84.5172 97.1792C83.1659 95.6218 81.6776 94.216 80.6514 92.2938C80.25 91.5418 79.4666 90.8731 78.9468 90.1035C77.464 87.9099 76.0506 85.6595 74.6174 83.4258C74.3295 82.9772 74.1162 82.4827 73.988 81.9468C73.9223 81.6725 73.9515 81.4298 74.1677 81.256C74.4001 81.0694 74.6164 81.1612 74.7988 81.3572C75.0703 81.6487 75.3645 81.9253 75.5902 82.2561C77.6775 85.3187 79.7069 88.4307 81.8535 91.4418C82.6899 92.6149 83.7289 93.6442 84.8728 94.4795C85.4013 94.8653 86.0951 94.8224 86.7239 94.9292C86.8952 94.9587 87.1839 94.7703 87.2297 95.1301C87.3184 95.8213 87.4288 96.411 88.2987 96.0817C88.4965 96.0067 88.5162 96.3151 88.4723 96.5128C88.394 96.8662 88.2903 97.2689 87.8825 97.1934C87.5085 97.1237 87.2675 97.2961 86.9213 97.5612Z" fill="black"/>
<path fill-rule="evenodd" clip-rule="evenodd" d="M47.1152 69.9077C46.936 70.0707 46.8835 70.1763 47.0569 70.3216C47.6889 70.8508 48.3638 71.3355 48.9213 71.9477C49.2581 72.3179 50.0935 72.5052 49.6172 73.4034C49.5415 73.5462 49.7261 73.5667 49.8432 73.5263C50.117 73.4318 50.2638 73.5836 50.4174 73.8184C50.679 74.2189 51.0307 74.4115 51.5096 74.4683C52.3941 74.5725 52.6496 75.3425 52.0932 76.0924C52.0261 76.1823 51.8401 76.3224 51.8965 76.3489C53.2269 76.9735 51.1915 77.2568 51.7797 77.7897C51.5273 77.9855 51.2555 78.0325 50.9484 77.973C50.2447 77.8365 49.7384 77.3567 49.2528 76.8386C47.4132 74.8757 46.1503 72.4675 44.9454 70.0243C44.6548 69.4358 44.8056 68.7223 44.791 68.066C44.7824 67.6809 45.1033 67.5496 45.3939 67.4902C45.7922 67.4088 45.7792 67.6236 45.6076 67.9129C46.2308 68.1413 46.5583 68.7248 46.9481 69.2393C47.1198 69.4659 47.3499 69.6476 47.1152 69.9077Z" fill="black"/>
<path fill-rule="evenodd" clip-rule="evenodd" d="M29.8504 28.7773C29.7799 28.8388 29.7095 28.8999 29.6391 28.961C30.167 29.588 30.6913 30.2184 31.2276 30.8365C31.2903 30.9085 31.4014 31.0461 31.5194 30.9216C31.6014 30.8349 31.6609 30.6624 31.5504 30.5921C30.8455 30.1452 30.5534 29.2211 29.8504 28.7773ZM36.7696 34.2895C37.0615 34.667 37.7214 34.653 37.5614 35.525C37.4459 36.1554 37.2003 35.9632 36.9096 35.8781C36.8231 36.4238 37.4522 36.3803 37.4514 36.886C36.6233 36.8508 35.9531 36.3151 35.1937 36.1329C35.173 36.1206 35.1496 36.1096 35.1239 36.0995C34.7678 35.2853 34.0304 34.9048 33.4544 34.3422C33.2163 34.11 32.9011 33.9604 32.6973 33.7013C31.0574 31.6159 29.1895 29.762 27.6401 27.5796C26.4258 25.8691 25.0777 24.2741 23.9401 22.4942C23.6787 22.0849 23.3761 21.7021 23.1852 20.9328C23.9069 21.6953 24.4558 22.2757 25.0048 22.8557C24.9816 22.8386 24.9574 22.8223 24.9322 22.8068C25.4235 24.0545 26.4676 24.8109 27.1082 25.944C27.4141 25.7111 27.1938 25.5494 27.2017 25.3966C27.2157 25.1351 27.3947 25.0237 27.6124 24.985C27.719 24.9658 27.8824 24.9129 27.8807 25.0911C27.8733 25.8813 28.4754 25.8684 28.9134 26.0203C29.3975 26.1883 29.5953 26.5598 29.7116 27.0445C29.8906 27.7912 30.2747 28.3169 31.0056 28.4574C31.131 28.616 31.2568 28.7745 31.3821 28.9331C31.5256 29.734 32.8188 31.1994 33.4872 31.319C33.4076 31.7285 34.0661 32.093 33.5495 32.5303C33.0974 32.572 32.8796 32.607 33.2897 33.181C33.8072 33.9063 34.7108 34.0799 35.1325 34.8951C35.1949 35.0161 35.3231 35.0469 35.4285 34.937C35.5656 34.7943 35.5345 34.6152 35.388 34.5443C34.7552 34.2364 34.4321 33.521 33.8464 33.161C33.5995 33.0087 33.3866 32.8621 33.5318 32.4972C34.8124 32.6262 35.396 33.9065 36.3545 34.5684C36.4815 34.656 35.9694 35.1162 36.4858 35.0465C36.7378 35.0127 36.9433 34.6663 36.7696 34.2895Z" fill="black"/>
<path fill-rule="evenodd" clip-rule="evenodd" d="M87.7429 32.903C88.1725 33.2326 88.6381 33.2121 89.0915 33.1664C89.3301 33.1423 89.511 33.1243 89.5314 33.4363C89.5502 33.721 89.3442 33.8321 89.1404 33.8712C88.6213 33.9713 88.1209 33.7615 87.7151 33.4921C86.1655 32.4644 84.9518 31.0352 83.9235 29.4102C83.6187 28.9281 83.3675 28.389 83 27.9735C82.3319 27.2184 82.3218 26.2645 82.2769 25.3448C82.2558 24.9152 82.7571 24.9815 83.0367 24.9768C83.1967 24.9743 83.4559 25.1793 83.5071 25.3503C84.0016 27.0024 85.5073 27.6877 86.3969 28.9714C86.6901 29.3944 87.4754 29.4708 87.8672 30.0212C88.1769 30.456 88.6196 30.7714 88.659 31.4221C88.6814 31.7974 89.1485 31.6556 89.3504 31.8815C89.4542 31.9975 89.5904 32.09 89.5689 32.2656C89.5475 32.4406 89.3639 32.6151 89.2727 32.5557C88.6607 32.1559 88.2824 32.9644 87.7429 32.903Z" fill="black"/>
<path fill-rule="evenodd" clip-rule="evenodd" d="M62.0298 63.2491C62.1107 63.3187 62.1913 63.3883 62.2715 63.457C62.9615 64.9832 63.9138 66.3308 64.8676 67.6473C66.1797 69.4584 67.6149 71.1692 69.0763 72.8401C70.3131 74.2541 71.3344 75.8942 72.8108 77.0651C73.4102 77.5403 73.9063 78.1822 74.1647 79.124C73.1134 79.0188 72.6411 78.1271 72.0317 77.5139C70.4255 75.8984 69.044 74.0482 67.6509 72.2184C65.1379 68.9172 62.4844 65.73 60.528 61.9615C60.4162 61.7459 60.2383 61.5476 60.4526 61.1711C61.2 61.6778 61.4177 62.6589 62.0298 63.2491Z" fill="black"/>
<path fill-rule="evenodd" clip-rule="evenodd" d="M59.0063 23.582C59.1616 24.0206 59.9282 23.7831 59.6836 24.3128C59.4748 24.7643 58.9852 24.435 58.6771 24.2157C56.7696 22.8553 55.5822 20.9305 55.0892 18.504C55.0145 18.1364 54.8945 17.5997 55.4017 17.4293C55.8516 17.2776 55.9858 17.7562 56.1698 18.0609C56.9423 19.3384 57.7483 20.5718 59.0829 21.2266C59.4182 21.3909 59.4684 21.7398 59.5094 22.0923C59.5238 22.2154 59.5642 22.3469 59.6264 22.4496C60.1189 23.261 60.0723 23.7503 59.0063 23.582Z" fill="black"/>
<path fill-rule="evenodd" clip-rule="evenodd" d="M27.5613 28.5909C28.577 28.9996 28.9131 30.1451 29.5937 30.9143C30.0978 31.484 30.7003 32.0049 31.0234 32.7735C31.1038 32.9648 31.3498 33.1043 31.1546 33.3235C30.999 33.4979 30.7755 33.4769 30.6088 33.2793C29.6066 32.0898 28.5841 30.9189 27.7232 29.5967C27.52 29.2846 27.6178 28.9153 27.5884 28.5702L27.5613 28.5909Z" fill="black"/>
<path fill-rule="evenodd" clip-rule="evenodd" d="M27.5892 28.5697C27.3303 28.6186 27.0829 28.6912 26.8718 28.4016C25.6743 26.7607 24.4532 25.1396 23.4402 23.3478C23.3617 23.2092 23.128 23.0766 23.3428 22.8786C23.4791 22.7532 23.6222 22.8364 23.7184 22.978C24.9554 24.8023 26.2291 26.594 27.5811 28.3182C27.6191 28.3668 27.5704 28.4977 27.5621 28.5903L27.5892 28.5697Z" fill="black"/>
<path fill-rule="evenodd" clip-rule="evenodd" d="M35.1216 36.0999C35.1473 36.1096 35.171 36.121 35.1918 36.133C35.5311 36.4092 35.7506 36.859 36.2116 36.9615C36.3758 36.9981 36.6111 37.042 36.524 37.3058C36.4461 37.5415 36.2497 37.4489 36.0809 37.3765C34.5798 36.7322 33.2739 35.7297 32.0059 34.6675C31.7884 34.485 31.6048 34.0843 31.8023 33.8258C32.0361 33.5196 32.2866 33.8765 32.441 34.0547C33.209 34.9413 34.1692 35.5116 35.1216 36.0999Z" fill="black"/>
<path fill-rule="evenodd" clip-rule="evenodd" d="M24.9309 22.8063C24.9559 22.8217 24.98 22.838 25.0032 22.8554C24.7347 22.3546 24.794 21.638 24.1378 21.3738C24.0294 21.3302 23.6991 20.9007 24.026 20.6608C24.3368 20.4326 24.5105 20.8249 24.6171 21.0411C25.0995 22.0187 25.7084 22.8611 26.6424 23.5154C26.2506 23.7212 25.9333 24.1074 25.6917 23.398C25.5618 23.0168 25.1634 23.0369 24.9309 22.8063Z" fill="black"/>
<path fill-rule="evenodd" clip-rule="evenodd" d="M31.3815 28.9329C31.2561 28.7742 31.1304 28.6155 31.0049 28.4571C30.9404 28.2918 30.8761 28.1265 30.8114 27.9615C30.8534 27.9221 30.8953 27.8834 30.9373 27.8444C31.3712 28.3084 31.8047 28.7727 32.2386 29.2367C32.2023 29.2979 32.1656 29.359 32.129 29.4202C31.8801 29.2578 31.6307 29.0953 31.3815 28.9329Z" fill="black"/>
<path fill-rule="evenodd" clip-rule="evenodd" d="M36.4168 33.7973C35.7861 33.8078 35.5116 33.2248 35.1197 32.8462C34.7354 32.4749 34.3785 32.0691 34.0093 31.678C34.2525 31.6498 34.4424 31.7291 34.6253 31.9274C35.2115 32.5632 35.8181 33.1759 36.4168 33.7973Z" fill="black"/>
</svg>
