<svg width="107" height="110" viewBox="0 0 107 110" fill="none" xmlns="http://www.w3.org/2000/svg">
<path fill-rule="evenodd" clip-rule="evenodd" d="M22.5438 71.1365C17.0737 65.816 12.2556 59.8489 7.65287 53.6866C7.89813 53.2091 8.07914 53.7452 8.30747 53.6164C8.50067 53.3618 7.94153 52.8506 8.60042 52.6438C9.20579 52.4535 9.5481 52.7724 9.89353 53.1334C11.7118 55.0332 13.061 57.4014 15.0356 59.1718C15.7107 59.7776 16.6105 60.2201 16.9799 61.3329C17.2071 62.0178 18.171 62.1556 18.6594 62.8455C18.9654 63.2774 19.4592 63.6127 19.8057 64.095C21.1851 66.0165 22.937 67.4052 25.0244 68.2681C25.4004 68.4234 25.7069 68.7029 25.6228 69.0993C25.394 70.1803 25.5386 71.3634 24.428 72.1623C23.6216 72.7422 23.0426 72.6479 22.3473 72.2123C20.6725 71.1625 19.3343 69.6636 17.9927 68.1843C16.4236 66.4539 14.9813 64.5887 13.4704 62.8003C11.4384 60.3948 9.59147 57.8277 7.65629 55.3388C7.47241 55.1021 7.04601 54.8017 7.34249 54.4882C7.56556 54.2523 7.86246 54.6573 8.04782 54.8839C9.21658 56.3127 10.3198 57.799 11.4048 59.3082C12.4446 60.7545 13.6506 62.0652 14.844 63.3685C16.7733 65.4749 18.5905 67.7049 20.6242 69.6955C21.204 70.263 21.7935 70.8292 22.5438 71.1365Z" fill="white"/>
<path fill-rule="evenodd" clip-rule="evenodd" d="M48.4642 84.6245C48.7818 85.4153 47.9253 85.6679 47.7244 85.8293C47.1812 86.2661 47.3883 87.2621 46.8531 87.3377C46.0426 87.4519 45.2516 87.9798 44.3454 87.3978C42.5924 86.2725 41.022 84.8866 39.4116 83.5539C38.2443 82.5877 37.0574 81.645 36.0676 80.4442C35.6264 79.9087 35.262 79.3352 35.1507 78.6139C35.0361 77.874 35.1577 77.2898 35.8076 76.8007C36.2884 76.4388 36.6767 75.904 37.2132 75.5958C37.7235 75.3023 38.2319 75.0997 38.6704 75.7518C38.9778 76.2094 39.5057 76.2982 39.9096 76.6019C41.5323 77.8224 43.3978 78.6538 44.7833 80.2535C45.811 81.4399 46.9849 82.4385 48.142 83.4604C48.4734 83.753 48.8844 84.0628 48.4642 84.6245Z" fill="white"/>
<path fill-rule="evenodd" clip-rule="evenodd" d="M34.3197 42.8122C34.5967 43.0576 34.7747 43.2156 34.9468 43.3682C35.1088 43.2948 35.0541 43.1668 35.0528 43.0461C35.0498 42.7983 34.6671 42.601 34.8958 42.3693C35.1725 42.0889 35.2992 42.5914 35.5357 42.633C35.7042 42.2867 35.3124 42.0662 35.3744 41.7616C36.1427 41.4872 36.6097 41.8872 37.0905 42.4945C38.3971 44.1447 39.8235 45.6615 41.4897 46.8903C42.1189 47.3542 42.2195 48.4275 43.0189 48.6827C44.033 49.0066 44.7909 49.7893 45.3767 50.5908C46.3886 51.975 47.8174 52.6274 49.039 53.6334C49.3827 53.9164 49.9139 53.8232 50.1276 54.3336C50.1966 54.4984 50.3772 54.7786 50.1599 54.809C49.4169 54.9141 49.5957 55.5973 49.3658 56.0517C48.9389 56.8951 48.0877 56.8355 47.3557 56.7149C46.2021 56.5246 45.2058 55.8516 44.3295 55.0594C40.974 52.027 37.8498 48.7291 35.1385 44.9885C34.7254 44.4187 34.1704 43.8534 34.3197 42.8122Z" fill="white"/>
<path fill-rule="evenodd" clip-rule="evenodd" d="M26.7964 47.8374C27.34 48.2218 27.9131 48.6072 28.4678 49.0227C31.9848 51.6554 35.2117 54.6778 38.3354 57.8423C39.5328 59.0554 40.6441 60.3746 41.9827 61.4198C42.3663 61.719 42.6262 62.1303 42.0369 62.5547C41.8978 62.6547 41.8019 62.8355 41.7033 62.9929C41.0479 64.0398 40.1298 64.2541 39.1221 63.5689C38.0882 62.8664 37.2712 61.8891 36.4465 60.9323C32.9585 56.8844 29.351 52.9808 25.2881 49.616C24.7732 49.1894 24.7919 49.1153 25.3416 48.7945C25.4013 48.7596 25.4601 48.6705 25.4716 48.5976C25.6083 47.7379 26.1877 47.8265 26.7964 47.8374Z" fill="white"/>
<path fill-rule="evenodd" clip-rule="evenodd" d="M52.745 92.0889C54.2811 93.3646 55.2935 95.0094 56.6756 96.201C58.0727 97.4053 59.3748 98.7491 60.9455 99.7091C59.7599 98.6381 58.5715 97.5704 57.3886 96.4954C56.0316 95.2613 54.8353 93.8508 53.6215 92.453C53.0125 91.7516 53.1833 91.2152 53.718 90.7843C54.2405 90.3638 54.9273 90.4466 55.2638 91.0863C55.9495 92.3896 57.005 93.3196 58.0888 94.0408C59.9764 95.2966 61.5933 97.004 63.6467 97.9791C64.12 98.2038 64.4446 98.7185 64.9738 98.9604C65.5693 99.2323 66.0896 99.4231 66.7471 99.2562C67.129 99.1598 67.6861 98.8085 67.9549 99.3451C68.175 99.784 68.2741 100.361 67.8538 100.861C67.6935 101.052 67.684 101.397 67.6075 101.672C67.1613 103.28 65.9637 103.955 64.5311 103.274C62.6099 102.361 60.9402 100.986 59.3052 99.5724C57.1626 97.7195 55.0911 95.7809 53.347 93.4582C53.0897 93.1155 52.7892 92.8033 52.745 92.0889Z" fill="white"/>
<path fill-rule="evenodd" clip-rule="evenodd" d="M82.4151 53.3809C81.8744 55.5779 80.8357 55.9823 79.3565 54.7502C78.1998 53.7867 77.3709 52.4827 76.5318 51.2124C74.5736 48.2472 72.7093 45.212 70.9998 42.0617C70.5815 41.2912 70.5582 40.4981 70.5321 39.6834C70.5233 39.399 70.5223 38.7707 70.7255 38.8543C71.1408 39.0263 71.6432 38.6703 71.9966 39.2277C73.574 41.7166 75.3449 44.0446 77.0579 46.4208C77.8133 47.4683 78.4947 48.5822 79.2745 49.6065C79.8021 50.2991 80.3793 51.0184 81.3786 50.7671C81.4979 50.7369 81.7644 50.849 81.7674 50.9079C81.8193 51.8535 82.5336 52.6259 82.4151 53.3809Z" fill="white"/>
<path fill-rule="evenodd" clip-rule="evenodd" d="M42.5478 17.5732C41.6679 16.1045 40.434 14.9889 39.5574 13.538C39.2994 13.1107 39.1018 12.6315 38.8035 12.2433C38.3105 11.6023 38.8886 11.262 39.1542 11.0121C39.4117 10.7694 39.8755 10.7565 40.2044 11.1948C41.5474 12.9845 43.1099 14.5658 44.7453 15.9889C45.9114 17.0031 46.8127 18.3827 48.2945 19.0511C48.8554 19.3044 49.4196 19.9373 50.0111 20.3703C50.8021 20.9492 49.9199 21.4011 49.7631 21.9039C49.7384 21.9832 49.5045 21.991 49.4877 22.0654C49.4147 22.3818 50.1008 22.7824 49.5032 23.0025C48.6922 23.3011 47.912 23.645 46.9795 22.9952C45.4996 21.9631 44.2507 20.679 43.0487 19.3222C41.419 17.4826 39.6969 15.7215 38.5373 13.4446C38.4519 13.2768 38.3523 13.1165 38.2792 12.9424C38.2037 12.7628 38.1568 12.5373 38.3321 12.4202C38.5553 12.2712 38.7403 12.4393 38.8285 12.6531C39.5972 14.5208 41.0593 15.7685 42.2406 17.2664C42.3305 17.3801 42.4449 17.4714 42.5478 17.5732Z" fill="white"/>
<path fill-rule="evenodd" clip-rule="evenodd" d="M62.0294 63.7995C61.7387 63.2077 61.5065 62.5679 61.1423 62.0371C60.7176 61.4177 60.7251 60.8692 61.1181 60.2881C61.3521 59.9427 61.7014 60.1335 61.9277 60.24C62.5102 60.5144 62.881 61.0453 62.9399 61.7516C62.9538 61.9204 62.7913 62.1206 63.0446 62.1948C64.2827 62.5552 64.6507 63.9397 65.5169 64.7429C65.7823 64.9893 65.9993 65.3668 66.2606 65.6645C67.0235 66.5338 67.8916 67.3166 67.9286 68.6944C67.9372 69.0154 68.0645 69.5576 68.5151 69.5181C69.8894 69.3972 70.4919 70.6082 71.2886 71.4292C72.5976 72.7782 73.723 74.3323 75.0854 75.6269C75.2389 75.773 75.4758 75.905 75.3486 76.1574C75.1894 76.4727 75.0255 75.9446 74.8073 76.1318C74.9088 76.6129 75.3703 77.1448 74.5761 77.5404C74.2926 77.6815 74.6101 78.1047 74.82 78.3279C74.9795 78.4977 75.1252 78.6755 74.9243 78.8934C74.6811 79.1569 74.5726 78.8362 74.4396 78.7087C72.0149 76.3844 69.8722 73.7641 67.7852 71.0849C65.9472 68.7255 64.1087 66.3663 62.2711 64.0074C62.191 63.9387 62.1103 63.8692 62.0294 63.7995Z" fill="white"/>
<path fill-rule="evenodd" clip-rule="evenodd" d="M56.1301 44.4546C54.917 42.9827 53.7078 41.5034 52.592 39.9342C53.1721 41.5205 54.878 43.7287 56.1301 44.4546ZM58.8548 43.0732C58.8618 43.4223 58.0379 42.2952 58.4522 43.3628C58.4633 43.3913 58.4778 43.4455 58.4677 43.4539C57.9143 43.9145 57.8124 44.4333 58.1852 45.1134C58.283 45.2919 56.9119 46.0502 56.5794 45.9773C56.0774 45.8671 55.6437 45.5928 55.2699 45.2276C53.1586 43.1657 51.5935 40.6781 50.5367 37.806C50.0188 36.399 50.4063 35.1966 51.3041 34.1469C51.7863 33.5832 52.172 33.7 52.5196 34.3888C52.8852 35.1137 53.2881 35.8196 53.7198 36.4994C54.2179 37.2838 54.8026 37.9899 55.2549 38.8251C55.8486 39.922 56.9161 40.5536 57.7177 41.4599C58.16 41.9609 58.6202 42.4227 58.8548 43.0732Z" fill="white"/>
<path fill-rule="evenodd" clip-rule="evenodd" d="M66.9801 16.231C67.3724 16.4931 67.6083 16.6509 67.9681 16.8914C67.8718 16.6393 67.8583 16.4989 67.7875 16.4369C67.2149 15.9347 67.5224 15.4117 67.8424 15.0227C68.1847 14.6061 68.7224 14.6299 69.1126 14.9516C69.7493 15.4763 70.3671 16.0483 70.9114 16.6846C71.6624 17.5625 72.3636 18.5119 73.2453 19.2188C74.1661 19.9573 75.0103 20.8876 76.2847 20.9707C76.8862 21.0096 77.0936 21.6308 76.7207 22.1338C76.5177 22.4069 76.4639 22.6904 76.4029 23.0015C76.0165 24.9732 74.514 25.6081 73.006 24.3545C70.8805 22.5875 69.2837 20.2748 67.7595 17.9072C67.4682 17.4546 67.0271 17.0721 66.9801 16.231Z" fill="white"/>
<path fill-rule="evenodd" clip-rule="evenodd" d="M86.9213 98.111C87.5553 98.3099 88.0087 97.8111 88.537 97.8792C88.4338 98.7726 87.8752 99.1905 86.9524 99.1213C85.95 99.0459 85.1524 98.461 84.5172 97.729C83.1659 96.1716 81.6776 94.7658 80.6514 92.8436C80.25 92.0917 79.4666 91.4229 78.9468 90.6533C77.464 88.4597 76.0506 86.2093 74.6174 83.9756C74.3295 83.527 74.1162 83.0325 73.988 82.4966C73.9223 82.2223 73.9515 81.9796 74.1677 81.8058C74.4001 81.6192 74.6164 81.711 74.7988 81.907C75.0703 82.1985 75.3645 82.4751 75.5902 82.8059C77.6775 85.8685 79.7069 88.9805 81.8535 91.9916C82.6899 93.1647 83.7289 94.194 84.8728 95.0293C85.4013 95.4151 86.0951 95.3723 86.7239 95.479C86.8952 95.5085 87.1839 95.3201 87.2297 95.6799C87.3184 96.3711 87.4288 96.9608 88.2987 96.6315C88.4965 96.5565 88.5162 96.8649 88.4723 97.0626C88.394 97.416 88.2903 97.8187 87.8825 97.7432C87.5085 97.6736 87.2675 97.8459 86.9213 98.111Z" fill="white"/>
<path fill-rule="evenodd" clip-rule="evenodd" d="M47.1152 70.4575C46.936 70.6205 46.8835 70.7261 47.0569 70.8714C47.6889 71.4006 48.3638 71.8853 48.9213 72.4975C49.2581 72.8677 50.0935 73.055 49.6172 73.9532C49.5415 74.096 49.7261 74.1165 49.8432 74.0761C50.117 73.9817 50.2638 74.1334 50.4174 74.3682C50.679 74.7687 51.0307 74.9613 51.5096 75.0181C52.3941 75.1223 52.6496 75.8923 52.0932 76.6422C52.0261 76.7321 51.8401 76.8722 51.8965 76.8987C53.2269 77.5233 51.1915 77.8066 51.7797 78.3395C51.5273 78.5353 51.2555 78.5823 50.9484 78.5228C50.2447 78.3863 49.7384 77.9065 49.2528 77.3884C47.4132 75.4255 46.1503 73.0173 44.9454 70.5741C44.6548 69.9856 44.8056 69.2721 44.791 68.6159C44.7824 68.2307 45.1033 68.0994 45.3939 68.04C45.7922 67.9586 45.7792 68.1735 45.6076 68.4627C46.2308 68.6911 46.5583 69.2746 46.9481 69.7891C47.1198 70.0157 47.3499 70.1974 47.1152 70.4575Z" fill="white"/>
<path fill-rule="evenodd" clip-rule="evenodd" d="M29.8504 29.3272C29.7799 29.3886 29.7095 29.4497 29.6391 29.5108C30.167 30.1378 30.6913 30.7682 31.2276 31.3863C31.2903 31.4583 31.4014 31.5959 31.5194 31.4714C31.6014 31.3847 31.6609 31.2122 31.5504 31.1419C30.8455 30.6951 30.5534 29.7709 29.8504 29.3272ZM36.7696 34.8393C37.0615 35.2168 37.7214 35.2028 37.5614 36.0748C37.4459 36.7052 37.2003 36.513 36.9096 36.4279C36.8231 36.9737 37.4522 36.9301 37.4514 37.4358C36.6233 37.4006 35.9531 36.8649 35.1937 36.6827C35.173 36.6704 35.1496 36.6594 35.1239 36.6493C34.7678 35.8351 34.0304 35.4546 33.4544 34.892C33.2163 34.6598 32.9011 34.5103 32.6973 34.2511C31.0574 32.1657 29.1895 30.3118 27.6401 28.1294C26.4258 26.4189 25.0777 24.8239 23.9401 23.044C23.6787 22.6347 23.3761 22.2519 23.1852 21.4826C23.9069 22.2451 24.4558 22.8255 25.0048 23.4055C24.9816 23.3884 24.9574 23.3721 24.9322 23.3566C25.4235 24.6043 26.4676 25.3607 27.1082 26.4938C27.4141 26.2609 27.1938 26.0993 27.2017 25.9464C27.2157 25.6849 27.3947 25.5735 27.6124 25.5348C27.719 25.5156 27.8824 25.4627 27.8807 25.6409C27.8733 26.4311 28.4754 26.4182 28.9134 26.5701C29.3975 26.7381 29.5953 27.1096 29.7116 27.5943C29.8906 28.341 30.2747 28.8667 31.0056 29.0072C31.131 29.1658 31.2568 29.3243 31.3821 29.4829C31.5256 30.2838 32.8188 31.7492 33.4872 31.8688C33.4076 32.2783 34.0661 32.6428 33.5495 33.0801C33.0974 33.1218 32.8796 33.1568 33.2897 33.7308C33.8072 34.4561 34.7108 34.6297 35.1325 35.4449C35.1949 35.566 35.3231 35.5967 35.4285 35.4868C35.5656 35.3441 35.5345 35.165 35.388 35.0941C34.7552 34.7862 34.4321 34.0708 33.8464 33.7108C33.5995 33.5585 33.3866 33.4119 33.5318 33.047C34.8124 33.176 35.396 34.4563 36.3545 35.1182C36.4815 35.2058 35.9694 35.666 36.4858 35.5963C36.7378 35.5625 36.9433 35.2162 36.7696 34.8393Z" fill="white"/>
<path fill-rule="evenodd" clip-rule="evenodd" d="M87.7429 33.4528C88.1725 33.7824 88.6381 33.7619 89.0915 33.7162C89.3301 33.6921 89.511 33.6741 89.5314 33.9861C89.5502 34.2708 89.3442 34.3819 89.1404 34.421C88.6213 34.5211 88.1209 34.3113 87.7151 34.0419C86.1655 33.0143 84.9518 31.585 83.9235 29.9601C83.6187 29.4779 83.3675 28.9388 83 28.5233C82.3319 27.7682 82.3218 26.8143 82.2769 25.8946C82.2558 25.465 82.7571 25.5313 83.0367 25.5266C83.1967 25.5241 83.4559 25.7291 83.5071 25.9001C84.0016 27.5522 85.5073 28.2375 86.3969 29.5212C86.6901 29.9442 87.4754 30.0206 87.8672 30.571C88.1769 31.0058 88.6196 31.3212 88.659 31.9719C88.6814 32.3472 89.1485 32.2054 89.3504 32.4313C89.4542 32.5473 89.5904 32.6398 89.5689 32.8154C89.5475 32.9904 89.3639 33.1649 89.2727 33.1055C88.6607 32.7057 88.2824 33.5142 87.7429 33.4528Z" fill="white"/>
<path fill-rule="evenodd" clip-rule="evenodd" d="M62.0298 63.7989C62.1107 63.8685 62.1913 63.9381 62.2715 64.0068C62.9615 65.533 63.9138 66.8806 64.8676 68.1971C66.1797 70.0082 67.6149 71.7191 69.0763 73.3899C70.3131 74.8039 71.3344 76.444 72.8108 77.6149C73.4102 78.0901 73.9063 78.732 74.1647 79.6738C73.1134 79.5686 72.6411 78.6769 72.0317 78.0637C70.4255 76.4482 69.044 74.598 67.6509 72.7682C65.1379 69.4671 62.4844 66.2798 60.528 62.5113C60.4162 62.2957 60.2383 62.0974 60.4526 61.7209C61.2 62.2276 61.4177 63.2088 62.0298 63.7989Z" fill="white"/>
<path fill-rule="evenodd" clip-rule="evenodd" d="M59.0063 24.1318C59.1616 24.5704 59.9282 24.3329 59.6836 24.8626C59.4748 25.3141 58.9852 24.9848 58.6771 24.7655C56.7696 23.4051 55.5822 21.4803 55.0892 19.0538C55.0145 18.6862 54.8945 18.1495 55.4017 17.9791C55.8516 17.8274 55.9858 18.306 56.1698 18.6107C56.9423 19.8882 57.7483 21.1216 59.0829 21.7764C59.4182 21.9407 59.4684 22.2896 59.5094 22.6421C59.5238 22.7652 59.5642 22.8967 59.6264 22.9994C60.1189 23.8108 60.0723 24.3001 59.0063 24.1318Z" fill="white"/>
<path fill-rule="evenodd" clip-rule="evenodd" d="M27.5613 29.1407C28.577 29.5494 28.9131 30.6949 29.5937 31.4641C30.0978 32.0338 30.7003 32.5547 31.0234 33.3233C31.1038 33.5146 31.3498 33.6541 31.1546 33.8733C30.999 34.0477 30.7755 34.0267 30.6088 33.8291C29.6066 32.6396 28.5841 31.4687 27.7232 30.1465C27.52 29.8344 27.6178 29.4651 27.5884 29.12L27.5613 29.1407Z" fill="white"/>
<path fill-rule="evenodd" clip-rule="evenodd" d="M27.5892 29.1195C27.3303 29.1684 27.0829 29.241 26.8718 28.9514C25.6743 27.3105 24.4532 25.6894 23.4402 23.8976C23.3617 23.759 23.128 23.6264 23.3428 23.4284C23.4791 23.303 23.6222 23.3862 23.7184 23.5278C24.9554 25.3521 26.2291 27.1438 27.5811 28.868C27.6191 28.9166 27.5704 29.0475 27.5621 29.1401L27.5892 29.1195Z" fill="white"/>
<path fill-rule="evenodd" clip-rule="evenodd" d="M35.1216 36.6497C35.1473 36.6594 35.171 36.6708 35.1918 36.6828C35.5311 36.959 35.7506 37.4088 36.2116 37.5113C36.3758 37.5479 36.6111 37.5918 36.524 37.8556C36.4461 38.0913 36.2497 37.9987 36.0809 37.9263C34.5798 37.282 33.2739 36.2795 32.0059 35.2173C31.7884 35.0348 31.6048 34.6341 31.8023 34.3756C32.0361 34.0694 32.2866 34.4263 32.441 34.6045C33.209 35.4911 34.1692 36.0614 35.1216 36.6497Z" fill="white"/>
<path fill-rule="evenodd" clip-rule="evenodd" d="M24.9309 23.3561C24.9559 23.3715 24.98 23.3878 25.0032 23.4052C24.7347 22.9044 24.794 22.1878 24.1378 21.9236C24.0294 21.88 23.6991 21.4505 24.026 21.2106C24.3368 20.9824 24.5105 21.3747 24.6171 21.591C25.0995 22.5685 25.7084 23.4109 26.6424 24.0652C26.2506 24.271 25.9333 24.6572 25.6917 23.9478C25.5618 23.5666 25.1634 23.5867 24.9309 23.3561Z" fill="white"/>
<path fill-rule="evenodd" clip-rule="evenodd" d="M31.3815 29.4827C31.2561 29.324 31.1304 29.1653 31.0049 29.0069C30.9404 28.8416 30.8761 28.6763 30.8114 28.5113C30.8534 28.4719 30.8953 28.4332 30.9373 28.3942C31.3712 28.8582 31.8047 29.3225 32.2386 29.7865C32.2023 29.8477 32.1656 29.9088 32.129 29.97C31.8801 29.8076 31.6307 29.6451 31.3815 29.4827Z" fill="white"/>
<path fill-rule="evenodd" clip-rule="evenodd" d="M36.4168 34.3471C35.7861 34.3576 35.5116 33.7746 35.1197 33.396C34.7354 33.0247 34.3785 32.6189 34.0093 32.2279C34.2525 32.1996 34.4424 32.2789 34.6253 32.4772C35.2115 33.113 35.8181 33.7257 36.4168 34.3471Z" fill="white"/>
</svg>
