<svg width="217" height="217" viewBox="0 0 217 217" fill="none" xmlns="http://www.w3.org/2000/svg">
<path d="M105.063 3.25408C106.991 1.42879 110.009 1.42878 111.937 3.25408L116.44 7.51667C118.071 9.06015 120.53 9.32762 122.454 8.17072L127.768 4.97573C130.043 3.6076 132.991 4.25649 134.482 6.45361L137.963 11.5845C139.223 13.4424 141.568 14.2323 143.696 13.5161L149.572 11.5381C152.088 10.6911 154.828 11.9585 155.811 14.4247L158.108 20.184C158.94 22.2694 161.059 23.5448 163.291 23.3027L169.456 22.6342C172.095 22.348 174.498 24.1747 174.929 26.7947L175.934 32.913C176.297 35.1285 178.093 36.8297 180.325 37.0731L186.489 37.7454C189.129 38.0333 191.083 40.3339 190.94 42.9851L190.606 49.1764C190.485 51.4183 191.873 53.4659 194.001 54.1834L199.876 56.1649C202.392 57.0135 203.806 59.6804 203.096 62.2389L201.439 68.2137C200.839 70.3772 201.755 72.6753 203.678 73.8334L208.99 77.0316C211.265 78.4012 212.072 81.3097 210.829 83.6558L207.927 89.1348C206.876 91.1187 207.276 93.5599 208.905 95.1044L213.405 99.3698C215.332 101.196 215.496 104.21 213.778 106.234L209.765 110.961C208.312 112.673 208.178 115.143 209.438 117.002L212.916 122.135C214.405 124.333 213.917 127.312 211.803 128.919L206.868 132.673C205.082 134.032 204.42 136.416 205.25 138.502L207.543 144.262C208.525 146.729 207.408 149.533 204.999 150.649L199.372 153.254C197.335 154.197 196.176 156.383 196.539 158.599L197.54 164.718C197.969 167.338 196.275 169.836 193.682 170.408L187.627 171.742C185.434 172.226 183.833 174.111 183.711 176.353L183.373 182.544C183.229 185.195 181.037 187.271 178.382 187.272L172.182 187.274C169.937 187.275 167.967 188.772 167.366 190.935L165.705 196.909C164.994 199.467 162.408 201.023 159.815 200.453L153.759 199.122C151.566 198.64 149.321 199.679 148.269 201.662L145.363 207.139C144.118 209.484 141.258 210.448 138.848 209.334L133.22 206.732C131.182 205.79 128.766 206.322 127.312 208.033L123.296 212.757C121.577 214.78 118.576 215.107 116.462 213.501L111.525 209.75C109.737 208.392 107.263 208.392 105.475 209.75L100.538 213.501C98.424 215.107 95.4231 214.78 93.7037 212.757L89.6882 208.033C88.2342 206.322 85.8182 205.79 83.7803 206.732L78.1523 209.334C75.7423 210.448 72.8817 209.484 71.6374 207.139L68.7314 201.662C67.6792 199.679 65.434 198.64 63.2412 199.122L57.1854 200.453C54.5922 201.023 52.0058 199.467 51.2947 196.909L49.6341 190.935C49.0328 188.772 47.0634 187.275 44.8183 187.274L38.618 187.272C35.9629 187.271 33.7715 185.195 33.6269 182.544L33.2893 176.353C33.1671 174.111 31.5656 172.226 29.3731 171.742L23.3181 170.408C20.7253 169.836 19.0314 167.338 19.4601 164.718L20.4613 158.599C20.8239 156.383 19.6651 154.197 17.6278 153.254L12.0013 150.649C9.59197 149.533 8.47469 146.729 9.45668 144.262L11.7499 138.502C12.5803 136.416 11.9185 134.032 10.1315 132.673L5.19665 128.919C3.08346 127.312 2.59511 124.333 4.08443 122.135L7.56241 117.002C8.82178 115.143 8.68785 112.673 7.23491 110.961L3.22234 106.234C1.50411 104.21 1.66752 101.196 3.59453 99.3698L8.09464 95.1044C9.72413 93.5599 10.1243 91.1187 9.07332 89.1348L6.1707 83.6558C4.92776 81.3097 5.7353 78.4012 8.0099 77.0316L13.3217 73.8334C15.2451 72.6753 16.1608 70.3772 15.5608 68.2137L13.9039 62.2389C13.1943 59.6804 14.6082 57.0135 17.1241 56.1649L22.9992 54.1834C25.1266 53.4659 26.5149 51.4183 26.394 49.1764L26.0602 42.9851C25.9173 40.3339 27.8715 38.0333 30.5109 37.7454L36.6747 37.0731C38.9065 36.8297 40.7025 35.1285 41.0664 32.913L42.0714 26.7947C42.5017 24.1747 44.9048 22.348 47.5444 22.6342L53.7086 23.3027C55.9406 23.5448 58.0603 22.2694 58.892 20.184L61.1887 14.4247C62.1722 11.9585 64.9117 10.6911 67.4281 11.5381L73.3044 13.5161C75.4323 14.2323 77.7766 13.4424 79.0371 11.5845L82.5182 6.4536C84.0089 4.25649 86.9568 3.6076 89.2323 4.97573L94.546 8.17072C96.4702 9.32762 98.9295 9.06015 100.56 7.51668L105.063 3.25408Z" fill="white"/>
<path d="M75 149.362L139.362 85" stroke="black" stroke-width="1.5"/>
<path d="M92.2744 85L139.367 85V127.908" stroke="black" stroke-width="1.5"/>
</svg>
