<svg width="248" height="248" viewBox="0 0 248 248" fill="none" xmlns="http://www.w3.org/2000/svg">
<path d="M120.563 1.80389C122.491 -0.0214133 125.509 -0.0214131 127.437 1.80389L133.666 7.70004C135.296 9.24352 137.755 9.51099 139.68 8.35408L147.03 3.93468C149.305 2.56655 152.253 3.21544 153.744 5.41256L158.559 12.5098C159.819 14.3676 162.164 15.1575 164.292 14.4413L172.42 11.7053C174.936 10.8583 177.676 12.1258 178.659 14.592L181.836 22.5583C182.668 24.6438 184.788 25.9192 187.02 25.6771L195.546 24.7524C198.186 24.4662 200.589 26.2929 201.019 28.9129L202.409 37.3759C202.773 39.5914 204.569 41.2926 206.801 41.5361L215.327 42.4659C217.966 42.7538 219.921 45.0544 219.778 47.7056L219.316 56.2697C219.195 58.5116 220.583 60.5591 222.711 61.2766L230.837 64.0176C233.353 64.8661 234.767 67.5331 234.058 70.0916L231.766 78.3561C231.166 80.5196 232.081 82.8177 234.005 83.9758L241.352 88.3997C243.627 89.7692 244.434 92.6777 243.191 95.0239L239.176 102.603C238.125 104.586 238.526 107.028 240.155 108.572L246.38 114.472C248.307 116.299 248.47 119.313 246.752 121.337L241.202 127.875C239.749 129.587 239.615 132.057 240.874 133.916L245.685 141.016C247.174 143.214 246.686 146.193 244.573 147.8L237.747 152.992C235.96 154.352 235.298 156.735 236.128 158.821L239.3 166.789C240.282 169.256 239.165 172.06 236.756 173.176L228.973 176.78C226.936 177.723 225.777 179.909 226.14 182.124L227.524 190.588C227.953 193.208 226.259 195.707 223.666 196.278L215.291 198.125C213.099 198.608 211.497 200.493 211.375 202.735L210.908 211.299C210.763 213.95 208.572 216.026 205.917 216.027L197.34 216.029C195.095 216.03 193.126 217.527 192.524 219.69L190.227 227.953C189.516 230.511 186.93 232.068 184.337 231.498L175.96 229.657C173.767 229.175 171.522 230.213 170.47 232.197L166.45 239.773C165.206 242.118 162.346 243.082 159.936 241.968L152.151 238.369C150.113 237.427 147.697 237.959 146.243 239.67L140.688 246.205C138.969 248.228 135.968 248.554 133.854 246.948L127.025 241.76C125.237 240.401 122.763 240.401 120.975 241.76L114.146 246.948C112.032 248.554 109.031 248.228 107.312 246.205L101.757 239.67C100.303 237.959 97.8873 237.427 95.8494 238.369L88.0645 241.968C85.6545 243.082 82.794 242.118 81.5496 239.773L77.53 232.197C76.4777 230.213 74.2326 229.175 72.0398 229.657L63.6632 231.498C61.0701 232.068 58.4836 230.511 57.7725 227.953L55.4755 219.69C54.8742 217.527 52.9049 216.03 50.6597 216.029L42.0832 216.027C39.4282 216.026 37.2367 213.95 37.0922 211.299L36.6252 202.735C36.503 200.493 34.9015 198.608 32.709 198.125L24.3336 196.278C21.7408 195.707 20.0468 193.208 20.4755 190.588L21.8605 182.124C22.223 179.909 21.0643 177.723 19.0269 176.78L11.2442 173.176C8.83488 172.06 7.7176 169.256 8.69959 166.789L11.8716 158.821C12.702 156.735 12.0402 154.352 10.2533 152.992L3.42718 147.8C1.31399 146.193 0.825646 143.214 2.31496 141.016L7.12582 133.916C8.38519 132.057 8.25126 129.587 6.79832 127.875L1.24801 121.337C-0.470229 119.313 -0.306811 116.299 1.6202 114.472L7.84489 108.572C9.47438 107.028 9.8746 104.586 8.82357 102.603L4.80857 95.0239C3.56563 92.6777 4.37317 89.7692 6.64777 88.3997L13.9953 83.9758C15.9187 82.8177 16.8343 80.5196 16.2343 78.3561L13.9424 70.0916C13.2329 67.5331 14.6468 64.8661 17.1626 64.0176L25.2893 61.2766C27.4167 60.5591 28.805 58.5116 28.6841 56.2697L28.2224 47.7056C28.0795 45.0544 30.0336 42.7538 32.673 42.4659L41.199 41.5361C43.4309 41.2926 45.2269 39.5914 45.5908 37.3759L46.9809 28.9129C47.4112 26.2929 49.8142 24.4662 52.4538 24.7524L60.9803 25.6771C63.2124 25.9192 65.3321 24.6438 66.1637 22.5583L69.3406 14.592C70.3241 12.1258 73.0637 10.8583 75.58 11.7053L83.7084 14.4413C85.8362 15.1575 88.1805 14.3676 89.441 12.5098L94.2562 5.41255C95.7469 3.21544 98.6949 2.56654 100.97 3.93468L108.32 8.35409C110.245 9.51099 112.704 9.24352 114.334 7.70004L120.563 1.80389Z" fill="white"/>
</svg>
