<svg width="213" height="66" viewBox="0 0 213 66" fill="none" xmlns="http://www.w3.org/2000/svg">
<path d="M-67.76 64.72V9.99996H-89V2.25996H-38.15V9.99996H-59.3V64.72H-67.76ZM-22.49 65.62C-35.36 65.62 -45.08 56.08 -45.08 43.3C-45.08 30.52 -35.45 21.07 -23.03 21.07C-11.33 21.07 -2.87 29.89 -2.87 42.04C-2.87 43.3 -2.96 44.65 -3.32 46.36H-36.8C-35.54 53.47 -30.14 57.97 -22.49 57.97C-17.72 57.97 -13.49 56.35 -10.7 52.93L-5.48 58.24C-9.62 63.01 -15.74 65.62 -22.49 65.62ZM-23.21 28.54C-30.41 28.54 -35.54 32.86 -36.8 39.61H-10.79C-11.69 32.68 -16.19 28.54 -23.21 28.54ZM23.14 65.62C11.35 65.62 2.26 55.9 2.26 43.39C2.26 30.88 11.35 21.07 23.14 21.07C29.17 21.07 34.3 23.59 37.36 27.82V21.97H45.55V64.72H37.36V58.96C34.3 63.1 29.26 65.62 23.14 65.62ZM24.49 57.97C32.5 57.97 37.9 52.03 37.9 43.39C37.9 34.75 32.5 28.72 24.4 28.72C16.3 28.72 10.63 34.75 10.63 43.3C10.63 51.85 16.39 57.97 24.49 57.97ZM56.35 64.72V21.97H64.45V26.92C67.42 23.23 72.01 21.07 77.32 21.07C83.44 21.07 88.57 23.95 91.36 28.81C94.33 23.95 99.73 21.07 105.85 21.07C115.03 21.07 122.32 27.28 122.32 37.27V64.72H114.13V38.89C114.13 32.5 109.81 28.63 103.96 28.63C98.11 28.63 93.34 32.5 93.34 38.8V64.72H85.24V38.89C85.24 32.5 80.92 28.63 74.98 28.63C69.04 28.63 64.45 32.5 64.45 38.8V64.72H56.35ZM136.48 13.42C133.51 13.42 131.35 11.17 131.35 8.19996C131.35 5.22996 133.51 3.06996 136.48 3.06996C139.45 3.06996 141.61 5.31996 141.61 8.19996C141.61 11.08 139.45 13.42 136.48 13.42ZM132.43 64.72V21.97H140.53V64.72H132.43ZM151.47 64.72V0.459961H159.57V64.72H151.47ZM189.95 65.62C177.44 65.62 167.63 55.72 167.63 43.21C167.63 30.7 177.35 21.07 189.95 21.07C202.55 21.07 212.27 30.79 212.27 43.21C212.27 55.63 202.46 65.62 189.95 65.62ZM189.95 57.79C198.05 57.79 203.9 51.67 203.9 43.21C203.9 34.75 197.96 28.9 189.95 28.9C181.94 28.9 176 34.93 176 43.21C176 51.49 181.85 57.79 189.95 57.79Z" fill="white"/>
</svg>
