<svg width="1800" height="108" viewBox="0 0 1800 108" fill="none" xmlns="http://www.w3.org/2000/svg">
<path d="M-57.0608 72.1816V17.4616H-78.3008V9.72164H-27.4508V17.4616H-48.6008V72.1816H-57.0608Z" fill="white"/>
<path d="M-11.7881 73.0816C-24.6581 73.0816 -34.3781 63.5416 -34.3781 50.7616C-34.3781 38.2516 -24.7481 28.5316 -12.3281 28.5316C-0.62812 28.5316 7.83188 37.3516 7.83188 49.5016C7.83188 50.7616 7.74187 52.1116 7.38187 53.8216H-26.0981C-24.8381 60.9316 -19.4381 65.4316 -11.7881 65.4316C-7.01813 65.4316 -2.78812 63.8116 0.00187683 60.3916L5.22188 65.7016C1.08188 70.4716 -5.03812 73.0816 -11.7881 73.0816ZM-12.5081 36.0016C-19.7081 36.0016 -24.8381 40.3216 -26.0981 47.0716H-0.0881271C-0.988129 40.1416 -5.48813 36.0016 -12.5081 36.0016Z" fill="white"/>
<path d="M33.8438 73.0816C22.0538 73.0816 12.9638 63.3616 12.9638 50.8516C12.9638 38.3416 22.0538 28.5316 33.8438 28.5316C39.8738 28.5316 45.0038 31.0516 48.0638 35.2816V29.4316H56.2538V72.1816H48.0638V66.4216C45.0038 70.5616 39.9638 73.0816 33.8438 73.0816ZM35.1938 65.4316C43.2038 65.4316 48.6038 59.4916 48.6038 50.8516C48.6038 42.1216 43.2038 36.1816 35.1038 36.1816C27.0038 36.1816 21.3338 42.2116 21.3338 50.7616C21.3338 59.3116 27.0938 65.4316 35.1938 65.4316Z" fill="white"/>
<path d="M67.0466 72.1816V29.4316H75.1466V34.3816C78.1166 30.6916 82.7066 28.5316 88.0166 28.5316C94.1366 28.5316 99.2666 31.4116 102.057 36.2716C105.027 31.4116 110.427 28.5316 116.547 28.5316C125.727 28.5316 133.017 34.7416 133.017 44.7316V72.1816H124.827V46.3516C124.827 39.9616 120.507 36.0916 114.657 36.0916C108.717 36.0916 104.037 39.9616 104.037 46.2616V72.1816H95.9366V46.3516C95.9366 39.9616 91.6166 36.0916 85.6766 36.0916C79.8266 36.0916 75.1466 39.9616 75.1466 46.2616V72.1816H67.0466Z" fill="white"/>
<path d="M147.179 20.8816C144.209 20.8816 142.049 18.6316 142.049 15.6616C142.049 12.7816 144.209 10.5316 147.179 10.5316C150.149 10.5316 152.309 12.7816 152.309 15.6616C152.309 18.6316 150.149 20.8816 147.179 20.8816ZM143.129 72.1816V29.4316H151.229V72.1816H143.129Z" fill="white"/>
<path d="M162.166 72.1816V7.92164H170.266V72.1816H162.166Z" fill="white"/>
<path d="M200.647 73.0816C188.137 73.0816 178.327 63.1816 178.327 50.6716C178.327 38.2516 188.047 28.5316 200.647 28.5316C213.067 28.5316 222.967 38.2516 222.967 50.6716C222.967 63.2716 213.157 73.0816 200.647 73.0816ZM200.647 65.2516C208.747 65.2516 214.597 59.1316 214.597 50.6716C214.597 42.3016 208.657 36.3616 200.647 36.3616C192.547 36.3616 186.697 42.3916 186.697 50.6716C186.697 59.1316 192.547 65.2516 200.647 65.2516Z" fill="white"/>
<path d="M790.849 56.9616H774.379V80.1816H765.559V15.1116H790.849C803.629 15.1116 811.819 23.4816 811.819 35.9916C811.819 48.1416 803.539 56.9616 790.849 56.9616ZM789.319 23.0316H774.379V49.0416H788.959C797.689 49.0416 802.549 43.9116 802.549 35.9016C802.549 27.7116 797.599 23.0316 789.319 23.0316Z" fill="white"/>
<path d="M814.468 58.1316C814.468 44.5416 824.188 35.0016 837.418 35.0016C850.558 35.0016 860.278 44.5416 860.278 58.1316C860.278 71.7216 850.558 81.2616 837.418 81.2616C824.188 81.2616 814.468 71.7216 814.468 58.1316ZM823.018 58.1316C823.018 67.3116 828.868 73.7016 837.418 73.7016C845.878 73.7016 851.818 67.3116 851.818 58.1316C851.818 48.9516 845.878 42.5616 837.418 42.5616C828.868 42.5616 823.018 48.9516 823.018 58.1316Z" fill="white"/>
<path d="M893.843 35.8116V43.5516H890.063C882.053 43.5516 877.103 48.4116 877.103 56.8716V80.1816H868.643V36.2616H876.563L877.103 42.9216C878.903 38.3316 883.313 35.2716 889.343 35.2716C890.873 35.2716 892.133 35.4516 893.843 35.8116Z" fill="white"/>
<path d="M914.955 80.1816H906.495V43.2816H897.855V36.1716H906.495V22.4016H914.955V36.1716H923.595V43.2816H914.955V80.1816Z" fill="white"/>
<path d="M942.53 81.2616C933.08 81.2616 927.5 75.9516 927.5 67.9416C927.5 59.8416 933.53 54.8016 943.88 53.9916L957.74 52.9116V51.6516C957.74 44.2716 953.33 41.6616 947.39 41.6616C940.28 41.6616 936.23 44.8116 936.23 50.1216H928.85C928.85 40.9416 936.41 34.9116 947.75 34.9116C958.64 34.9116 966.02 40.6716 966.02 52.5516V80.1816H958.82L957.92 73.0716C955.67 78.1116 949.64 81.2616 942.53 81.2616ZM944.96 74.6916C952.97 74.6916 957.83 69.4716 957.83 61.1916V58.8516L946.58 59.7516C939.11 60.4716 936.05 63.3516 936.05 67.6716C936.05 72.3516 939.47 74.6916 944.96 74.6916Z" fill="white"/>
<path d="M985.376 80.1816H976.916V13.9416H985.376V80.1816Z" fill="white"/>
<path d="M458.431 65.8008V81.2549C451.986 81.2549 446.468 79.1064 441.878 74.8096C441.829 74.7119 441.732 74.5898 441.585 74.4434C441.439 74.248 441.317 74.126 441.219 74.0771C436.043 77.5928 430.379 79.79 424.227 80.6689C418.074 81.5479 412.02 81.0107 406.063 79.0576C400.106 77.0557 394.881 73.7598 390.389 69.1699C385.457 63.9941 382.137 58.0127 380.428 51.2256C378.719 44.3896 378.792 37.6025 380.648 30.8643C382.552 24.0771 386.068 18.1934 391.195 13.2129C396.37 8.28125 402.352 4.98535 409.139 3.3252C415.975 1.61621 422.762 1.71387 429.5 3.61816C436.287 5.47363 442.171 8.96484 447.152 14.0918L447.518 14.458C452.205 19.3896 455.404 25.1025 457.112 31.5967C458.821 38.042 458.895 44.4873 457.332 50.9326C455.77 57.3779 452.718 63.0908 448.177 68.0713C448.616 68.1201 449.276 68.1445 450.154 68.1445C453.035 68.1445 455.794 67.3633 458.431 65.8008ZM436.238 60.8203C438.387 63.7012 440.902 65.752 443.782 66.9727C447.298 63.1641 449.276 58.3057 449.715 52.3975C450.203 45.8057 448.738 39.2383 445.32 32.6953C441.951 26.1035 437.264 20.6348 431.258 16.2891C425.301 11.9434 419.051 9.55078 412.508 9.11133C405.672 8.62305 399.935 10.4297 395.296 14.5312C390.706 18.584 388.143 24.0283 387.606 30.8643C387.264 35.8936 388.07 40.9717 390.023 46.0986C391.976 51.2256 394.661 55.7666 398.079 59.7217C401.546 63.6768 405.623 66.9727 410.311 69.6094C415.047 72.1973 419.881 73.6377 424.813 73.9307C429.891 74.2725 434.432 73.3447 438.436 71.1475C435.506 67.7295 433.553 64.2871 432.576 60.8203H436.238Z" fill="#434343"/>
<path d="M517.123 78.1787C518.344 75.6885 519.003 73.4912 519.101 71.5869V41.8506C519.101 40.4346 518.637 39.165 517.709 38.042C516.83 36.9189 515.683 36.2842 514.267 36.1377C510.214 35.7471 506.552 38.75 503.28 45.1465V71.6602V71.5869C503.378 73.4912 504.037 75.6885 505.258 78.1787C505.502 78.7158 505.771 79.2529 506.064 79.79C506.405 80.2783 506.674 80.6445 506.869 80.8887L507.162 81.2549H487.826C488.559 80.4248 489.218 79.3994 489.804 78.1787C490.927 75.7861 491.562 73.5889 491.708 71.5869V41.8506C491.708 40.4346 491.269 39.165 490.39 38.042C489.511 36.9189 488.363 36.2842 486.947 36.1377C485.629 35.9912 484.384 36.1865 483.212 36.7236C482.04 37.2119 481.039 37.9199 480.209 38.8477C479.379 39.7754 478.695 40.6543 478.158 41.4844C477.621 42.3145 477.109 43.2178 476.62 44.1943C476.181 45.1221 475.937 45.6104 475.888 45.6592V71.6602C476.083 73.6621 476.742 75.835 477.865 78.1787C478.11 78.7158 478.378 79.2529 478.671 79.79C479.013 80.2783 479.281 80.6445 479.477 80.8887L479.77 81.2549H460.507C461.239 80.4248 461.899 79.3994 462.485 78.1787C463.412 76.3232 464.023 74.3457 464.316 72.2461V38.8477C464.169 36.8457 463.534 34.6484 462.411 32.2559C462.167 31.7188 461.874 31.2061 461.532 30.7178C461.191 30.1807 460.922 29.8145 460.727 29.6191L460.434 29.2529H472.738C473.617 29.8389 474.325 31.0596 474.862 32.915C475.4 34.7217 475.717 36.4062 475.815 37.9688L475.888 40.3125C479.062 36.6016 481.308 34.2578 482.626 33.2812C483.652 32.5 484.408 31.9385 484.897 31.5967C485.385 31.2549 486.313 30.8154 487.68 30.2783C489.047 29.6924 490.39 29.3506 491.708 29.2529C494.589 29.0576 497.104 30.083 499.252 32.3291C501.449 34.5752 502.768 37.2363 503.207 40.3125C506.235 36.748 508.505 34.4043 510.019 33.2812C511.044 32.5 511.801 31.9385 512.289 31.5967C512.778 31.2549 513.705 30.8154 515.072 30.2783C516.44 29.6924 517.782 29.3506 519.101 29.2529C522.275 29.0576 524.985 30.3027 527.231 32.9883C529.526 35.6738 530.673 38.7012 530.673 42.0703V71.6602V71.5869C530.82 73.5889 531.454 75.7861 532.577 78.1787C532.821 78.7158 533.114 79.2529 533.456 79.79C533.798 80.2783 534.067 80.6445 534.262 80.8887L534.555 81.2549H515.219C515.903 80.4248 516.537 79.3994 517.123 78.1787Z" fill="#434343"/>
<path d="M550.694 71.7334C550.889 73.833 551.524 76.0059 552.598 78.252C552.842 78.7891 553.135 79.3262 553.477 79.8633C553.819 80.3516 554.087 80.6934 554.282 80.8887L554.575 81.2549H535.239C535.972 80.4736 536.631 79.4727 537.217 78.252C538.145 76.3965 538.755 74.3945 539.048 72.2461V38.8477C538.853 36.748 538.218 34.5752 537.144 32.3291C536.9 31.792 536.607 31.2793 536.265 30.791C535.923 30.2539 535.654 29.8633 535.459 29.6191L535.166 29.2529H554.575C553.843 30.083 553.184 31.1084 552.598 32.3291C551.524 34.5752 550.889 36.748 550.694 38.8477V71.7334ZM549.082 18.2666C547.91 19.4385 546.494 20.0244 544.834 20.0244C543.174 20.0244 541.758 19.4385 540.586 18.2666C539.414 17.0459 538.828 15.6055 538.828 13.9453C538.828 12.2852 539.414 10.8691 540.586 9.69727C541.758 8.52539 543.174 7.93945 544.834 7.93945C546.494 7.93945 547.91 8.52539 549.082 9.69727C550.303 10.8691 550.913 12.2852 550.913 13.9453C550.913 15.6055 550.303 17.0459 549.082 18.2666Z" fill="#434343"/>
<path d="M569.322 18.2666C568.151 19.4385 566.735 20.0244 565.074 20.0244C563.414 20.0244 561.998 19.4385 560.826 18.2666C559.654 17.0459 559.069 15.6055 559.069 13.9453C559.069 12.2852 559.654 10.8691 560.826 9.69727C561.998 8.52539 563.414 7.93945 565.074 7.93945C566.735 7.93945 568.151 8.52539 569.322 9.69727C570.494 10.8691 571.08 12.2852 571.08 13.9453C571.08 15.6055 570.494 17.0459 569.322 18.2666ZM555.406 29.2529H574.742C574.059 30.083 573.424 31.1084 572.838 32.3291C571.715 34.6729 571.056 36.8701 570.861 38.9209V91.1426C570.812 95.7324 569.322 99.6387 566.393 102.861C563.512 106.084 559.825 107.72 555.333 107.769H551.964C552.159 107.671 552.428 107.5 552.77 107.256C553.112 107.012 553.697 106.426 554.528 105.498C555.358 104.57 556.09 103.521 556.725 102.349C557.36 101.226 557.945 99.6387 558.483 97.5879C559.02 95.5859 559.288 93.4131 559.288 91.0693V38.9209C559.093 36.7236 558.458 34.5264 557.384 32.3291C557.14 31.792 556.847 31.2793 556.505 30.791C556.163 30.2539 555.895 29.8633 555.699 29.6191L555.406 29.2529Z" fill="#434343"/>
<path d="M1118.92 78.1816V16.0816H1130.44L1150.24 58.2016L1170.04 16.0816H1181.65V78.1816H1172.47V30.8416L1154.38 69.4516H1146.19L1128.01 30.8416V78.1816H1118.92Z" fill="#434343"/>
<path d="M1195.15 22.7416V13.2016H1204.51V22.7416H1195.15ZM1195.51 78.1816V31.2016H1204.24V78.1816H1195.51Z" fill="#434343"/>
<path d="M1216.55 64.3216V44.9716C1216.55 35.7916 1221.14 31.2016 1230.32 31.2016H1247.69L1251.83 34.2616V38.8516H1230.59C1227.05 38.8516 1225.28 40.5916 1225.28 44.0716V65.2216C1225.28 68.7616 1227.05 70.5316 1230.59 70.5316H1251.83V75.1216L1247.69 78.1816H1230.32C1221.14 78.1816 1216.55 73.5616 1216.55 64.3216Z" fill="#434343"/>
<path d="M1261.61 78.1816V36.7816C1263.71 33.0616 1267.7 31.2016 1273.58 31.2016H1282.85L1286.99 34.2616V38.8516H1275.29C1272.95 38.8516 1271.3 39.4516 1270.34 40.6516V78.1816H1261.61Z" fill="#434343"/>
<path d="M1294.62 64.3216V44.9716C1294.62 35.7916 1299.21 31.2016 1308.39 31.2016H1320.99C1330.17 31.2016 1334.76 35.7916 1334.76 44.9716V64.3216C1334.76 73.5616 1330.17 78.1816 1320.99 78.1816H1308.39C1299.21 78.1816 1294.62 73.5616 1294.62 64.3216ZM1303.35 65.2216C1303.35 68.7616 1305.12 70.5316 1308.66 70.5316H1320.81C1324.29 70.5316 1326.03 68.7616 1326.03 65.2216V44.0716C1326.03 40.5916 1324.29 38.8516 1320.81 38.8516H1308.66C1305.12 38.8516 1303.35 40.5916 1303.35 44.0716V65.2216Z" fill="#434343"/>
<path d="M1345.27 75.1216V70.5316H1366.06C1369.6 70.5316 1371.37 68.7316 1371.37 65.1316C1371.37 61.4116 1369.93 59.3116 1367.05 58.8316L1356.7 57.1216C1349.08 55.8016 1345.27 51.6016 1345.27 44.5216C1345.27 35.6416 1349.89 31.2016 1359.13 31.2016H1373.8L1377.94 34.2616V38.8516H1359.31C1355.71 38.8516 1353.91 40.6516 1353.91 44.2516C1353.91 47.6116 1355.41 49.5616 1358.41 50.1016L1368.85 51.8116C1376.35 53.0716 1380.1 57.3916 1380.1 64.7716C1380.1 73.7116 1375.45 78.1816 1366.15 78.1816H1349.41L1345.27 75.1216Z" fill="#434343"/>
<path d="M1390.53 64.3216V44.9716C1390.53 35.7916 1395.12 31.2016 1404.3 31.2016H1416.9C1426.08 31.2016 1430.67 35.7916 1430.67 44.9716V64.3216C1430.67 73.5616 1426.08 78.1816 1416.9 78.1816H1404.3C1395.12 78.1816 1390.53 73.5616 1390.53 64.3216ZM1399.26 65.2216C1399.26 68.7616 1401.03 70.5316 1404.57 70.5316H1416.72C1420.2 70.5316 1421.94 68.7616 1421.94 65.2216V44.0716C1421.94 40.5916 1420.2 38.8516 1416.72 38.8516H1404.57C1401.03 38.8516 1399.26 40.5916 1399.26 44.0716V65.2216Z" fill="#434343"/>
<path d="M1442.98 78.1816V25.4416C1442.98 16.2016 1447.57 11.5816 1456.75 11.5816H1465.12L1469.26 14.6416V19.2316H1457.02C1453.48 19.2316 1451.71 21.0016 1451.71 24.5416V31.2016H1468.36V38.8516H1451.71V78.1816H1442.98Z" fill="#434343"/>
<path d="M1476.69 64.3216V16.0816H1485.42V31.2016H1502.07V38.8516H1485.42V65.2216C1485.42 68.7616 1487.19 70.5316 1490.73 70.5316H1502.97V75.1216L1498.83 78.1816H1490.46C1481.28 78.1816 1476.69 73.5616 1476.69 64.3216Z" fill="#434343"/>
<path d="M1662.35 77.5195C1661.82 77.168 1661.56 76.7871 1661.56 76.377C1661.5 75.9668 1661.59 75.5566 1661.82 75.1465C1662.06 74.6777 1662.41 74.209 1662.88 73.7402C1663.35 73.3301 1663.9 72.2754 1664.55 70.5762C1665.19 68.9355 1665.87 66.9434 1666.57 64.5996C1667.33 62.1973 1668.06 59.5898 1668.77 56.7773C1669.53 53.9648 1670.23 51.2109 1670.88 48.5156C1671.52 45.8203 1672.08 43.3301 1672.55 41.0449C1673.01 38.7598 1673.37 36.9434 1673.6 35.5957C1673.89 33.9551 1674.22 32.168 1674.57 30.2344C1674.86 28.5352 1675.18 26.5723 1675.53 24.3457C1675.89 22.0605 1676.21 19.541 1676.5 16.7871L1683.53 13.623C1684.53 13.1543 1685.23 13.2715 1685.64 13.9746C1686.05 14.6191 1686.05 15.9961 1685.64 18.1055C1685.47 19.1602 1685.14 20.8887 1684.68 23.291C1684.21 25.6348 1683.65 28.2422 1683.01 31.1133C1682.42 33.9258 1681.77 36.8262 1681.07 39.8145C1680.43 42.7441 1679.78 45.3516 1679.14 47.6367C1678.55 49.8047 1677.88 52.2949 1677.12 55.1074C1675.77 59.9121 1673.89 66.4746 1671.49 74.7949C1672.31 76.2012 1673.84 76.9043 1676.06 76.9043C1678.52 76.9043 1681.36 75.9668 1684.59 74.0918C1687.87 72.2168 1691.03 69.4043 1694.08 65.6543C1697.13 61.9043 1699.79 57.2168 1702.08 51.5918C1704.42 45.9082 1705.89 39.2871 1706.47 31.7285C1706.76 27.627 1706.56 24.0234 1705.86 20.918C1705.15 17.8125 1704.07 15.2051 1702.6 13.0957C1701.2 10.9863 1699.44 9.4043 1697.33 8.34961C1695.28 7.29492 1693 6.76758 1690.48 6.76758C1684.56 6.76758 1678.43 9.22852 1672.11 14.1504L1671.67 6.85547C1673.19 5.15625 1674.92 3.86719 1676.85 2.98828C1678.84 2.05078 1680.69 1.34766 1682.39 0.878906C1684.38 0.351562 1686.4 0.0585938 1688.45 0C1692.2 0 1695.81 0.732422 1699.26 2.19727C1702.78 3.60352 1705.8 5.77148 1708.32 8.70117C1710.9 11.6309 1712.86 15.3223 1714.21 19.7754C1715.55 24.1699 1716.02 29.3262 1715.61 35.2441C1715.38 38.6426 1714.68 42.1875 1713.5 45.8789C1712.39 49.5117 1710.9 53.0859 1709.02 56.6016C1707.2 60.1172 1705.04 63.457 1702.52 66.6211C1700 69.7852 1697.24 72.5391 1694.26 74.8828C1691.27 77.2852 1688.07 79.1602 1684.68 80.5078C1681.28 81.9141 1677.76 82.6172 1674.13 82.6172C1673.01 82.5586 1671.81 82.3535 1670.52 82.002C1669.41 81.709 1668.15 81.2109 1666.75 80.5078C1665.34 79.8047 1663.87 78.8086 1662.35 77.5195Z" fill="white"/>
<path d="M1738.87 11.8652C1738.87 12.3926 1738.67 13.0371 1738.26 13.7988C1737.9 14.502 1737.41 15.1758 1736.76 15.8203C1736.18 16.4062 1735.5 16.9336 1734.74 17.4023C1734.04 17.8125 1733.3 18.0176 1732.54 18.0176C1731.9 18.0176 1731.31 17.6953 1730.78 17.0508C1730.26 16.4062 1730.02 15.5273 1730.08 14.4141C1730.08 13.6523 1730.29 12.8613 1730.7 12.041C1731.17 11.1621 1731.72 10.3711 1732.37 9.66797C1733.07 8.96484 1733.8 8.4082 1734.56 7.99805C1735.38 7.5293 1736.15 7.29492 1736.85 7.29492C1737.84 7.29492 1738.43 7.76367 1738.61 8.70117C1738.84 9.63867 1738.93 10.6934 1738.87 11.8652ZM1708.11 106.084C1706.53 106.084 1705.15 105.645 1703.98 104.766C1702.81 103.887 1701.87 102.773 1701.17 101.426C1700.4 100.078 1699.85 98.6133 1699.5 97.0312C1699.14 95.4492 1699 93.9551 1699.06 92.5488C1699.11 91.3184 1699.58 89.7363 1700.46 87.8027C1701.28 85.8691 1702.45 83.7891 1703.98 81.5625C1705.5 79.3945 1707.35 77.168 1709.51 74.8828C1711.68 72.6562 1714.09 70.6641 1716.72 68.9062C1717.07 67.0898 1717.45 65.2441 1717.86 63.3691C1718.22 61.4355 1718.57 59.5898 1718.92 57.832C1719.27 56.0156 1719.62 54.3164 1719.97 52.7344C1720.38 51.0938 1720.76 49.6582 1721.12 48.4277C1721.53 46.8457 1721.97 45.1758 1722.43 43.418C1722.84 41.8945 1723.31 40.2246 1723.84 38.4082C1724.37 36.5332 1724.93 34.6582 1725.51 32.7832C1726.1 32.4902 1726.65 32.2852 1727.18 32.168C1727.71 32.0508 1728.18 31.9629 1728.59 31.9043C1729.06 31.8457 1729.5 31.8457 1729.91 31.9043C1730.32 31.9629 1730.73 32.0801 1731.14 32.2559C1731.9 32.5488 1732.57 33.0762 1733.16 33.8379C1732.16 37.002 1731.31 39.6973 1730.61 41.9238C1729.96 44.1504 1729.41 45.9961 1728.94 47.4609C1728.41 49.1602 1728 50.5957 1727.71 51.7676C1727.18 53.4082 1726.71 55.2832 1726.3 57.3926C1725.89 59.4434 1725.42 61.6699 1724.9 64.0723C1727.36 62.5488 1729.82 60.7617 1732.28 58.7109C1734.8 56.6602 1737.08 54.668 1739.13 52.7344C1741.24 50.7422 1743 49.0137 1744.41 47.5488C1745.87 46.0254 1746.78 45.0586 1747.13 44.6484C1747.54 44.1797 1747.95 43.9453 1748.36 43.9453C1748.77 43.8867 1749.09 44.0039 1749.33 44.2969C1749.62 44.5898 1749.74 45.0293 1749.68 45.6152C1749.68 46.1426 1749.42 46.7578 1748.89 47.4609C1748.07 48.6328 1746.84 50.127 1745.2 51.9434C1743.56 53.7012 1741.68 55.5762 1739.57 57.5684C1737.46 59.502 1735.18 61.4648 1732.72 63.457C1730.32 65.3906 1727.91 67.0605 1725.51 68.4668C1724.98 68.7598 1724.4 69.1406 1723.75 69.6094C1722.93 73.0664 1722.14 76.4648 1721.38 79.8047C1720.62 83.1445 1719.77 86.25 1718.83 89.1211C1717.95 91.9336 1717.16 94.3945 1716.46 96.5039C1715.76 98.6719 1715.02 100.459 1714.26 101.865C1713.5 103.271 1712.65 104.326 1711.71 105.029C1710.72 105.732 1709.51 106.084 1708.11 106.084ZM1704.94 95.0098C1704.83 97.0605 1704.97 98.584 1705.38 99.5801C1705.79 100.635 1706.35 101.162 1707.05 101.162C1707.52 101.162 1708.05 100.664 1708.64 99.668C1709.16 98.6719 1709.69 97.4121 1710.22 95.8887C1710.69 94.3652 1711.18 92.6953 1711.71 90.8789C1712.18 89.1211 1712.62 87.4512 1713.03 85.8691C1713.38 84.2871 1713.68 82.9395 1713.91 81.8262C1714.14 80.7129 1714.29 80.0684 1714.35 79.8926C1714.47 79.4238 1714.58 78.9258 1714.7 78.3984C1714.82 77.8711 1714.93 77.2852 1715.05 76.6406C1713.7 78.0469 1712.44 79.4824 1711.27 80.9473C1710.04 82.4707 1708.99 84.0234 1708.11 85.6055C1707.17 87.1875 1706.44 88.7695 1705.91 90.3516C1705.33 91.9336 1705 93.4863 1704.94 95.0098Z" fill="white"/>
<path d="M1751.93 67.5879C1749.71 67.5879 1747.89 67.2363 1746.48 66.5332C1745.08 65.8301 1743.96 64.9805 1743.14 63.9844C1742.38 62.9297 1741.83 61.8164 1741.47 60.6445C1741.18 59.4141 1741.03 58.3008 1741.03 57.3047C1741.03 55.5469 1741.18 53.7012 1741.47 51.7676C1741.77 49.7754 1742.12 47.959 1742.53 46.3184C1742.94 44.6191 1743.29 43.1836 1743.58 42.0117C1743.93 40.8398 1744.17 40.1074 1744.29 39.8145C1744.81 38.1152 1745.49 36.6504 1746.31 35.4199C1747.19 34.1309 1748.39 33.252 1749.91 32.7832C1750.5 32.666 1751.11 32.5488 1751.76 32.4316C1752.28 32.373 1752.81 32.3438 1753.34 32.3438C1753.93 32.3438 1754.45 32.4316 1754.92 32.6074C1753.34 36.6504 1752.08 40.0195 1751.14 42.7148C1750.26 45.4102 1749.59 47.6074 1749.12 49.3066C1748.59 51.2402 1748.27 52.793 1748.15 53.9648C1747.86 56.6016 1748.09 58.5938 1748.86 59.9414C1749.62 61.2891 1751.17 61.9629 1753.51 61.9629C1755.04 61.9629 1756.5 61.4062 1757.91 60.293C1759.32 59.1211 1760.6 57.627 1761.78 55.8105C1761.6 54.873 1761.51 53.9062 1761.51 52.9102C1761.51 51.0352 1761.66 49.2188 1761.95 47.4609C1762.3 45.6445 1762.68 43.9746 1763.09 42.4512C1763.56 40.8691 1764.03 39.4629 1764.5 38.2324C1765.03 37.002 1765.47 36.0352 1765.82 35.332C1766.46 33.9258 1767.05 33.0762 1767.58 32.7832C1768.1 32.4316 1768.95 32.2266 1770.13 32.168C1770.59 32.1094 1770.98 32.1094 1771.27 32.168C1771.62 32.168 1771.91 32.1973 1772.15 32.2559C1772.85 32.4316 1773.2 32.7832 1773.2 33.3105C1773.2 34.248 1773.14 35.6543 1773.03 37.5293C1772.91 39.4043 1772.56 41.3379 1771.97 43.3301C1771.56 44.9707 1771.15 46.377 1770.74 47.5488C1770.39 48.6621 1770.04 49.6289 1769.69 50.4492C1769.34 51.2109 1768.98 51.8555 1768.63 52.3828C1768.28 52.8516 1767.96 53.291 1767.67 53.7012C1767.78 55.459 1767.93 56.8652 1768.1 57.9199C1768.28 58.9746 1768.49 59.7949 1768.72 60.3809C1769.01 60.9082 1769.34 61.2891 1769.69 61.5234C1770.1 61.6992 1770.54 61.7871 1771.01 61.7871C1771.83 61.7871 1772.79 61.4062 1773.91 60.6445C1775.02 59.8242 1776.16 58.8281 1777.33 57.6562C1778.56 56.4258 1779.76 55.1074 1780.94 53.7012C1782.17 52.2363 1783.28 50.8594 1784.28 49.5703C1785.27 48.2812 1786.12 47.168 1786.83 46.2305C1787.53 45.2344 1787.97 44.6191 1788.14 44.3848C1788.55 43.8574 1788.93 43.5352 1789.29 43.418C1789.7 43.3008 1790.02 43.3594 1790.25 43.5938C1790.49 43.7695 1790.6 44.0918 1790.6 44.5605C1790.66 44.9707 1790.55 45.4395 1790.25 45.9668C1789.08 48.1934 1787.62 50.5664 1785.86 53.0859C1784.16 55.5469 1782.31 57.832 1780.32 59.9414C1778.39 62.0508 1776.43 63.8086 1774.43 65.2148C1772.44 66.6211 1770.57 67.3242 1768.81 67.3242C1767.23 67.3242 1765.97 66.7969 1765.03 65.7422C1764.15 64.6289 1763.39 63.0469 1762.74 60.9961C1761.4 63.1055 1759.81 64.7461 1758 65.918C1756.18 67.0312 1754.16 67.5879 1751.93 67.5879Z" fill="white"/>
<path d="M1801.56 14.4141C1801.38 15.0586 1801.03 15.7031 1800.5 16.3477C1800.03 16.9336 1799.48 17.4316 1798.83 17.8418C1798.25 18.1934 1797.63 18.4277 1796.99 18.5449C1796.34 18.6621 1795.82 18.5449 1795.41 18.1934C1794.18 17.2559 1793.53 16.2598 1793.47 15.2051C1793.41 14.0918 1793.68 13.0664 1794.26 12.1289C1794.85 11.1328 1795.58 10.3125 1796.46 9.66797C1797.34 8.96484 1798.1 8.55469 1798.75 8.4375C1799.39 8.32031 1799.92 8.4668 1800.33 8.87695C1800.8 9.22852 1801.15 9.72656 1801.38 10.3711C1801.62 10.957 1801.73 11.6309 1801.73 12.3926C1801.79 13.1543 1801.73 13.8281 1801.56 14.4141ZM1789.43 33.1348C1789.72 32.7832 1790.28 32.4902 1791.1 32.2559C1791.92 32.0215 1792.77 31.8457 1793.65 31.7285C1794.53 31.5527 1795.32 31.4648 1796.02 31.4648C1796.78 31.4062 1797.22 31.4062 1797.34 31.4648C1797.4 31.5234 1797.25 32.1387 1796.9 33.3105C1796.55 34.4824 1796.11 35.8594 1795.58 37.4414C1795.05 39.0234 1794.5 40.6641 1793.91 42.3633C1793.33 44.0039 1792.89 45.3516 1792.59 46.4062C1792.3 47.4609 1791.95 48.6621 1791.54 50.0098C1791.13 51.2988 1790.75 52.5879 1790.4 53.877C1790.1 55.1074 1789.9 56.2793 1789.78 57.3926C1789.66 58.5059 1789.75 59.3555 1790.04 59.9414C1790.34 60.6445 1790.66 61.1426 1791.01 61.4355C1791.36 61.6699 1791.74 61.7871 1792.15 61.7871C1793.33 61.7871 1794.79 61.1426 1796.55 59.8535C1798.36 58.5645 1800.18 57.041 1802 55.2832C1803.87 53.4668 1805.6 51.6504 1807.18 49.834C1808.76 47.959 1809.94 46.4648 1810.7 45.3516C1811.17 44.7656 1811.64 44.3848 1812.1 44.209C1812.63 44.0332 1813.04 44.0625 1813.34 44.2969C1813.69 44.5312 1813.86 44.9121 1813.86 45.4395C1813.92 45.9668 1813.75 46.582 1813.34 47.2852C1812.4 48.9258 1811.02 50.8887 1809.2 53.1738C1807.39 55.4004 1805.45 57.5684 1803.4 59.6777C1801.35 61.7285 1799.33 63.4863 1797.34 64.9512C1795.41 66.416 1793.82 67.1777 1792.59 67.2363C1791.6 67.2949 1790.6 67.1191 1789.6 66.709C1788.67 66.3574 1787.79 65.8594 1786.97 65.2148C1786.21 64.5117 1785.56 63.7207 1785.03 62.8418C1784.51 61.9043 1784.21 60.9375 1784.16 59.9414C1783.98 58.4766 1783.98 56.4844 1784.16 53.9648C1784.33 51.3867 1784.65 48.7793 1785.12 46.1426C1785.59 43.4473 1786.18 40.8984 1786.88 38.4961C1787.64 36.0938 1788.49 34.3066 1789.43 33.1348Z" fill="white"/>
<path d="M1831.67 50.5371C1830.15 52.7637 1828.57 54.9316 1826.93 57.041C1825.34 59.1504 1823.79 61.0547 1822.27 62.7539C1820.8 64.3945 1819.43 65.7129 1818.14 66.709C1816.91 67.7637 1815.91 68.291 1815.15 68.291C1813.33 68.291 1811.84 67.4414 1810.67 65.7422C1809.55 63.9844 1808.67 61.8457 1808.03 59.3262C1807.44 56.748 1807.06 54.0234 1806.89 51.1523C1806.77 48.2227 1806.8 45.6152 1806.97 43.3301C1807.21 41.0449 1807.47 39.2285 1807.76 37.8809C1808.06 36.4746 1808.41 35.3906 1808.82 34.6289C1809.29 33.8672 1809.82 33.3105 1810.4 32.959C1811.05 32.6074 1811.84 32.3145 1812.77 32.0801C1813.18 31.9629 1813.65 31.875 1814.18 31.8164C1814.71 31.7578 1815.18 31.7871 1815.59 31.9043C1816.06 31.9629 1816.41 32.1387 1816.64 32.4316C1816.88 32.7246 1816.91 33.1641 1816.73 33.75C1816.61 34.2773 1816.41 35.0684 1816.11 36.123C1815.88 37.1191 1815.62 38.2617 1815.32 39.5508C1815.03 40.8398 1814.74 42.1875 1814.44 43.5938C1814.21 45 1814.03 46.3477 1813.92 47.6367C1813.74 49.8633 1813.74 51.8262 1813.92 53.5254C1814.09 55.166 1814.36 56.5723 1814.71 57.7441C1815.06 58.8574 1815.44 59.707 1815.85 60.293C1816.26 60.8789 1816.58 61.1719 1816.82 61.1719C1817.11 61.1719 1817.64 60.791 1818.4 60.0293C1819.22 59.209 1820.13 58.1543 1821.12 56.8652C1822.18 55.5762 1823.26 54.082 1824.38 52.3828C1825.55 50.6836 1826.63 48.9258 1827.63 47.1094C1827.28 46.1719 1827.13 45.0586 1827.19 43.7695C1827.36 41.7773 1827.8 39.9902 1828.51 38.4082C1829.21 36.7676 1830 35.3906 1830.88 34.2773C1831.82 33.1641 1832.76 32.3145 1833.69 31.7285C1834.69 31.084 1835.57 30.7617 1836.33 30.7617C1837.85 30.7617 1838.79 31.1719 1839.14 31.9922C1839.55 32.7539 1839.7 33.5449 1839.58 34.3652C1839.46 35.5957 1838.91 37.2949 1837.91 39.4629C1836.97 41.5723 1835.74 43.8867 1834.22 46.4062C1834.51 46.5234 1834.84 46.6406 1835.19 46.7578C1835.54 46.875 1835.95 46.9336 1836.42 46.9336C1838.41 46.9336 1840.2 46.6992 1841.78 46.2305C1843.42 45.7617 1844.83 45.2051 1846 44.5605C1847.23 43.916 1848.25 43.2422 1849.07 42.5391C1849.95 41.7773 1850.66 41.1621 1851.18 40.6934C1851.53 40.3418 1851.89 40.166 1852.24 40.166C1852.59 40.166 1852.88 40.2539 1853.12 40.4297C1853.35 40.6055 1853.47 40.8691 1853.47 41.2207C1853.47 41.5723 1853.29 41.9531 1852.94 42.3633C1850.83 44.9414 1848.25 47.0215 1845.21 48.6035C1842.22 50.1855 1838.7 50.9766 1834.66 50.9766C1834.31 50.9766 1833.87 50.9473 1833.34 50.8887C1832.81 50.8301 1832.26 50.7129 1831.67 50.5371Z" fill="white"/>
<path d="M1883.23 47.9004C1881.47 50.4785 1879.48 52.998 1877.25 55.459C1875.03 57.8613 1872.65 60.0293 1870.13 61.9629C1867.67 63.8379 1865.12 65.3613 1862.49 66.5332C1859.91 67.7051 1857.39 68.291 1854.93 68.291C1853.64 68.291 1852.23 67.9688 1850.71 67.3242C1849.25 66.7383 1847.9 65.8008 1846.67 64.5117C1845.44 63.2227 1844.44 61.5527 1843.68 59.502C1842.98 57.4512 1842.77 54.9609 1843.06 52.0312C1843.3 49.6289 1844.03 47.1094 1845.26 44.4727C1846.55 41.7773 1848.1 39.3164 1849.92 37.0898C1851.79 34.8633 1853.87 33.0176 1856.16 31.5527C1858.5 30.0879 1860.85 29.3555 1863.19 29.3555C1865.42 29.3555 1867.03 29.9121 1868.02 31.0254C1869.02 32.1387 1869.46 33.5156 1869.34 35.1562C1869.17 36.9727 1868.64 38.6426 1867.76 40.166C1866.94 41.6895 1865.94 43.0664 1864.77 44.2969C1863.6 45.5273 1862.34 46.6406 1860.99 47.6367C1859.7 48.6328 1858.47 49.541 1857.3 50.3613C1856.01 51.2402 1854.78 52.0898 1853.61 52.9102C1852.44 53.6719 1851.41 54.375 1850.53 55.0195C1850.59 56.4844 1850.86 57.7148 1851.33 58.7109C1851.79 59.707 1852.38 60.5273 1853.08 61.1719C1853.79 61.7578 1854.58 62.1973 1855.46 62.4902C1856.39 62.7246 1857.33 62.8418 1858.27 62.8418C1860.26 62.8418 1862.34 62.2266 1864.51 60.9961C1866.68 59.707 1868.79 58.1836 1870.84 56.4258C1872.95 54.6094 1874.88 52.7344 1876.64 50.8008C1878.45 48.8672 1879.95 47.1973 1881.12 45.791C1881.53 45.3223 1881.94 45.0586 1882.35 45C1882.82 44.8828 1883.17 44.9414 1883.41 45.1758C1883.7 45.3516 1883.84 45.7031 1883.84 46.2305C1883.84 46.6992 1883.64 47.2559 1883.23 47.9004ZM1860.73 34.3652C1860.03 34.3652 1859.18 34.7168 1858.18 35.4199C1857.24 36.123 1856.31 37.1484 1855.37 38.4961C1854.43 39.7852 1853.55 41.3965 1852.73 43.3301C1851.91 45.2051 1851.3 47.373 1850.89 49.834C1851.59 49.3066 1852.35 48.7793 1853.17 48.252C1853.99 47.666 1854.81 47.0508 1855.63 46.4062C1858.15 44.4727 1859.91 42.7734 1860.91 41.3086C1861.9 39.8438 1862.46 38.584 1862.58 37.5293C1862.69 36.416 1862.58 35.625 1862.22 35.1562C1861.87 34.6289 1861.37 34.3652 1860.73 34.3652Z" fill="white"/>
</svg>
